<svg width="50" height="50" fill="none" xmlns="http://www.w3.org/2000/svg"><g clip-path="url(#clip0)" fill="#00A0E3"><path d="M40.833 18.333a9.167 9.167 0 1 1 0-18.333A9.167 9.167 0 0 1 50 9.167a9.177 9.177 0 0 1-9.167 9.166zm0-16.666a7.5 7.5 0 1 0 7.5 7.5 7.508 7.508 0 0 0-7.5-7.5z"/><path d="M40 13.678l-4.124-4.124 1.178-1.178L40 11.322l5.303-5.304 1.178 1.179L40 13.678zM41.667 20H40v23.333H9.625c-.074-1.032-.53-2-1.279-2.714l-.018-.016a.77.77 0 0 1 0-1.083l1.975-1.976a2.5 2.5 0 0 0 0-3.535l-.591-.591a1.666 1.666 0 0 0-2.212-.12V15h8.333V6.667h15V5H14.655l-8.822 8.822v15.833l-5.1 5.1A2.481 2.481 0 0 0 0 36.524V50h1.667V36.523c0-.22.088-.433.244-.589l3.922-3.922v2.926l-2.947 2.948 1.178 1.178 4.47-4.469.59.591a.834.834 0 0 1 0 1.178L7.148 38.34a2.433 2.433 0 0 0 .048 3.487l.024.023a2.484 2.484 0 0 1 .212 3.358l-1.416 1.771 1.302 1.042 1.416-1.773a4.1 4.1 0 0 0 .672-1.25h2.317c-.044.068-.074.142-.125.206L10 47.206V50h1.667v-2.207l1.232-1.543c.3-.373.531-.797.684-1.25h28.084V20zM8.678 13.333l5.489-5.488v5.488H8.678z"/><path d="M15.833 33.333h3.334V35h-3.334v-1.667zm5.001 0h13.333V35H20.833v-1.667zm-5.001 5h3.334V40h-3.334v-1.667zm5.001 0h13.333V40H20.833v-1.667zm-5.001-10h3.334V30h-3.334v-1.667zm5.001 0h13.333V30H20.833v-1.667zM10.833 25h22.5v-1.667H12.5v-5h20.833v-1.666h-22.5V25z"/></g><defs><clipPath id="clip0"><path fill="#fff" d="M0 0h50v50H0z"/></clipPath></defs></svg>