<svg width="88" height="88" fill="none" xmlns="http://www.w3.org/2000/svg"><g clip-path="url(#clip0)" fill="#fff"><path d="M71.867 32.267c-8.91 0-16.134-7.223-16.134-16.134C55.733 7.223 62.956 0 71.867 0 80.777 0 88 7.223 88 16.133c-.01 8.906-7.227 16.123-16.133 16.134zm0-29.334c-7.29 0-13.2 5.91-13.2 13.2 0 7.29 5.91 13.2 13.2 13.2 7.29 0 13.2-5.91 13.2-13.2-.008-7.286-5.913-13.192-13.2-13.2z"/><path d="M70.4 24.074l-7.259-7.259 2.074-2.074 5.185 5.185 9.334-9.333 2.074 2.073L70.4 24.075zM73.333 35.2H70.4v41.067H16.94a7.318 7.318 0 0 0-2.251-4.777l-.032-.028a1.354 1.354 0 0 1 0-1.907l3.477-3.477a4.4 4.4 0 0 0 0-6.222l-1.042-1.041a2.933 2.933 0 0 0-3.892-.21V26.4h14.667V11.733h26.4V8.8H25.793L10.267 24.326v27.867L1.289 61.17A4.367 4.367 0 0 0 0 64.281v23.72h2.933V64.28c0-.389.155-.762.43-1.037l6.904-6.903v5.15l-5.188 5.19 2.074 2.074 7.866-7.865 1.038 1.04a1.467 1.467 0 0 1 0 2.073l-3.477 3.477a4.282 4.282 0 0 0 .085 6.138l.042.04a4.372 4.372 0 0 1 .374 5.91l-2.493 3.117 2.291 1.834 2.493-3.12a7.216 7.216 0 0 0 1.182-2.2h4.079c-.078.12-.13.25-.22.361L17.6 83.085V88h2.933v-3.885l2.17-2.715a7.2 7.2 0 0 0 1.203-2.2h49.427v-44zm-58.06-11.733l9.66-9.66v9.66h-9.66z"/><path d="M27.867 58.667h5.866V61.6h-5.866v-2.933zm8.8 0h23.466V61.6H36.667v-2.933zm-8.8 8.8h5.866V70.4h-5.866v-2.933zm8.8 0h23.466V70.4H36.667v-2.933zm-8.8-17.6h5.866V52.8h-5.866v-2.933zm8.8 0h23.466V52.8H36.667v-2.933zM19.067 44h39.6v-2.933H22v-8.8h36.667v-2.934h-39.6V44z"/></g><defs><clipPath id="clip0"><path fill="#fff" d="M0 0h88v88H0z"/></clipPath></defs></svg>