<svg width="92" height="92" fill="none" xmlns="http://www.w3.org/2000/svg"><path d="M9.2 26.067h3.067v3.066H9.2v-3.066zm6.133 0h24.534v3.066H15.333v-3.066zM9.2 32.2h3.067v3.067H9.2V32.2zm6.133 0h24.534v3.067H15.333V32.2zM46 56.733H9.2v-18.4H46v18.4zm-33.733-3.066h30.666V41.4H12.267v12.267zm3.066 6.133H46v3.067H15.333V59.8zm0 6.133H46V69H15.333v-3.067zM9.2 72.067h3.067v3.066H9.2v-3.066zm6.133 0H18.4v3.066h-3.067v-3.066zm6.134 0h3.066v3.066h-3.066v-3.066zm6.133 0h3.067v3.066H27.6v-3.066zm6.133 0H36.8v3.066h-3.067v-3.066zm6.134 0h3.066v3.066h-3.066v-3.066zm6.133 0h3.067v3.066H46v-3.066zm6.133 0H55.2v3.066h-3.067v-3.066z" fill="#fff"/><path d="M81.267 9.2a10.733 10.733 0 0 0-10.61 9.2H0v64.4h81.267c5.925-.007 10.726-4.808 10.733-10.733V19.933C91.993 14.008 87.192 9.207 81.267 9.2zM73.6 19.933a7.667 7.667 0 0 1 15.333 0v44.62a10.72 10.72 0 0 0-15.333 0v-44.62zm7.667 59.8h-78.2V21.467h67.466v50.6H73.6a7.667 7.667 0 1 1 7.667 7.666z" fill="#fff"/><path d="M58.267 72.067h3.066v3.066h-3.066v-3.066zm6.133 0h3.067v3.066H64.4v-3.066zM49.067 69h18.4V38.334h-18.4V69zm3.066-27.6H64.4v24.533H52.133V41.4zm0-9.2H64.4v3.067H52.133V32.2zm0-4.6H64.4v3.066H52.133V27.6z" fill="#fff"/></svg>