<svg width="93" height="93" fill="none" xmlns="http://www.w3.org/2000/svg"><g clip-path="url(#clip0)" fill="#fff"><path d="M10.617 19.541A1.826 1.826 0 0 1 8.94 18.42a1.657 1.657 0 0 1-.103-.34 1.754 1.754 0 0 1 0-.708 1.829 1.829 0 0 1 .495-.93c.084-.083.177-.16.277-.225.098-.068.203-.122.314-.167a1.69 1.69 0 0 1 .34-.104c.234-.047.474-.049.708 0 .116.022.231.058.34.104.11.045.216.1.314.167a1.725 1.725 0 0 1 .501.501 1.795 1.795 0 0 1 .271.654 1.808 1.808 0 0 1 0 .709c-.022.116-.058.23-.104.339a1.734 1.734 0 0 1-.167.314 1.716 1.716 0 0 1-.501.502 1.8 1.8 0 0 1-.654.27 1.749 1.749 0 0 1-.354.036zm47.05 9.795a1.74 1.74 0 0 1-.694-.139 1.794 1.794 0 0 1-.982-.982 1.829 1.829 0 0 1-.14-.695c0-.478.194-.947.532-1.285.084-.084.177-.16.277-.225a1.825 1.825 0 0 1 1.364-.271 1.81 1.81 0 0 1 .928.496 1.831 1.831 0 0 1 .498 1.64 1.85 1.85 0 0 1-.271.652 1.818 1.818 0 0 1-1.512.809z"/><path d="M90.985 11.467h-71.24C17.93 8.206 14.45 5.994 10.46 5.994c-2.834 0-5.59 1.166-7.558 3.198a10.194 10.194 0 0 0-2.899 7.442v59.124a10.91 10.91 0 0 0 0 .61c-.055 2.78 1.006 5.427 2.99 7.456a10.998 10.998 0 0 0 7.818 3.293h80.372A1.816 1.816 0 0 0 93 85.3V13.482a2.017 2.017 0 0 0-2.015-2.015zm-85.472.252a6.83 6.83 0 0 1 4.948-2.092c3.849 0 6.98 3.13 6.98 6.98v51.747a10.579 10.579 0 0 0-5.008-2.44V24.94a1.816 1.816 0 1 0-3.633 0v40.922a10.61 10.61 0 0 0-5.163 2.378V16.549a6.585 6.585 0 0 1 1.876-4.83zm83.854 71.765H10.812a7.343 7.343 0 0 1-5.22-2.2c-1.3-1.33-1.995-3.055-1.955-4.859v-.601a6.589 6.589 0 0 1 1.876-4.369 6.83 6.83 0 0 1 4.948-2.092 6.988 6.988 0 0 1 6.98 6.98 1.816 1.816 0 1 0 3.633 0V16.606c0-.512-.036-1.015-.107-1.507h68.4v68.384z"/><path d="M30.869 52.672h26.798a1.816 1.816 0 0 0 1.798-2.074c.012-.085.019-.17.019-.259V35.33a1.816 1.816 0 1 0-3.633 0v13.71h-7.023v-5.337a1.816 1.816 0 0 0-1.816-1.817c-4.25 0-7.788 3.098-8.476 7.154h-5.85V22.89h12.51v9.078h-7.478a1.817 1.817 0 0 0 0 3.633h9.294a1.816 1.816 0 0 0 1.816-1.817V22.89h20.201a8.623 8.623 0 0 0 6.96 6.66v5.506h-9.482a1.817 1.817 0 0 0 0 3.633h9.483v10.35h-8.575a1.816 1.816 0 1 0 0 3.633h10.391a1.817 1.817 0 0 0 1.817-1.816V21.073a1.816 1.816 0 0 0-1.817-1.816H30.87a1.816 1.816 0 0 0-1.816 1.816v29.782c0 1.004.813 1.817 1.816 1.817zm14.326-6.81v3.177h-2.934a4.991 4.991 0 0 1 2.934-3.177zM75.99 22.89v2.934a4.99 4.99 0 0 1-3.177-2.934h3.177zm1.816 45.846H30.87a1.816 1.816 0 0 1-1.816-1.817v-7.105c0-1.003.813-1.816 1.816-1.816h46.937c1.003 0 1.817.813 1.817 1.816v7.105a1.816 1.816 0 0 1-1.817 1.817zm-45.12-3.633H75.99v-3.472H32.685v3.472zm45.12 12.147a1.807 1.807 0 0 1-1.284-.532 1.83 1.83 0 0 1-.532-1.284 1.825 1.825 0 0 1 1.123-1.677 1.828 1.828 0 0 1 1.977.392c.338.338.533.808.533 1.285 0 .478-.195.947-.533 1.284a1.829 1.829 0 0 1-1.284.532zm-7.81 0H30.869a1.816 1.816 0 1 1 0-3.632h39.127a1.817 1.817 0 0 1 0 3.633z"/></g><defs><clipPath id="clip0"><path fill="#fff" d="M0 0h93v93H0z"/></clipPath></defs></svg>