<svg width="50" height="50" fill="none" xmlns="http://www.w3.org/2000/svg"><g clip-path="url(#clip0)" fill="#00A0E3"><path d="M5.708 10.506a.948.948 0 0 1-.373-.075.962.962 0 0 1-.529-.528.944.944 0 0 1 0-.747.98.98 0 0 1 .211-.317.93.93 0 0 1 .318-.21.94.94 0 0 1 .746 0 .927.927 0 0 1 .438.36.96.96 0 0 1 .165.54.972.972 0 0 1-.165.543.925.925 0 0 1-.27.27.965.965 0 0 1-.35.145.945.945 0 0 1-.191.019zm25.296 5.266a.936.936 0 0 1-.373-.075.967.967 0 0 1-.584-.71.984.984 0 0 1 .415-1.003.946.946 0 0 1 .352-.146.974.974 0 0 1 1.166.957.988.988 0 0 1-.073.374.967.967 0 0 1-.361.439.983.983 0 0 1-.542.164z"/><path d="M48.917 6.165H10.615a5.71 5.71 0 0 0-4.99-2.942A5.686 5.686 0 0 0 1.56 4.942 5.48 5.48 0 0 0 .002 8.943V40.73a5.866 5.866 0 0 0 0 .328 5.543 5.543 0 0 0 1.608 4.009 5.913 5.913 0 0 0 4.203 1.77h43.21c.54 0 .977-.437.977-.977V7.248c0-.597-.486-1.083-1.083-1.083zM2.964 6.3a3.672 3.672 0 0 1 2.66-1.125 3.757 3.757 0 0 1 3.753 3.752V36.75a5.687 5.687 0 0 0-2.692-1.313V13.41a.977.977 0 1 0-1.954 0v22a5.704 5.704 0 0 0-2.775 1.279V8.897a3.54 3.54 0 0 1 1.008-2.596zm45.083 38.583H5.813A3.948 3.948 0 0 1 3.007 43.7a3.602 3.602 0 0 1-1.051-2.612v-.323a3.543 3.543 0 0 1 1.008-2.348 3.672 3.672 0 0 1 2.66-1.125 3.757 3.757 0 0 1 3.753 3.752.977.977 0 1 0 1.953 0V8.928c0-.275-.02-.545-.057-.81h36.774v36.766z"/><path d="M16.596 28.318h14.408a.976.976 0 0 0 .967-1.115.978.978 0 0 0 .01-.139v-8.07a.976.976 0 1 0-1.954 0v7.37h-3.775v-2.869a.977.977 0 0 0-.977-.976 4.63 4.63 0 0 0-4.557 3.846h-3.145V12.306h6.726v4.88h-4.02a.977.977 0 0 0 0 1.954h4.996c.54 0 .977-.438.977-.977v-5.857h10.86a4.636 4.636 0 0 0 3.743 3.58v2.961h-5.099a.977.977 0 0 0 0 1.953h5.099v5.565h-4.61a.977.977 0 1 0 0 1.953h5.586c.54 0 .977-.437.977-.976V11.33a.977.977 0 0 0-.977-.977H16.596a.977.977 0 0 0-.976.977v16.012c0 .539.437.976.976.976zm7.703-3.66v1.707H22.72c.238-.78.824-1.41 1.578-1.708zm16.556-12.352v1.578a2.683 2.683 0 0 1-1.708-1.578h1.708zm.976 24.649H16.596a.977.977 0 0 1-.976-.977v-3.82c0-.54.437-.976.976-.976h25.235c.54 0 .977.437.977.976v3.82c0 .54-.437.977-.977.977zm-24.258-1.953h23.282v-1.867H17.573v1.867zm24.258 6.53a.97.97 0 0 1-.69-.286.983.983 0 0 1-.267-.88.983.983 0 0 1 .584-.711.983.983 0 0 1 1.063.21.983.983 0 0 1 .287.691.982.982 0 0 1-.287.69.983.983 0 0 1-.69.286zm-4.199 0H16.596a.976.976 0 1 1 0-1.953h21.036a.977.977 0 0 1 0 1.953z"/></g><defs><clipPath id="clip0"><path fill="#fff" d="M0 0h50v50H0z"/></clipPath></defs></svg>