<svg width="122" height="122" fill="none" xmlns="http://www.w3.org/2000/svg"><g clip-path="url(#clip0)" fill="#00A0E3"><path d="M111.777 24.454H83.325V14.293c-.007-5.61-4.552-10.156-10.161-10.162H48.775c-5.609.006-10.154 4.552-10.161 10.162v10.16H10.162C4.552 24.46.007 29.007 0 34.616v73.164c.007 5.609 4.552 10.155 10.162 10.161h101.615c5.61-.006 10.155-4.552 10.162-10.161V34.616c-.007-5.61-4.552-10.156-10.162-10.162zM42.678 14.293a6.097 6.097 0 0 1 6.097-6.098h24.388a6.097 6.097 0 0 1 6.097 6.098v10.16h-4.064v-10.16c0-1.123-.91-2.033-2.032-2.033H48.775c-1.122 0-2.032.91-2.032 2.033v10.16h-4.065v-10.16zm8.13 10.16v-8.129H71.13v8.13H50.808zM4.064 34.616a6.097 6.097 0 0 1 6.098-6.096h101.615a6.097 6.097 0 0 1 6.097 6.096v21.03L71.131 76.21v-5.013c0-1.123-.91-2.032-2.032-2.032H52.84c-1.122 0-2.032.91-2.032 2.032v5.013L4.064 55.646v-21.03zm63.002 42.679H54.873V73.23h12.193v4.064zM54.873 81.36h12.193v6.097a6.096 6.096 0 1 1-12.193 0V81.36zm56.904 32.517H10.162a6.097 6.097 0 0 1-6.098-6.097V60.087l46.744 20.566v6.803c0 5.612 4.55 10.162 10.161 10.162 5.613 0 10.162-4.55 10.162-10.162v-6.803l46.743-20.566v47.692a6.096 6.096 0 0 1-6.097 6.097z"/><path d="M58.937 85.423h4.065v4.065h-4.065v-4.065z"/></g><defs><clipPath id="clip0"><path fill="#fff" d="M0 0h122v122H0z"/></clipPath></defs></svg>