<svg width="123" height="127" fill="none" xmlns="http://www.w3.org/2000/svg"><g clip-path="url(#clip0)" fill="#00A0E3"><path d="M41.14 93.538c-.024 0-1.29 0-1.315-.024 2.334-2.605 4.99-6.003 4.99-9.748v-10.99c0-6.474-5.263-11.733-11.743-11.733H17.976a2.489 2.489 0 0 0-2.483 2.48V83.79c0 3.746 2.657 7.169 4.99 9.748-.024 0-1.29 0-1.316.025C8.443 94.531 0 103.56 0 114.523v9.997A2.489 2.489 0 0 0 2.483 127h55.342a2.489 2.489 0 0 0 2.483-2.48v-9.997c0-10.963-8.441-19.992-19.167-20.984zm-10.998-.099c-5.338 0-10.925-4.34-10.925-9.673v-6.921c1.192 1.538 4.146 2.406 5.785 2.406h16.089v4.514c0 5.334-5.586 9.674-10.95 9.674zm5.586 3.721l-5.562 6.796-5.586-6.796h11.148zm-16.51-32.42h13.829c3.749 0 8.02 4.291 8.02 8.012v2.754h-16.09c-2.507 0-5.785-2.034-5.785-4.54.025 0 .025-6.226.025-6.226zM3.723 123.28v-8.756c0-8.16 6.505-16.916 16.462-17.214l8.193 10.666a2.44 2.44 0 0 0 1.763.719c.645 0 1.266-.248 1.762-.719l8.194-10.666c10.453.546 16.461 9.054 16.461 17.214v8.756H3.724zM109.27 96.366c2.508-1.984 4.618-3.597 4.593-8.409v-10.07c0-5.73-2.88-10.79-7.25-13.841.05-.174.05-.348.05-.546v-5.904c5.81-.719 10.304-5.68 10.304-11.682V21.058c0-6.499-5.289-11.782-11.794-11.782H66.59c-6.505 0-11.794 5.283-11.794 11.782v24.854c0 6.5 5.289 11.783 11.794 11.783h28.255l3.376 3.373a21.6 21.6 0 0 0-1.266-.05c-9.31 0-16.883 7.566-16.883 16.868v10.095c0 2.902 2.185 6.251 4.096 8.161-7.225 3.324-13.233 9.897-13.233 18.355v10.022a2.489 2.489 0 0 0 2.483 2.48h47.099a2.489 2.489 0 0 0 2.483-2.48v-10.046c0-8.459-6.505-14.784-13.73-18.108zM96.409 54.694a2.459 2.459 0 0 0-1.763-.719H66.59c-3.75 0-8.07-4.291-8.07-8.062V21.06c0-3.745 2.98-8.037 8.07-8.061h38.608c3.749 0 8.342 3.472 8.069 8.557l-1.241.124H96.285c-1.366 0-2.483.62-2.483 1.985 0 1.364 1.117 1.984 2.483 1.984h16.982v20.265c0 3.746-4.295 8.062-8.069 8.062h-1.018c-1.365 0-1.241 1.116-1.241 2.48v4.788l-6.53-6.549zM83.82 77.887c0-6.573 3.873-13.147 13.159-13.147 8.367 0 13.159 6.574 13.159 13.147v10.095c0 3.026-3.7 6.722-6.729 6.722H90.55c-3.03 0-6.73-3.696-6.73-6.722V77.887zm35.455 44.152v1.24H74.659v-8.805c0-8.856 8.467-16.074 17.33-16.074h9.981c8.864 0 17.331 7.218 17.331 16.074v7.565h-.025zM50.824 0H21.948c-6.505 0-11.793 5.283-11.793 11.782v24.854c0 6.003 4.494 10.964 10.304 11.683v5.904c0 .992.596 1.91 1.539 2.282.298.124.62.198.944.198.645 0 1.29-.248 1.762-.719l7.573-7.565h12.91c1.366 0 2.484-.62 2.484-1.985 0-1.364-1.118-1.736-2.483-1.736H31.259c-.67 0-1.291.273-1.763.72l-5.288 5.779v-5.284c0-1.364.124-1.24-1.242-1.24h-1.018c-3.749 0-8.069-4.291-8.069-8.061v-24.83c0-3.77 4.295-8.061 8.07-8.061h28.875c1.365 0 2.483-.372 2.483-1.737C53.307.62 52.189 0 50.824 0z"/></g><defs><clipPath id="clip0"><path fill="#fff" d="M0 0h123v127H0z"/></clipPath></defs></svg>