<svg width="86" height="86" fill="none" xmlns="http://www.w3.org/2000/svg"><path d="M10.008 10.028v74.496c0 .791.642 1.433 1.433 1.433h54.44c.79 0 1.432-.642 1.432-1.433v-60.17c0-.031-.016-.058-.018-.09a1.353 1.353 0 0 0-.074-.368c-.016-.046-.027-.09-.047-.135a1.42 1.42 0 0 0-.287-.42L52.561 9.016a1.291 1.291 0 0 0-.553-.334 1.42 1.42 0 0 0-.37-.075c-.025.004-.053-.011-.083-.011H11.44c-.791 0-1.433.64-1.433 1.432zm52.414 12.894h-9.435v-9.435l9.435 9.435zM12.874 11.46h37.248v12.894c0 .79.641 1.432 1.432 1.432h12.894v57.305H12.874V11.46z" fill="#fff"/><path d="M70.178 74.496v2.865h4.298c.791 0 1.433-.641 1.433-1.432V1.433C75.909.64 75.267 0 74.476 0h-54.44c-.79 0-1.432.641-1.432 1.433V5.73h2.866V2.865h51.573v71.63h-2.865z" fill="#fff"/><path d="M21.47 28.652h34.382v2.865H21.469v-2.865zm0-8.596h11.46v2.866H21.47v-2.866zm0 17.192h22.922v2.865H21.469v-2.865zm25.786 0h8.596v2.865h-8.596v-2.865zM21.47 45.843h34.382v2.866H21.469v-2.866zm0 17.192h34.382V65.9H21.469v-2.865zm12.893-8.595h21.489v2.864h-21.49V54.44zm-12.893 0h10.028v2.864H21.469V54.44zm0 17.19h5.73v2.866h-5.73V71.63zm8.595 0h25.787v2.866H30.065V71.63z" fill="#fff"/></svg>