<svg width="121" height="142" fill="none" xmlns="http://www.w3.org/2000/svg"><g clip-path="url(#clip0)"><path d="M51.574 63.466c-.763 1.218-1.373 2.588-2.136 3.805l-14.19 26.026a981.193 981.193 0 0 0-9.461 17.503c-3.662 6.696-7.324 13.393-10.986 20.242-.61 1.217-1.526 1.674-2.9 1.674H3.205c-2.594 0-3.814-2.435-2.746-4.718 11.139-22.221 22.43-44.594 33.568-66.967.153-.152.153-.304.306-.609-.61 0-1.068 0-1.526-.152-1.526-.152-2.594-1.37-2.594-2.892V45.05c0-1.826 1.678-2.891 3.052-2.891h18.31c-2.289-2.588-5.34-5.632-5.951-8.98H33.416c-1.983 0-3.204-1.218-3.204-3.196V9.284c0-1.979 1.22-3.196 3.204-3.196h51.421V3.196c0-.913.305-1.674.916-2.283C86.21.304 86.82 0 87.583 0h9.003c1.679 0 2.747.913 3.052 2.283 0 .304.153.609.153.913V35.92c0 1.978-1.221 3.196-3.205 3.196H87.89c-1.984 0-3.204-1.218-3.204-3.197V33.18h-9.46c-.458 3.5-3.51 6.392-5.799 9.132h18.31c1.679 0 2.747.913 3.052 2.435v12.48c0 1.827-1.22 3.044-3.052 3.196h-1.068c.153.305.153.457.305.61 11.14 22.372 22.431 44.745 33.569 67.118.763 1.522.611 3.044-.763 4.109-.61.457-1.373.609-1.983.609h-8.698c-1.373 0-2.288-.609-2.899-1.826-4.882-9.132-9.918-18.264-14.8-27.396L73.09 69.86c-1.069-1.979-2.29-4.11-3.358-6.088 0-.153-.152-.305-.305-.457 0 .457 0 .913-.152 1.37-.153 4.718-.305 9.284-.458 14.002l-.458 11.871c-.153 5.327-.458 10.806-.61 16.133l-.458 11.872c-.153 4.566-.305 8.979-.458 13.545-.152 2.435-.152 4.87-.305 7.306 0 1.522-1.373 2.739-2.899 2.739h-6.256c-1.678 0-2.9-1.37-2.9-3.044l-.457-13.698c-.305-6.848-.458-13.545-.763-20.394-.305-6.849-.458-13.546-.763-20.394-.152-5.936-.457-11.872-.61-17.807 0-.914 0-1.675-.153-2.588 0-.456-.152-.609-.152-.76zm33.11-54.334h-51.42v21.155h51.42V9.132zm3.052 36.223H33.264v12.023h54.472V45.355zM7.934 129.824h1.831c.306 0 1.984-.152 2.29-.456 1.83-3.349 5.035-9.589 6.866-12.785 5.95-10.958 11.901-21.764 17.7-32.722 4.12-7.458 8.086-14.916 12.206-22.373.153-.305.458-.761.61-1.218h-7.781c-.305 0-3.662.152-3.815.457-10.833 21.916-23.803 46.724-34.79 68.641-.152.152 5.036.304 4.883.456zm105.132 0c0-.152 4.425-.304 4.425-.456L88.041 70.62c-1.678-3.197-3.204-6.545-4.882-9.741-.153-.152-.305-.304-.458-.304H71.562c.153.304.153.456.306.608 3.357 6.088 6.56 12.176 9.918 18.264 5.645 10.501 11.444 21.003 17.09 31.505 2.898 5.327 5.797 10.501 8.544 15.828.153.152 1.831 3.349 1.984 3.349.762-.305 3.051-.305 3.662-.305zM54.473 60.422c.915 25.113 1.83 53.269 2.899 78.382h6.256c.915-25.113 1.831-53.27 2.9-78.382H54.472zm17.7-27.243H48.98c.915 4.261 5.035 8.675 10.986 8.98 6.561.456 11.139-4.414 12.207-8.98zM87.736 3.044v33.179h9.156V3.043h-9.156z" fill="#00A0E3"/></g><defs><clipPath id="clip0"><path fill="#fff" d="M0 0h121v142H0z"/></clipPath></defs></svg>