<svg width="121" height="121" fill="none" xmlns="http://www.w3.org/2000/svg"><g clip-path="url(#clip0)" fill="#00A0E3"><path d="M120.798 56.024c.07-.19.11-.387.119-.59a2.02 2.02 0 0 0-.101-.626l-.155-.441a60.39 60.39 0 0 0-21.988-40.655c-.888-.723-1.817-1.377-2.745-2.047-.047-.039-.071-.093-.122-.13-.05-.036-.09-.032-.133-.059A60.686 60.686 0 0 0 60.43.113c-.52 0-1.044 0-1.434.04a59.164 59.164 0 0 0-19.73 3.796A18.15 18.15 0 0 0 9.954 18.285a19.176 19.176 0 0 0 1.585 6.693 60.701 60.701 0 0 0-5.42 8.932c-.031.049-.05.101-.076.151C-8.272 63.66 3.64 99.274 32.88 114.304c29.24 15.031 65.134 3.991 80.872-24.876a59.628 59.628 0 0 0 7.163-25.783c.063-.974.085-1.967.085-2.96 0-1.565-.081-3.116-.202-4.66zm-5.867-10.361c-.256-.228-.493-.491-.761-.701a26.602 26.602 0 0 0-8.816-4.403 18.976 18.976 0 0 0-8.853-.092 17.455 17.455 0 0 1-7.541.037c-4.827-1.054-8.641-1.885-10.664-5.116-2.898-4.644-1.54-11.171 1.518-13.468a4.607 4.607 0 0 1 3.454-.738 12.907 12.907 0 0 0 6.26-1.054 16.225 16.225 0 0 0 5.451-4.151c.382.295.785.56 1.159.864a56.452 56.452 0 0 1 18.793 28.822zM28.124 4.152c7.802.012 14.122 6.333 14.134 14.133 0 6.04-9.071 19.866-14.134 26.875A126.895 126.895 0 0 1 15.67 24.463a16.83 16.83 0 0 1-1.678-6.178c.01-7.802 6.331-14.125 14.133-14.133zM3.896 60.684A57.169 57.169 0 0 1 5.03 49.481c.216 2.807.581 5.304.909 7.47 1.25 8.278 2.433 16.082 8.534 23.219 2.552 3.007 6.824 8.034 13.43 8.777 6.607.743 14.88-3.057 17.269-4.24l.917-.463a8.88 8.88 0 0 1 4.218-1.35 9.959 9.959 0 0 1 6.606 3.373c3.446 3.815 4.32 10.183 1.871 13.629a6.204 6.204 0 0 1-3.101 2.155 9.431 9.431 0 0 0-5.063 4.038 12.468 12.468 0 0 0-.873 10.095c-26.59-5.152-45.809-28.414-45.85-55.5zm56.533 56.533c-1.951 0-3.9-.1-5.841-.3a7.133 7.133 0 0 1-.46-.663 8.592 8.592 0 0 1-.04-8.1 5.574 5.574 0 0 1 3.171-2.385 10.053 10.053 0 0 0 4.815-3.535c3.512-4.938 2.518-13.493-2.16-18.668a13.866 13.866 0 0 0-9.564-4.71h-.09a12.238 12.238 0 0 0-6.014 1.79l-.861.437c-4.412 2.174-10.69 4.325-15.034 3.836-5.014-.561-8.496-4.664-10.806-7.382-5.355-6.259-6.403-13.184-7.614-21.2a58.054 58.054 0 0 1-.153-20.765 56.621 56.621 0 0 1 3.658-6.34c.067.134.141.27.202.404.13.256.262.51.403.767.203.381.405.763.607 1.147a76.976 76.976 0 0 0 1.071 1.928c.146.254.291.51.44.764a222.652 222.652 0 0 0 1.123 1.894c.239.403.48.78.72 1.17.137.22.272.444.403.662.299.48.595.944.892 1.414.079.121.158.248.235.368.37.572.736 1.132 1.096 1.677.137.202.27.404.404.606.222.333.444.666.66.985l.479.7c.173.257.349.513.518.758l.485.696c.15.217.3.429.442.632.143.204.305.435.455.643l.37.52.402.557.33.457.321.442.262.355.247.335.147.203c.18.244.317.427.356.478a2.016 2.016 0 0 0 3.23 0c1.694-2.247 16.56-22.177 16.56-31.51 0-.589-.037-1.174-.093-1.756-.018-.18-.046-.359-.069-.538a14.667 14.667 0 0 0-.201-1.212 18.42 18.42 0 0 0-.45-1.797c-.05-.162-.093-.325-.146-.484a17.98 17.98 0 0 0-.618-1.597c-.044-.1-.097-.202-.144-.293a19.36 19.36 0 0 0-.636-1.242c-.1-.182-.211-.357-.32-.536a22.417 22.417 0 0 0-.606-.94 22.17 22.17 0 0 0-.384-.535c-.069-.09-.127-.184-.202-.27a55.136 55.136 0 0 1 12.975-2.69c-3.148 5.942-4.176 11.438-3 16.354a21.051 21.051 0 0 0 4.846 8.834c1.9 2.352 3.266 4.048 3.18 6.816-.173 5.855-6.785 10.729-9.287 12.57A34.768 34.768 0 0 1 40.3 54.206c-3.668 1.198-6.831 2.231-8.04 5.842a11.51 11.51 0 0 0 4.888 12.449 10.2 10.2 0 0 0 8.045.71 24.834 24.834 0 0 1 8.91-.425c3.837.543 7.144 1.01 8.713 3.206.93 1.312.882 2.669.7 5.157a24.46 24.46 0 0 0 1.048 10.464c.92 2.762 2.311 6.933 5.654 7.414.216.035.436.052.655.052 2.365 0 3.812-2.087 5.334-4.284.673-.971 1.414-2.019 2.303-3.07 4.155 6.713 8.376 12.315 8.572 12.582a2.02 2.02 0 0 0 3.231 0A167.941 167.941 0 0 0 102.264 85.9a26.536 26.536 0 0 1 7.011 3.197 56.44 56.44 0 0 1-48.846 28.12zm37.685-54.943c3 2.675 4.716 6.504 4.715 10.525 0 1.452-.59 4.33-3.39 9.798a150.494 150.494 0 0 1-10.744 17.069c-1.9-2.647-5.168-7.346-8.093-12.284a74.673 74.673 0 0 1-4.362-8.405 16.83 16.83 0 0 1-1.678-6.178c.009-7.803 6.331-14.125 14.133-14.134.437 0 .87.02 1.3.06a14.008 14.008 0 0 1 8.12 3.549zm18.777 1.163a55.61 55.61 0 0 1-5.686 22.098 30.707 30.707 0 0 0-7.09-3.304 23.925 23.925 0 0 0 2.752-9.432 18.249 18.249 0 0 0-10.17-16.318l-.128-.056a19.68 19.68 0 0 0-1.378-.606c-.321-.125-.654-.223-.984-.327-.202-.061-.383-.137-.58-.202a17.71 17.71 0 0 0-1.582-.368h-.026c-.323-.06-.65-.093-.977-.135a18.044 18.044 0 0 0-20.518 18.012 20.786 20.786 0 0 0 2 7.76 74.473 74.473 0 0 0 3.823 7.52 37.22 37.22 0 0 0-3.457 4.409 10.507 10.507 0 0 1-2.077 2.543c-.404-.062-1.153-.923-2.423-4.701a20.714 20.714 0 0 1-.85-8.895 10.8 10.8 0 0 0-1.441-7.793c-2.579-3.605-7.079-4.24-11.458-4.86a28.448 28.448 0 0 0-10.212.458c-2.583.494-3.782.678-5.154-.177a7.652 7.652 0 0 1-3.19-7.739c.54-1.615 2.155-2.198 5.452-3.28a38.76 38.76 0 0 0 11.995-5.83c2.942-2.157 10.701-7.884 10.935-15.697.13-4.275-2.01-6.912-4.076-9.461a17.462 17.462 0 0 1-4.054-7.219c-1.073-4.498.256-9.773 3.86-15.685h.232a56.668 56.668 0 0 1 31.245 9.445 12.13 12.13 0 0 1-3.81 2.85 9.04 9.04 0 0 1-4.475.7 8.468 8.468 0 0 0-6 1.542c-4.579 3.447-6.63 12.235-2.515 18.836 2.929 4.678 7.932 5.768 13.395 6.959 2.941.62 5.98.608 8.916-.039a15.23 15.23 0 0 1 7.166.023 22.502 22.502 0 0 1 7.33 3.668 16.538 16.538 0 0 1 5.013 7.16 58.32 58.32 0 0 1 .268 5.388c0 .903-.018 1.817-.079 2.753h.008z"/><path d="M28.125 24.342a8.076 8.076 0 1 0 0-16.152 8.077 8.077 0 0 0 0 16.152zm0-12.114a4.038 4.038 0 1 1-.001 8.076 4.038 4.038 0 0 1 0-8.076zM80.62 70.78a8.076 8.076 0 0 0 8.075 8.076 8.076 8.076 0 1 0 0-16.153 8.076 8.076 0 0 0-8.076 8.076zm12.113 0a4.038 4.038 0 1 1-8.076 0 4.038 4.038 0 0 1 8.076 0z"/></g><defs><clipPath id="clip0"><path fill="#fff" d="M0 0h121v121H0z"/></clipPath></defs></svg>