<svg width="89" height="89" fill="none" xmlns="http://www.w3.org/2000/svg"><g clip-path="url(#clip0)" fill="#fff"><path d="M10.16 18.7c-.113 0-.227-.01-.339-.034a1.739 1.739 0 0 1-.89-.475 1.7 1.7 0 0 1-.376-.565 1.73 1.73 0 0 1-.1-1.003 1.69 1.69 0 0 1 .26-.625 1.764 1.764 0 0 1 .78-.642 1.75 1.75 0 0 1 1.004-.098 1.752 1.752 0 0 1 .89.476c.08.08.153.169.215.264a1.706 1.706 0 0 1 .26.626 1.728 1.728 0 0 1-1.365 2.042 1.68 1.68 0 0 1-.339.035z"/><path d="M87.072 10.974H18.895c-1.735-3.121-5.067-5.238-8.884-5.238a10.122 10.122 0 0 0-7.232 3.06 9.755 9.755 0 0 0-2.775 7.122V72.5a11.37 11.37 0 0 0 0 .584c-.053 2.66.963 5.194 2.862 7.136a10.526 10.526 0 0 0 7.48 3.15h76.916c.96 0 1.738-.778 1.738-1.738v-68.73a1.93 1.93 0 0 0-1.928-1.928zm-81.796.241a6.536 6.536 0 0 1 4.735-2.002 6.687 6.687 0 0 1 6.68 6.68v49.521a10.133 10.133 0 0 0-4.793-2.335v-39.21a1.738 1.738 0 1 0-3.476 0V63.03a10.153 10.153 0 0 0-4.941 2.276V15.892l-.001-.055a6.304 6.304 0 0 1 1.796-4.622zm80.248 68.678H10.346a7.027 7.027 0 0 1-4.995-2.105c-1.245-1.273-1.91-2.924-1.871-4.65v-.576a6.305 6.305 0 0 1 1.795-4.18 6.536 6.536 0 0 1 4.735-2.003 6.687 6.687 0 0 1 6.68 6.68 1.738 1.738 0 1 0 3.477 0V15.892c0-.49-.035-.97-.102-1.442h65.457v65.443z"/><path d="M25.727 74.797h51.974a1.738 1.738 0 0 0 2.616 2.277l2.786-2.786a1.738 1.738 0 0 0 0-2.458l-2.786-2.786A1.738 1.738 0 0 0 77.7 71.32H25.727a1.739 1.739 0 0 0 0 3.477zm3.805-30.678h2.793v22.326c0 .96.778 1.738 1.738 1.738h35.83c.96 0 1.738-.778 1.738-1.738V44.12h2.793a1.737 1.737 0 0 0 1.227-2.97L53.206 18.786a1.739 1.739 0 0 0-2.454 0l-6.988 6.962v-1.88c0-.96-.778-1.739-1.738-1.739h-6.78c-.96 0-1.738.778-1.738 1.738v12.098l-5.203 5.184a1.738 1.738 0 0 0 1.227 2.97zM49.01 64.707v-9.202h5.94v9.202h-5.94zm19.146 0h-9.73v-10.94c0-.96-.779-1.738-1.739-1.738H47.27c-.96 0-1.738.778-1.738 1.738v10.94h-9.73V44.119h32.353v20.588zM51.979 22.472l18.238 18.17H33.74l18.239-18.17zm-14.994 3.134h3.302v3.606l-3.302 3.29v-6.896z"/></g><defs><clipPath id="clip0"><path fill="#fff" d="M0 0h89v89H0z"/></clipPath></defs></svg>