<svg width="30" height="30" fill="none" xmlns="http://www.w3.org/2000/svg"><path d="M21.21 0H8.79C3.942 0 0 3.943 0 8.79v12.42C0 26.058 3.943 30 8.79 30h12.42c4.847 0 8.79-3.943 8.79-8.79V8.79C30 3.942 26.057 0 21.21 0zm7.618 21.21c0 4.201-3.417 7.618-7.617 7.618H8.789c-4.2 0-7.617-3.417-7.617-7.617V8.789c0-4.2 3.417-7.617 7.617-7.617h12.422c4.2 0 7.617 3.417 7.617 7.617v12.422z" fill="#fff"/><g clip-path="url(#clip0)"><path d="M4 9.867c1.467 3.666 2.52 5.969 5.307 8.87C11.863 21.398 13.57 21.54 15 21.6M4 9.867l.464-.186a.06.06 0 0 1 .005.018v.004a.028.028 0 0 1-.006.014M4 9.867l.464-.186.011.028M4 9.867c-.094-.236 0-.703.733-.703.361 0 .709-.007 1.062-.015.366-.008.738-.016 1.138-.016.092 0 .175-.002.251-.004.529-.013.712-.017 1.216.738.438.656.875 1.378 1.294 2.068.983 1.621 1.858 3.065 2.373 3.065l-4.083-4.856c-.288-.431-.394-.485-.432-.499a.5.5 0 0 0-.166-.018c-.053-.001-.113 0-.19.002h-.001a9.694 9.694 0 0 1-.262.004c-.387 0-.748.008-1.109.016h-.02c-.352.008-.705.015-1.07.015a.621.621 0 0 0-.259.045m-.012.008v.001s0 0 0 0zm0 0a.068.068 0 0 1 .012-.008m0 0c1.453 3.63 2.48 5.858 5.193 8.682h0c1.242 1.294 2.251 1.947 3.096 2.29.841.341 1.554.39 2.257.42m0 0s0 0 0 0L15 21.6m.02-.5c.168.008.17.007.182.007h.006c.056-.003.155-.007.525-.007.046 0 .056-.01.066-.02v-.001a.488.488 0 0 0 .096-.198c.069-.237.072-.533.072-.748 0-.529.26-1.016.604-1.361.345-.346.833-.605 1.362-.605.312 0 .62.128.88.275.273.153.554.36.827.586.542.447 1.106 1.01 1.571 1.476l.01.01c.186.186.313.313.416.405a.915.915 0 0 0 .186.142c.056.028.106.039.51.039h2.185a1.415 1.415 0 0 0 .518-.148.848.848 0 0 0 .32-.274c.078-.115.144-.284.144-.545 0-.06-.04-.258-.368-.707-.314-.432-.842-1.03-1.686-1.872a6.622 6.622 0 0 0-.792-.666l-.085-.064c-.12-.09-.25-.19-.358-.301a1.057 1.057 0 0 1-.277-.472c-.104-.399.075-.79.294-1.159.235-.395.621-.925 1.172-1.659h0c.67-.892 1.24-1.731 1.619-2.398.19-.334.324-.61.4-.82.02-.058.035-.106.046-.146a3.085 3.085 0 0 0-.336-.123 9.099 9.099 0 0 0-1.313-.29 7.3 7.3 0 0 0-1.345-.091 1.82 1.82 0 0 0-.419.058.465.465 0 0 0-.059.021c-1.427 2.143-1.691 2.67-2.137 3.561l-.009.019s0 0 0 0a20.59 20.59 0 0 0-.435.939c-.01.026-.022.051-.033.076-.104.238-.2.46-.297.643-.106.202-.237.41-.426.566a1.102 1.102 0 0 1-.723.252c-.379 0-.645-.215-.808-.451-.153-.223-.241-.498-.297-.75-.112-.51-.128-1.106-.128-1.499 0-.524.016-1.016.03-1.46l.008-.23c.016-.508.025-.935.003-1.29-.023-.362-.075-.594-.148-.737a.329.329 0 0 0-.196-.183m-1.376 12.2l-.021.5m0 0c.146.006.176.007.205.007.044-.001.088-.007.528-.007.734 0 .734-1.057.734-1.467 0-.733.733-1.466 1.466-1.466.734 0 1.991 1.257 2.934 2.2.421.421.6.6.816.677.16.056.339.056.65.056h2.2L16.397 8.9m0 0h0-2.131c-.493 0-.969.155-1.336.322a4.264 4.264 0 0 0-.408.213c.145.051.294.131.424.256.238.227.353.542.353.909v1.465h0v.038a16.577 16.577 0 0 1-.011.442 12.95 12.95 0 0 1-.082 1.05c-.047.378-.121.791-.246 1.123a1.573 1.573 0 0 1-.275.486.821.821 0 0 1-.62.296c-.25 0-.46-.12-.607-.23a2.877 2.877 0 0 1-.45-.438c-.287-.338-.6-.798-.923-1.305-.272-.428-.55-.886-.833-1.353a56.19 56.19 0 0 0-1.27-2.03L16.398 8.9z" stroke="#fff"/></g><defs><clipPath id="clip0"><path fill="#fff" transform="translate(4 4)" d="M0 0h22v22H0z"/></clipPath></defs></svg>