<svg width="30" height="30" fill="none" xmlns="http://www.w3.org/2000/svg"><path d="M21.21 0H8.79C3.942 0 0 3.943 0 8.79v12.42C0 26.058 3.943 30 8.79 30h12.42c4.847 0 8.79-3.943 8.79-8.79V8.79C30 3.942 26.057 0 21.21 0zm7.618 21.21c0 4.201-3.417 7.618-7.617 7.618H8.789c-4.2 0-7.617-3.417-7.617-7.617V8.789c0-4.2 3.417-7.617 7.617-7.617h12.422c4.2 0 7.617 3.417 7.617 7.617v12.422z" fill="#fff"/><path d="M21.21 2.578H8.79A6.218 6.218 0 0 0 2.577 8.79v12.422a6.218 6.218 0 0 0 6.211 6.21h3.574a.586.586 0 0 0 0-1.171H8.79a5.045 5.045 0 0 1-5.039-5.04V8.79c0-2.78 2.26-5.04 5.04-5.04h12.42c2.78 0 5.04 2.26 5.04 5.04v12.42c0 2.78-2.26 5.04-5.04 5.04h-3.534a.586.586 0 1 0 0 1.172h3.535a6.218 6.218 0 0 0 6.21-6.211V8.789a6.218 6.218 0 0 0-6.21-6.21z" fill="#fff"/><path d="M15.414 26.422A.59.59 0 0 0 15 26.25a.59.59 0 0 0-.414.172.59.59 0 0 0-.172.414.59.59 0 0 0 .172.414.59.59 0 0 0 .414.172.59.59 0 0 0 .414-.172.59.59 0 0 0 .172-.414.59.59 0 0 0-.172-.414zM10.303 9.124a.586.586 0 0 0-.829-.027l-.026.024a.586.586 0 1 0 .805.852l.023-.021a.586.586 0 0 0 .027-.828z" fill="#fff"/><path d="M15 6.914c-1.287 0-2.568.31-3.704.897a.586.586 0 0 0 .537 1.04A6.837 6.837 0 0 1 15 8.087 6.922 6.922 0 0 1 21.914 15 6.922 6.922 0 0 1 15 21.914a6.915 6.915 0 0 1-6.017-10.323.586.586 0 1 0-1.019-.579A8.088 8.088 0 0 0 6.914 15c0 4.459 3.627 8.086 8.086 8.086 4.459 0 8.086-3.627 8.086-8.086 0-4.459-3.627-8.086-8.086-8.086z" fill="#fff"/><path d="M15 9.727A5.28 5.28 0 0 0 9.727 15 5.28 5.28 0 0 0 15 20.273 5.28 5.28 0 0 0 20.273 15 5.28 5.28 0 0 0 15 9.727zm0 9.375A4.106 4.106 0 0 1 10.898 15 4.106 4.106 0 0 1 15 10.898 4.106 4.106 0 0 1 19.102 15 4.106 4.106 0 0 1 15 19.102zm7.69-14.019a2.23 2.23 0 0 0-2.226 2.227 2.23 2.23 0 0 0 2.226 2.226 2.23 2.23 0 0 0 2.227-2.226 2.23 2.23 0 0 0-2.227-2.227zm0 3.281a1.056 1.056 0 0 1-1.054-1.054 1.056 1.056 0 0 1 2.11 0c0 .581-.474 1.054-1.056 1.054z" fill="#fff"/></svg>