<svg width="150" height="45" fill="none" xmlns="http://www.w3.org/2000/svg"><path d="M.92 44.794c-.508 0-.92-.47-.92-1.05 0-.58.412-1.05.92-1.05v2.1zm109.952 0H.919v-2.1h109.953l.783 1.6-.783.5zm0-2.1c.508 0 .919.47.919 1.05 0 .58-.411 1.05-.919 1.05v-2.1zm7.483-10.82l-6.7 12.42-1.566-1.101 6.701-12.421 1.702.55-.137.551zm-1.565-1.102c.266-.494.832-.648 1.264-.344.433.305.567.951.301 1.445l-1.565-1.101zm1.705-19.05l-.003 19.6h-1.839l.003-19.6.918-1.05.921 1.05zm-1.839 0c0-.58.412-1.05.92-1.05s.919.47.919 1.05h-1.839zm7.76 1.035l-6.838.015-.004-2.1 6.839-.014.921 1.05-.918 1.05zm-.003-2.1c.507 0 .92.469.921 1.048.001.58-.41 1.051-.918 1.052l-.003-2.1zm-.919 7.984l.001-6.934h1.839l-.002 6.934-.136.55-1.702-.55zm1.838 0c0 .58-.412 1.05-.919 1.05-.508 0-.919-.47-.919-1.05h1.838zm9-16.387l-9.136 16.938-1.566-1.102 9.137-16.938 1.502-.102.063 1.204zm-1.565-1.102c.266-.493.833-.647 1.265-.343.432.304.566.951.3 1.445l-1.565-1.102zm15.594 23.527L132.83 2.356l1.439-1.306L149.8 23.372l-1.439 1.307zm1.439-1.307c.316.454.25 1.115-.147 1.476-.398.36-.976.285-1.292-.17l1.439-1.306z" fill="#fff"/><path d="M2.63 12.925v26.908H.385V10.571h10.297v2.354H2.63zm10.775 26.908V10.571h10.701v2.354h-8.458v10.806h7.392v2.354h-7.392v11.394h8.458v2.354H13.405zm24.64-7.231c0 2.467-.485 4.337-1.447 5.613-.969 1.275-2.428 1.913-4.383 1.913s-3.402-.603-4.345-1.808c-.938-1.206-1.41-2.887-1.41-5.045V17.887c0-1.038.098-2.019.294-2.944.196-.925.521-1.73.968-2.417a4.811 4.811 0 0 1 1.796-1.619c.748-.392 1.661-.588 2.734-.588 1.097 0 2.023.175 2.77.525a4.31 4.31 0 0 1 1.778 1.514c.435.658.754 1.443.95 2.354.196.911.294 1.927.294 3.048v14.842zM35.8 17.382c0-.617-.062-1.205-.184-1.766a4.849 4.849 0 0 0-.582-1.492 3.14 3.14 0 0 0-1.08-1.052c-.453-.266-1.01-.399-1.666-.399-.705 0-1.294.175-1.76.525-.46.351-.827.792-1.096 1.325a6.391 6.391 0 0 0-.564 1.745c-.11.63-.166 1.226-.166 1.787v15.262c0 .56.068 1.107.203 1.64a4.68 4.68 0 0 0 .619 1.429 3.2 3.2 0 0 0 1.097 1.009c.453.252.999.378 1.63.378 1.293 0 2.206-.476 2.746-1.43.533-.952.803-2.101.803-3.447V17.382zm14.894 22.451V13.01h-6.73v26.824h-2.243V10.571h11.216v29.262h-2.243zM68.2 32.602c0 2.467-.484 4.337-1.447 5.613-.968 1.275-2.427 1.913-4.382 1.913-1.955 0-3.402-.603-4.346-1.808-.937-1.206-1.41-2.887-1.41-5.045V17.887c0-1.038.099-2.019.295-2.944.196-.925.52-1.73.968-2.417a4.81 4.81 0 0 1 1.796-1.619c.748-.392 1.661-.588 2.734-.588 1.097 0 2.022.175 2.77.525a4.31 4.31 0 0 1 1.778 1.514c.435.658.754 1.443.95 2.354.196.911.294 1.927.294 3.048v14.842zm-2.243-15.22c0-.617-.062-1.205-.184-1.766a4.854 4.854 0 0 0-.583-1.492 3.14 3.14 0 0 0-1.078-1.052c-.454-.266-1.012-.399-1.667-.399-.705 0-1.294.175-1.76.525-.46.351-.827.792-1.097 1.325a6.398 6.398 0 0 0-.564 1.745c-.11.63-.165 1.226-.165 1.787v15.262c0 .56.067 1.107.202 1.64.135.532.343 1.008.62 1.429.281.42.649.756 1.096 1.009.454.252 1 .378 1.63.378 1.294 0 2.207-.476 2.746-1.43.534-.952.803-2.101.803-3.447V17.382zm15.482-.547L73.9 39.833h-2.096V10.571h2.243v23.04l.147.042 7.429-23.082h2.17v29.262h-2.244V16.835h-.11zm15.409 22.998V26.001h-7.024v13.832H87.58V10.571h2.243v13.16h7.024V10.57h2.243v29.262h-2.243zM108.1 12.925v26.908h-2.317V12.925h-4.597v-2.354h11.511v2.354H108.1z" fill="#FEFEFE" stroke="#fff" stroke-width=".08" stroke-miterlimit="22.926"/></svg>