<svg width="50" height="50" fill="none" xmlns="http://www.w3.org/2000/svg"><g clip-path="url(#clip0)" fill="#00A0E3"><path d="M48.477 22.418a.949.949 0 0 1-.373-.075.964.964 0 0 1-.584-.711.987.987 0 0 1 0-.382.95.95 0 0 1 .145-.35.974.974 0 0 1 .27-.27.966.966 0 0 1 .351-.147.97.97 0 0 1 .881.267.982.982 0 0 1 .212 1.064 1.036 1.036 0 0 1-.09.17.93.93 0 0 1-.439.36 1.008 1.008 0 0 1-.373.074zm-14.232 1.474h-7.633a.977.977 0 0 1-.977-.977V17.96a4.688 4.688 0 0 1 4.682-4.682h.223c2.582 0 4.682 2.1 4.682 4.682v4.955c0 .54-.437.977-.977.977zm-6.657-1.954h5.68V17.96a2.732 2.732 0 0 0-2.728-2.729h-.223a2.732 2.732 0 0 0-2.728 2.729v3.978z"/><path d="M48.477 24.785a.976.976 0 0 0-.977.977v14.69H10.143V1.161a.977.977 0 0 0-.977-.977H1.66a.976.976 0 0 0-.976.977v47.765c0 .54.437.976.976.976h46.817a.976.976 0 0 0 .976-.976V25.76a.977.977 0 0 0-.976-.976zM2.637 2.137H8.19V8.52H6.928a.976.976 0 1 0 0 1.953H8.19v6.574H6.928a.977.977 0 0 0 0 1.954H8.19v6.574H6.928a.977.977 0 1 0 0 1.953H8.19V34.1H6.928a.977.977 0 1 0 0 1.953H8.19v6.575H6.928a.977.977 0 0 0 0 1.953H8.19v3.367H2.637V2.137zM47.5 47.95H10.143v-5.544h4.405v1.26a.977.977 0 0 0 1.953 0v-1.26h6.585v1.26a.977.977 0 0 0 1.953 0v-1.26h6.584v1.26a.977.977 0 0 0 1.954 0v-1.26h6.584v1.26a.977.977 0 0 0 1.953 0v-1.26H47.5v5.544z"/><path d="M15.427 20.076a.977.977 0 0 0 1.332.06l.704-.6v17.495c0 .54.438.977.976.977h23.979a.977.977 0 0 0 .977-.977V19.536l.704.6a.972.972 0 0 0 1.331-.06l3.106-3.176a.977.977 0 0 0-.052-1.415L31.074.146a.976.976 0 0 0-1.29 0l-17.41 15.339a.977.977 0 0 0-.053 1.415l3.106 3.176zm12.161 15.979v-6.708h5.68v6.708h-5.68zm13.853 0h-6.22V28.37a.977.977 0 0 0-.976-.977h-7.633a.977.977 0 0 0-.977.977v7.684h-6.219V17.872L30.43 8.487l11.012 9.385v18.183zM30.43 2.18l15.99 14.09-1.75 1.788L31.063 6.46a.976.976 0 0 0-1.267 0l-13.61 11.598-1.748-1.788L30.429 2.18z"/></g><defs><clipPath id="clip0"><path fill="#fff" d="M0 0h50v50H0z"/></clipPath></defs></svg>