<svg width="87" height="87" fill="none" xmlns="http://www.w3.org/2000/svg"><g clip-path="url(#clip0)" fill="#fff"><path d="M84.35 39.007a1.646 1.646 0 0 1-.65-.13 1.689 1.689 0 0 1-1.016-1.902 1.642 1.642 0 0 1 .253-.61 1.68 1.68 0 0 1 .47-.47 1.685 1.685 0 0 1 .61-.254 1.69 1.69 0 0 1 1.275.254 1.616 1.616 0 0 1 .471.47 1.71 1.71 0 0 1 .253 1.275 1.687 1.687 0 0 1-.253.61 1.626 1.626 0 0 1-.471.47 1.715 1.715 0 0 1-.942.287zm-24.763 2.564H46.304a1.7 1.7 0 0 1-1.699-1.699V31.25c0-4.492 3.656-8.146 8.147-8.146h.387c4.492 0 8.147 3.654 8.147 8.146v8.622a1.7 1.7 0 0 1-1.7 1.7zm-11.583-3.398h9.884V31.25a4.754 4.754 0 0 0-4.748-4.748h-.388a4.754 4.754 0 0 0-4.748 4.748v6.923z"/><path d="M84.35 43.126a1.7 1.7 0 0 0-1.7 1.699v25.562h-65V2.02a1.7 1.7 0 0 0-1.7-1.7H2.89a1.7 1.7 0 0 0-1.7 1.7v83.11c0 .94.761 1.7 1.7 1.7h81.46a1.7 1.7 0 0 0 1.7-1.7V44.826a1.7 1.7 0 0 0-1.7-1.7zM4.588 3.719h9.662v11.104h-2.195a1.7 1.7 0 1 0 0 3.398h2.195v11.44h-2.195a1.7 1.7 0 0 0 0 3.398h2.195V44.5h-2.195a1.7 1.7 0 1 0 0 3.398h2.195v11.439h-2.195a1.7 1.7 0 1 0 0 3.398h2.195v11.44h-2.195a1.7 1.7 0 0 0 0 3.398h2.195v5.86H4.588V3.719zM82.65 83.432h-65v-9.647h7.665v2.19a1.7 1.7 0 0 0 3.398 0v-2.19H40.17v2.19a1.7 1.7 0 0 0 3.399 0v-2.19h11.457v2.19a1.7 1.7 0 0 0 3.398 0v-2.19H69.88v2.19a1.7 1.7 0 0 0 3.399 0v-2.19h9.371v9.647z"/><path d="M26.843 34.932a1.7 1.7 0 0 0 2.317.105l1.226-1.044v30.441a1.7 1.7 0 0 0 1.699 1.7h41.722a1.7 1.7 0 0 0 1.7-1.7V33.993l1.225 1.044a1.697 1.697 0 0 0 2.316-.105l5.405-5.525a1.7 1.7 0 0 0-.091-2.464L54.069.254a1.699 1.699 0 0 0-2.246 0L21.53 26.944a1.699 1.699 0 0 0-.091 2.463l5.404 5.525zm21.16 27.803v-11.67h9.885v11.67h-9.884zm24.105 0H61.286v-13.37a1.7 1.7 0 0 0-1.7-1.7H46.305a1.7 1.7 0 0 0-1.699 1.7v13.37H33.784V31.096l19.162-16.33 19.162 16.33v31.64zM52.946 3.794L80.772 28.31l-3.043 3.112L54.048 11.24a1.698 1.698 0 0 0-2.205 0l-23.68 20.18-3.043-3.111L52.946 3.794z"/></g><defs><clipPath id="clip0"><path fill="#fff" d="M0 0h87v87H0z"/></clipPath></defs></svg>