<svg xmlns="http://www.w3.org/2000/svg" xmlns:xlink="http://www.w3.org/1999/xlink" xmlns:fi="http://pattern.flaticon.com/" width="700" height="350"><defs><g id="a" fill="#e3f6ff"><path d="M205.645 179.137a384.755 384.755 0 0 0-.845 25.668c0 42.743 12.757 68.267 34.133 68.267 26.94 0 34.133-32.188 34.133-51.2a8.525 8.525 0 0 0-8.533-8.533 8.53 8.53 0 0 0-8.533 8.533c0 .341-.734 34.133-17.067 34.133-9.89 0-17.067-21.538-17.067-51.2 0-99.49 34.918-110.822 36.011-111.147a8.53 8.53 0 0 0 6.485-10.001 8.516 8.516 0 0 0-10.044-6.69c-1.707.341-7.885 1.971-15.326 8.337.008-1.459.128-2.927.521-4.386 1.178-4.403 4.002-8.081 7.953-10.368 3.951-2.27 8.542-2.884 12.945-1.698 4.403 1.178 8.09 4.002 10.359 7.953 4.71 8.141 1.903 18.603-6.246 23.313-4.079 2.355-5.47 7.578-3.115 11.657a8.52 8.52 0 0 0 7.398 4.267 8.469 8.469 0 0 0 4.258-1.143c16.29-9.421 21.888-30.336 12.493-46.626-4.565-7.902-11.921-13.542-20.727-15.906-8.832-2.364-18.014-1.143-25.899 3.405-7.902 4.565-13.551 11.921-15.906 20.736-2.21 8.243-1.169 16.794 2.85 24.593-7.322 11.913-14.165 29.653-17.971 56.03-12.783-15.3-20.173-34.782-20.173-54.724 0-47.053 38.281-85.333 85.333-85.333 47.044 0 85.333 38.281 85.333 85.333s-38.289 85.333-85.333 85.333a85.436 85.436 0 0 1-27.085-4.378 8.54 8.54 0 0 0-10.795 5.385c-1.493 4.471.922 9.301 5.393 10.795a102.32 102.32 0 0 0 32.486 5.265c56.465 0 102.4-45.943 102.4-102.4 0-56.465-45.935-102.4-102.4-102.4s-102.4 45.935-102.4 102.4c.003 29.097 13.067 57.368 34.981 76.73zm-94.712 145.135H179.2c9.95 0 26.88 12.698 41.813 23.893 18.722 14.046 36.403 27.307 52.053 27.307h51.2c12.954 0 19.396 5.879 19.567 6.033a8.51 8.51 0 0 0 6.033 2.5 8.522 8.522 0 0 0 6.033-2.5c3.328-3.337 3.328-8.738 0-12.066-1.126-1.135-11.614-11.034-31.633-11.034h-51.2c-9.958 0-26.88-12.698-41.813-23.893-18.722-14.046-36.412-27.307-52.053-27.307h-68.267a8.53 8.53 0 0 0-8.533 8.533c0 4.711 3.823 8.534 8.533 8.534zm263.74-150.86l86.127 86.127v30.601h-30.601l-3.533-3.533V264.54a8.525 8.525 0 0 0-8.533-8.533H409.6v-8.533a8.525 8.525 0 0 0-8.533-8.533h-22.059l-3.541-3.541v-22.059a8.525 8.525 0 0 0-8.533-8.533h-22.067l-.828-.828c-3.328-3.337-8.73-3.337-12.066 0s-3.337 8.73 0 12.066l3.328 3.328a8.53 8.53 0 0 0 6.033 2.5H358.4v17.05c0 2.261.896 4.429 2.492 6.033l8.533 8.542a8.526 8.526 0 0 0 6.042 2.509h17.067v8.533a8.53 8.53 0 0 0 8.533 8.533h8.533v17.067c0 2.261.896 4.429 2.5 6.033l8.533 8.533a8.53 8.53 0 0 0 6.033 2.5h42.667a8.53 8.53 0 0 0 8.533-8.533v-42.667a8.55 8.55 0 0 0-2.5-6.033l-88.627-88.627a8.525 8.525 0 0 0-12.066 0 8.523 8.523 0 0 0 0 12.065zM42.667 456.539c0-7.057-5.743-12.8-12.8-12.8s-12.8 5.743-12.8 12.8 5.743 12.8 12.8 12.8 12.8-5.743 12.8-12.8z" transform="rotate(25.407 -399.158 868.812) scale(.12232)"/><path d="M59.733 273.072h-51.2A8.53 8.53 0 0 0 0 281.605a8.536 8.536 0 0 0 8.533 8.533h51.2c4.702 0 8.533 3.823 8.533 8.533v187.733c0 4.702-3.831 8.533-8.533 8.533h-51.2A8.53 8.53 0 0 0 0 503.47a8.536 8.536 0 0 0 8.533 8.533h51.2c14.114 0 25.6-11.486 25.6-25.6V298.672c0-14.122-11.486-25.6-25.6-25.6zm447.693 85.334c-9.412-16.307-30.362-21.888-46.097-12.774l-98.21 47.804c-15.275 7.637-30.677 7.637-64.452 7.637-33.015 0-83.43-8.337-83.934-8.422a8.52 8.52 0 0 0-9.822 7.014c-.768 4.651 2.372 9.045 7.014 9.822 2.125.358 52.301 8.653 86.741 8.653 35.43 0 53.214 0 71.996-9.395l98.671-48.051c3.942-2.278 8.542-2.884 12.945-1.707s8.09 4.002 10.359 7.953a16.905 16.905 0 0 1 1.707 12.954c-1.169 4.395-3.994 8.081-8.192 10.505l-115.371 71.808c-.239.154-24.858 15.667-80.648 15.667-48.375 0-123.11-41.182-124.186-41.771-.768-.384-19.277-9.429-55.014-9.429a8.53 8.53 0 0 0-8.533 8.533 8.536 8.536 0 0 0 8.533 8.533c31.036 0 47.027 7.458 47.053 7.458 3.226 1.792 79.343 43.742 132.147 43.742 61.602 0 88.934-17.749 89.839-18.355l114.961-71.552c7.893-4.557 13.542-11.921 15.898-20.727 2.364-8.808 1.152-18.007-3.405-25.9z" transform="rotate(25.407 -399.158 868.812) scale(.12232)"/></g><g id="c" fill="#e3f6ff"><path d="M435.2 392.533c-23.526 0-42.667 19.14-42.667 42.667s19.14 42.667 42.667 42.667c23.526 0 42.667-19.14 42.667-42.667s-19.141-42.667-42.667-42.667zm0 68.267c-14.114 0-25.6-11.486-25.6-25.6s11.486-25.6 25.6-25.6 25.6 11.486 25.6 25.6-11.486 25.6-25.6 25.6z" transform="rotate(-25.677 152.76 -410.688) scale(.11991)"/><path d="M494.933 387.029V102.4c0-9.412-7.654-17.067-17.067-17.067h-85.333c-9.412 0-17.067 7.654-17.067 17.067v230.4a8.53 8.53 0 0 0 8.533 8.533h17.067a8.53 8.53 0 0 0 8.533-8.533 8.53 8.53 0 0 0-8.533-8.533h-8.533V307.2h8.533c4.719 0 8.533-3.823 8.533-8.533s-3.814-8.533-8.533-8.533h-8.533v-17.067h25.6c4.719 0 8.533-3.823 8.533-8.533S422.852 256 418.133 256h-25.6v-17.067h8.533a8.53 8.53 0 0 0 8.533-8.533 8.53 8.53 0 0 0-8.533-8.533h-8.533V204.8h8.533c4.719 0 8.533-3.823 8.533-8.533s-3.814-8.533-8.533-8.533h-8.533v-17.067h8.533a8.53 8.53 0 0 0 8.533-8.533 8.53 8.53 0 0 0-8.533-8.533h-8.533v-17.067h25.6a8.53 8.53 0 0 0 8.533-8.533 8.53 8.53 0 0 0-8.533-8.533h-25.6V102.4h85.333v268.988c-12.22-8.201-26.88-12.988-42.667-12.988-42.351 0-76.8 34.458-76.8 76.8 0 15.778 4.796 30.455 12.979 42.667H136.533v-85.333H153.6v25.6a8.536 8.536 0 0 0 8.533 8.533 8.536 8.536 0 0 0 8.533-8.533v-25.6h17.067v8.533c0 4.71 3.823 8.533 8.533 8.533s8.533-3.823 8.533-8.533v-8.533h17.067v8.533c0 4.71 3.823 8.533 8.533 8.533s8.533-3.823 8.533-8.533v-8.533H256v8.533a8.536 8.536 0 0 0 8.533 8.533 8.53 8.53 0 0 0 8.533-8.533v-8.533h17.067v25.6c0 4.71 3.814 8.533 8.533 8.533s8.533-3.823 8.533-8.533v-25.6h17.067v8.533a8.53 8.53 0 0 0 8.533 8.533 8.53 8.53 0 0 0 8.533-8.533V384a8.53 8.53 0 0 0-8.533-8.533H136.533c-9.89 0-17.067 7.177-17.067 17.067v85.333c0 9.89 7.177 17.067 17.067 17.067h250.496C400.213 505.583 416.964 512 435.2 512c42.351 0 76.8-34.458 76.8-76.8 0-18.236-6.417-34.978-17.067-48.171zM435.2 494.933c-32.93 0-59.733-26.795-59.733-59.733s26.803-59.733 59.733-59.733c32.93 0 59.733 26.795 59.733 59.733s-26.803 59.733-59.733 59.733z" transform="rotate(-25.677 152.76 -410.688) scale(.11991)"/><path d="M443.733 59.733A8.53 8.53 0 0 0 435.2 51.2H102.4C102.4 22.963 79.437 0 51.2 0S0 22.963 0 51.2v409.6C0 489.037 22.963 512 51.2 512h42.667a8.536 8.536 0 0 0 8.533-8.533 8.536 8.536 0 0 0-8.533-8.533H51.2c-18.825 0-34.133-15.309-34.133-34.133 0-18.824 15.309-34.133 34.133-34.133s34.133 15.309 34.133 34.133a8.536 8.536 0 0 0 8.533 8.533 8.536 8.536 0 0 0 8.533-8.533V68.267h332.8a8.531 8.531 0 0 0 8.534-8.534zm-358.4 363.008C76.262 414.601 64.324 409.6 51.2 409.6s-25.062 5.001-34.133 13.141V51.2c0-18.825 15.309-34.133 34.133-34.133S85.333 32.375 85.333 51.2v371.541z" transform="rotate(-25.677 152.76 -410.688) scale(.11991)"/><path d="M326.767 116.966a8.51 8.51 0 0 0 6.033 2.5 8.509 8.509 0 0 0 6.033-2.5 8.523 8.523 0 0 0 0-12.066l-17.058-17.058a8.53 8.53 0 0 0-2.782-1.852 8.54 8.54 0 0 0-6.519 0 8.53 8.53 0 0 0-2.782 1.852L292.634 104.9a8.523 8.523 0 0 0 0 12.066 8.525 8.525 0 0 0 12.066 0l2.5-2.5V312.2l-2.5-2.5a8.525 8.525 0 0 0-12.066 0 8.523 8.523 0 0 0 0 12.066l17.058 17.058a8.53 8.53 0 0 0 2.782 1.852 8.46 8.46 0 0 0 3.26.657 8.463 8.463 0 0 0 3.26-.657 8.53 8.53 0 0 0 2.782-1.852l17.058-17.058a8.523 8.523 0 0 0 0-12.066 8.525 8.525 0 0 0-12.066 0l-2.5 2.5V114.466l2.499 2.5z" transform="rotate(-25.677 152.76 -410.688) scale(.11991)"/></g><g id="e" fill="#e0f5ff"><path d="M315.733 375.467a8.53 8.53 0 0 0 8.533 8.533c1.63 0 10.078-.393 25.6-7.595 15.514 7.202 23.962 7.595 25.6 7.595 4.642 0 8.346-3.721 8.439-8.363.094-4.642-3.627-8.508-8.26-8.704-.077 0-7.467-.384-21.965-7.637a8.583 8.583 0 0 0-7.637 0c-14.49 7.253-21.888 7.637-21.777 7.637a8.531 8.531 0 0 0-8.533 8.534zm-179.2-264.534v337.801l-2.5-2.5a8.534 8.534 0 0 0-12.075 0c-3.328 3.328-3.328 8.73 0 12.066l17.067 17.058a8.493 8.493 0 0 0 2.773 1.852c1.05.427 2.15.657 3.268.657 1.109 0 2.21-.23 3.26-.657a8.493 8.493 0 0 0 2.773-1.852l17.067-17.058c3.328-3.337 3.328-8.738 0-12.066a8.534 8.534 0 0 0-12.075 0l-2.492 2.5V119.467h295.125l-2.492 2.5c-3.336 3.328-3.336 8.73 0 12.066a8.51 8.51 0 0 0 6.033 2.5 8.538 8.538 0 0 0 6.033-2.5l17.058-17.067a8.563 8.563 0 0 0 0-12.074L458.3 87.834c-3.336-3.337-8.738-3.337-12.066 0-3.336 3.328-3.336 8.73 0 12.066l2.492 2.5H145.067a8.531 8.531 0 0 0-8.534 8.533z" transform="rotate(23.2 -482.725 438.908) scale(.10518)"/><path d="M307.2 324.267a8.53 8.53 0 0 0 8.533 8.533 8.536 8.536 0 0 0 8.533-8.533c4.71 0 8.533-3.823 8.533-8.533s-3.823-8.533-8.533-8.533H307.2c-4.719 0-8.533 3.823-8.533 8.533s3.814 8.533 8.533 8.533zm51.2 68.266h-17.067a8.53 8.53 0 0 0-8.533 8.533 8.53 8.53 0 0 0 8.533 8.533H358.4a8.536 8.536 0 0 0 8.533-8.533 8.536 8.536 0 0 0-8.533-8.533zm17.067-68.266A8.53 8.53 0 0 0 384 332.8a8.536 8.536 0 0 0 8.533-8.533c4.71 0 8.533-3.823 8.533-8.533s-3.823-8.533-8.533-8.533h-17.067c-4.719 0-8.533 3.823-8.533 8.533s3.815 8.533 8.534 8.533zm25.6 128.35a8.53 8.53 0 0 0-8.533 8.533c0 1.382-.486 33.783-42.667 33.783-41.037 0-42.624-30.686-42.667-34.133a8.536 8.536 0 0 0-8.533-8.533c-99.721 0-110.37 47.505-110.771 49.519-.913 4.557 2.005 8.917 6.545 9.924 4.557 1.041 9.062-1.903 10.155-6.409.068-.282 6.281-22.903 51.405-32.111v30.276a8.53 8.53 0 0 0 8.533 8.533 8.536 8.536 0 0 0 8.533-8.533v-32.811c5.572-.58 11.426-1.05 17.937-1.229C294.528 487.595 309.53 512 349.867 512c40.286 0 55.296-24.183 58.846-42.214 6.511.171 12.373.631 17.954 1.212v32.469A8.53 8.53 0 0 0 435.2 512a8.536 8.536 0 0 0 8.533-8.533v-29.961c45.107 9.114 51.328 31.497 51.362 31.65.819 4.045 4.378 6.844 8.363 6.844.555 0 1.118-.06 1.69-.171a8.53 8.53 0 0 0 6.682-10.052c-.41-2.005-11.06-49.16-110.763-49.16z" transform="rotate(23.2 -482.725 438.908) scale(.10518)"/><path d="M469.333 51.2H128c-4.719 0-8.533 3.823-8.533 8.533s3.814 8.533 8.533 8.533h341.333c13.875 0 25.6 11.725 25.6 25.6v358.4a8.53 8.53 0 0 0 8.533 8.533 8.536 8.536 0 0 0 8.533-8.533v-358.4C512 70.34 492.851 51.2 469.333 51.2z" transform="rotate(23.2 -482.725 438.908) scale(.10518)"/><path d="M256.239 331.426c.802 13.858 4.156 44.689 18.261 65.835l1.818 2.773c10.743 16.341 28.706 43.699 73.549 43.699 44.834 0 62.797-27.358 73.54-43.699l1.826-2.773c14.097-21.146 17.451-51.977 18.253-65.835 10.052-3.456 17.314-13.013 17.314-24.226v-17.067h8.533a8.536 8.536 0 0 0 8.533-8.533v-34.133a8.451 8.451 0 0 0-.674-3.319c-.111-.265-.333-.452-.469-.7-.393-.717-.785-1.434-1.348-2.005-.282-.282-.657-.418-.964-.657-.563-.427-1.092-.896-1.741-1.169-.41-.179-.887-.171-1.323-.273-.649-.162-1.271-.41-1.963-.41-10.513-28.962-31.864-61.295-93.918-73.242v-3.558a8.536 8.536 0 0 0-8.533-8.533H332.8a8.53 8.53 0 0 0-8.533 8.533v3.379c-51.439 9.097-81.929 43.511-93.815 73.421h-.052a8.53 8.53 0 0 0-8.533 8.533c0 .759.239 1.442.427 2.142V281.6a8.536 8.536 0 0 0 8.533 8.533h8.107V307.2c-.001 11.213 7.253 20.77 17.305 24.226zM443.733 307.2c0 4.702-3.831 8.533-8.533 8.533-4.71 0-8.525 3.823-8.533 8.525 0 .401-.239 40.44-15.642 63.539l-1.886 2.867c-9.984 15.189-23.646 36.002-59.273 36.002-35.635 0-49.297-20.813-59.281-36.002l-1.886-2.867c-15.403-23.1-15.633-63.138-15.633-63.539-.008-4.702-3.831-8.525-8.533-8.525-4.71 0-8.533-3.831-8.533-8.533v-17.067h187.733V307.2zM239.36 256h33.707c4.71 0 8.533-3.823 8.533-8.533s-3.823-8.533-8.533-8.533h-23.953c11.426-23.305 35.942-48.111 75.153-56.047V204.8a8.53 8.53 0 0 0 8.533 8.533 8.536 8.536 0 0 0 8.533-8.533v-34.133H358.4V204.8a8.53 8.53 0 0 0 8.533 8.533 8.536 8.536 0 0 0 8.533-8.533v-21.658c47.053 9.89 65.766 32.512 75.58 55.791h-24.38c-4.719 0-8.533 3.823-8.533 8.533s3.814 8.533 8.533 8.533H460.8v17.067H239.36V256zm-77.227 238.933H51.2c-18.825 0-34.133-15.317-34.133-34.133 0-18.824 15.309-34.133 34.133-34.133 18.816 0 34.133 15.309 34.133 34.133a8.53 8.53 0 0 0 8.533 8.533 8.536 8.536 0 0 0 8.533-8.533V51.2C102.4 22.963 79.428 0 51.2 0 22.963 0 0 22.963 0 51.2v409.6C0 489.028 22.963 512 51.2 512h110.933a8.536 8.536 0 0 0 8.533-8.533c.001-4.711-3.822-8.534-8.533-8.534zM17.067 51.2c0-18.825 15.309-34.133 34.133-34.133 18.816 0 34.133 15.309 34.133 34.133v371.541C76.262 414.601 64.316 409.6 51.2 409.6c-13.124 0-25.062 5.001-34.133 13.141V51.2z" transform="rotate(23.2 -482.725 438.908) scale(.10518)"/></g><g id="g" fill="#e3f6ff"><path d="M39.398 383.352a8.535 8.535 0 0 0 9.301-1.852l139.059-139.051L326.767 381.5a8.526 8.526 0 0 0 9.301 1.852 8.547 8.547 0 0 0 5.265-7.885V264.533A8.536 8.536 0 0 0 332.8 256a8.536 8.536 0 0 0-8.533 8.533v90.325L193.818 224.367c-3.2-3.2-8.917-3.2-12.117 0l-130.5 130.5V256h42.667a8.536 8.536 0 0 0 8.533-8.533v-8.533h17.067v8.533c0 4.71 3.823 8.533 8.533 8.533s8.533-3.823 8.533-8.533V230.4a8.536 8.536 0 0 0-8.533-8.533H93.867a8.536 8.536 0 0 0-8.533 8.533v8.533H42.667a8.536 8.536 0 0 0-8.533 8.533v128a8.546 8.546 0 0 0 5.264 7.886z" transform="rotate(-26.565 105.415 -55.377) scale(.076)"/><path d="M239.778 179.14a384.483 384.483 0 0 0-.845 25.66c0 42.743 12.757 68.267 34.133 68.267 26.948 0 34.133-32.179 34.133-51.2 0-4.71-3.823-8.533-8.533-8.533s-8.533 3.823-8.533 8.533c0 .341-.734 34.133-17.067 34.133-9.89 0-17.067-21.53-17.067-51.2 0-99.49 34.918-110.822 36.019-111.138 4.497-1.024 7.39-5.453 6.477-10.001a8.499 8.499 0 0 0-10.035-6.69c-1.707.341-7.893 1.963-15.334 8.337.009-1.468.128-2.935.521-4.395a16.929 16.929 0 0 1 7.953-10.359 16.967 16.967 0 0 1 12.945-1.707c4.403 1.186 8.09 4.011 10.359 7.953 4.71 8.149 1.911 18.611-6.238 23.313a8.542 8.542 0 0 0-3.123 11.665 8.529 8.529 0 0 0 7.398 4.258 8.469 8.469 0 0 0 4.258-1.143c16.299-9.421 21.897-30.336 12.493-46.626-4.557-7.893-11.921-13.542-20.727-15.906-8.823-2.364-18.014-1.143-25.899 3.413-7.893 4.557-13.542 11.921-15.906 20.727-2.21 8.243-1.161 16.802 2.85 24.593-7.322 11.913-14.165 29.653-17.971 56.038-12.774-15.3-20.173-34.79-20.173-54.733 0-47.053 38.281-85.333 85.333-85.333s85.333 38.281 85.333 85.333-38.281 85.333-85.333 85.333a85.381 85.381 0 0 1-27.076-4.378c-4.454-1.485-9.301.922-10.795 5.385-1.502 4.471.913 9.301 5.385 10.795a102.32 102.32 0 0 0 32.486 5.265c56.465 0 102.4-45.935 102.4-102.4C409.6 45.935 363.665 0 307.2 0S204.8 45.935 204.8 102.4c0 29.099 13.065 57.378 34.978 76.74zM509.5 249.967l-88.627-88.627c-3.328-3.328-8.73-3.328-12.066 0-3.328 3.337-3.328 8.738 0 12.066l86.127 86.127v30.601h-30.601l-3.533-3.533v-22.067a8.536 8.536 0 0 0-8.533-8.533h-8.533v-8.533a8.536 8.536 0 0 0-8.533-8.533h-22.059l-3.541-3.541v-22.059a8.536 8.536 0 0 0-8.533-8.533H379l-.828-.828c-3.328-3.328-8.73-3.328-12.066 0-3.328 3.337-3.328 8.738 0 12.066l3.328 3.328a8.513 8.513 0 0 0 6.033 2.5h17.067v17.058a8.52 8.52 0 0 0 2.492 6.025l8.533 8.55a8.532 8.532 0 0 0 6.042 2.5h17.067v8.533a8.536 8.536 0 0 0 8.533 8.533h8.533v17.067c0 2.261.896 4.437 2.5 6.033l8.533 8.533a8.513 8.513 0 0 0 6.033 2.5h42.667a8.536 8.536 0 0 0 8.533-8.533V256a8.513 8.513 0 0 0-2.5-6.033zm-296.167 125.5A8.536 8.536 0 0 0 204.8 384v68.267a8.536 8.536 0 0 0 8.533 8.533h51.2a8.536 8.536 0 0 0 8.533-8.533V384a8.536 8.536 0 0 0-8.533-8.533h-51.2zM256 443.733h-34.133v-51.2H256v51.2z" transform="rotate(-26.565 105.415 -55.377) scale(.076)"/><path d="M503.467 494.933H409.6v-34.995c19.447-3.968 34.133-21.197 34.133-41.805 0-1.109-.486-110.933-42.667-110.933-42.18 0-42.667 109.824-42.667 110.933 0 20.608 14.686 37.837 34.133 41.805v34.995h-68.267V396.8c0-4.71-3.823-8.533-8.533-8.533s-8.533 3.823-8.533 8.533v98.133H187.733V384a8.536 8.536 0 0 0-8.533-8.533h-68.267A8.536 8.536 0 0 0 102.4 384v110.933H68.267V396.8c0-4.71-3.823-8.533-8.533-8.533S51.2 392.09 51.2 396.8v98.133H8.533c-4.71 0-8.533 3.823-8.533 8.533S3.823 512 8.533 512h494.933c4.71 0 8.533-3.823 8.533-8.533s-3.822-8.534-8.532-8.534zm-332.8-59.733h-8.533c-4.71 0-8.533 3.823-8.533 8.533s3.823 8.533 8.533 8.533h8.533v42.667h-51.2v-102.4h51.2V435.2zm204.8-17.067c0-42.513 11.418-93.867 25.6-93.867 14.182 0 25.6 51.354 25.6 93.867 0 14.114-11.486 25.6-25.6 25.6s-25.6-11.486-25.6-25.6z" transform="rotate(-26.565 105.415 -55.377) scale(.076)"/></g><g id="i" fill="#e3f6ff"><path d="M503.467 324.267h-34.133a8.536 8.536 0 0 0-8.533 8.533v162.133h-17.067V298.667a8.536 8.536 0 0 0-8.533-8.533H384a8.536 8.536 0 0 0-8.533 8.533v196.267H358.4V349.867a8.536 8.536 0 0 0-8.533-8.533h-51.2a8.536 8.536 0 0 0-8.533 8.533v145.067h-17.067v-93.867a8.536 8.536 0 0 0-8.533-8.533h-51.2a8.536 8.536 0 0 0-8.533 8.533v93.867h-17.067v-42.667a8.536 8.536 0 0 0-8.533-8.533H128a8.536 8.536 0 0 0-8.533 8.533v42.667H51.2V307.2a8.536 8.536 0 0 0-8.533-8.533 8.536 8.536 0 0 0-8.533 8.533v187.733h-25.6c-4.71 0-8.533 3.823-8.533 8.533S3.823 512 8.533 512H128a8.536 8.536 0 0 0 8.533-8.533V460.8h34.133v42.667a8.536 8.536 0 0 0 8.533 8.533h34.133a8.536 8.536 0 0 0 8.533-8.533V409.6H256v93.867a8.536 8.536 0 0 0 8.533 8.533h34.133a8.536 8.536 0 0 0 8.533-8.533V358.4h34.133v145.067a8.536 8.536 0 0 0 8.533 8.533H384a8.536 8.536 0 0 0 8.533-8.533V307.2h34.133v196.267a8.536 8.536 0 0 0 8.533 8.533h34.133a8.536 8.536 0 0 0 8.533-8.533V341.333h25.6a8.536 8.536 0 0 0 8.533-8.533c.002-4.71-3.821-8.533-8.531-8.533z" transform="translate(247 178) scale(.11719)"/><path d="M503.467 68.267H341.333c-4.71 0-8.533 3.823-8.533 8.533s3.823 8.533 8.533 8.533h153.6v184.201l-232.9-232.9c-1.673-1.673-3.866-2.5-6.059-2.5s-4.386.828-6.059 2.5L17.067 269.525V85.333h93.867a8.536 8.536 0 0 0 8.533-8.533V42.667a8.536 8.536 0 0 0-8.533-8.533H102.4V17.067h51.2v17.067h-8.533a8.536 8.536 0 0 0-8.533 8.533V76.8a8.536 8.536 0 0 0 8.533 8.533h25.6c4.71 0 8.533-3.823 8.533-8.533s-3.823-8.533-8.533-8.533H153.6V51.2h8.533a8.536 8.536 0 0 0 8.533-8.533V8.533A8.536 8.536 0 0 0 162.133 0H93.867a8.536 8.536 0 0 0-8.533 8.533v34.133a8.536 8.536 0 0 0 8.533 8.533h8.533v17.067H8.533a8.513 8.513 0 0 0-6.033 2.5A8.517 8.517 0 0 0 0 76.8l.034 213.333a8.533 8.533 0 0 0 8.534 8.534c2.227 0 4.412-.87 6.033-2.5l241.373-241.46 241.459 241.459a8.535 8.535 0 0 0 9.301 1.851 8.547 8.547 0 0 0 5.265-7.885V76.8c.001-4.71-3.822-8.533-8.532-8.533z" transform="translate(247 178) scale(.11719)"/><path d="M290.133 170.667c0-18.825-15.309-34.133-34.133-34.133-18.825 0-34.133 15.309-34.133 34.133S237.175 204.8 256 204.8c18.825 0 34.133-15.309 34.133-34.133zm-51.2 0c0-9.412 7.654-17.067 17.067-17.067 9.412 0 17.067 7.654 17.067 17.067 0 9.412-7.654 17.067-17.067 17.067-9.412-.001-17.067-7.655-17.067-17.067zm-34.133 128v68.267a8.536 8.536 0 0 0 8.533 8.533 8.536 8.536 0 0 0 8.533-8.533V307.2h68.267v8.533c0 4.71 3.823 8.533 8.533 8.533s8.533-3.823 8.533-8.533v-17.067a8.536 8.536 0 0 0-8.533-8.533h-85.333c-4.71 0-8.533 3.823-8.533 8.534zm-42.667-8.534H93.867a8.536 8.536 0 0 0-8.533 8.533v93.867H76.8c-4.71 0-8.533 3.823-8.533 8.533S72.09 409.6 76.8 409.6h102.4c4.71 0 8.533-3.823 8.533-8.533s-3.823-8.533-8.533-8.533h-8.533v-93.867a8.537 8.537 0 0 0-8.534-8.534zm-8.533 102.4h-51.2V358.4h51.2v34.133zm0-51.2h-51.2V307.2h51.2v34.133z" transform="translate(247 178) scale(.11719)"/></g><g id="k" fill="#e3f6ff"><path d="M469.333 51.2H128c-4.719 0-8.533 3.823-8.533 8.533s3.814 8.533 8.533 8.533h341.333c13.875 0 25.6 11.725 25.6 25.6v375.467c0 14.353-11.238 25.6-25.6 25.6H51.2c-18.825 0-34.133-15.309-34.133-34.133 0-18.825 15.309-34.133 34.133-34.133s34.133 15.309 34.133 34.133a8.53 8.53 0 0 0 8.533 8.533 8.53 8.53 0 0 0 8.533-8.533V51.2C102.4 22.963 79.437 0 51.2 0S0 22.963 0 51.2v409.6C0 489.037 22.963 512 51.2 512h418.133C493.261 512 512 493.261 512 469.333V93.867C512 70.34 492.86 51.2 469.333 51.2zm-452.266 0c0-18.825 15.309-34.133 34.133-34.133S85.333 32.375 85.333 51.2v371.55c-9.071-8.149-21.018-13.15-34.133-13.15s-25.071 5-34.133 13.15V51.2z" transform="rotate(37.875 -166.98 149.742) scale(.09448)"/><path d="M349.867 443.733a8.53 8.53 0 0 0-8.533 8.533 8.53 8.53 0 0 0 8.533 8.533h102.4a8.53 8.53 0 0 0 8.533-8.533V110.933a8.53 8.53 0 0 0-8.533-8.533h-307.2a8.53 8.53 0 0 0-8.533 8.533v341.333a8.53 8.53 0 0 0 8.533 8.533h170.667a8.53 8.53 0 0 0 8.533-8.533c0-39.467 29.918-72.073 68.267-76.331v42.197a8.53 8.53 0 0 0 8.533 8.533 8.53 8.53 0 0 0 8.533-8.533v-51.2a8.53 8.53 0 0 0-8.533-8.533c-48.879 0-89.097 37.564-93.432 85.333H153.6V307.2h162.133a8.53 8.53 0 0 0 8.533-8.533v-34.133c0-4.71-3.814-8.533-8.533-8.533s-8.533 3.823-8.533 8.533v25.6H153.6V119.467h153.6V179.2c0 4.71 3.814 8.533 8.533 8.533s8.533-3.823 8.533-8.533v-59.733h119.467v170.667h-42.667c-4.719 0-8.533 3.823-8.533 8.533s3.814 8.533 8.533 8.533h42.667v136.533h-93.866z" transform="rotate(37.875 -166.98 149.742) scale(.09448)"/></g></defs><g fi:class="KUsePattern"><pattern id="b" width="350" height="350" patternUnits="userSpaceOnUse"><use xlink:href="#a" x="-350" y="-350"/><use xlink:href="#a" y="-350"/><use xlink:href="#a" x="350" y="-350"/><use xlink:href="#a" x="-350"/><use xlink:href="#a"/><use xlink:href="#a" x="350"/><use xlink:href="#a" x="-350" y="350"/><use xlink:href="#a" y="350"/><use xlink:href="#a" x="350" y="350"/></pattern><rect width="100%" height="100%" fill="url(#b)"/></g><g fi:class="KUsePattern"><pattern id="d" width="350" height="350" patternUnits="userSpaceOnUse"><use xlink:href="#c" x="-350" y="-350"/><use xlink:href="#c" y="-350"/><use xlink:href="#c" x="350" y="-350"/><use xlink:href="#c" x="-350"/><use xlink:href="#c"/><use xlink:href="#c" x="350"/><use xlink:href="#c" x="-350" y="350"/><use xlink:href="#c" y="350"/><use xlink:href="#c" x="350" y="350"/></pattern><rect width="100%" height="100%" fill="url(#d)"/></g><g fi:class="KUsePattern"><pattern id="f" width="350" height="350" patternUnits="userSpaceOnUse"><use xlink:href="#e" x="-350" y="-350"/><use xlink:href="#e" y="-350"/><use xlink:href="#e" x="350" y="-350"/><use xlink:href="#e" x="-350"/><use xlink:href="#e"/><use xlink:href="#e" x="350"/><use xlink:href="#e" x="-350" y="350"/><use xlink:href="#e" y="350"/><use xlink:href="#e" x="350" y="350"/></pattern><rect width="100%" height="100%" fill="url(#f)"/></g><g fi:class="KUsePattern"><pattern id="h" width="350" height="350" patternUnits="userSpaceOnUse"><use xlink:href="#g" x="-350" y="-350"/><use xlink:href="#g" y="-350"/><use xlink:href="#g" x="350" y="-350"/><use xlink:href="#g" x="-350"/><use xlink:href="#g"/><use xlink:href="#g" x="350"/><use xlink:href="#g" x="-350" y="350"/><use xlink:href="#g" y="350"/><use xlink:href="#g" x="350" y="350"/></pattern><rect width="100%" height="100%" fill="url(#h)"/></g><g fi:class="KUsePattern"><pattern id="j" width="350" height="350" patternUnits="userSpaceOnUse"><use xlink:href="#i" x="-350" y="-350"/><use xlink:href="#i" y="-350"/><use xlink:href="#i" x="350" y="-350"/><use xlink:href="#i" x="-350"/><use xlink:href="#i"/><use xlink:href="#i" x="350"/><use xlink:href="#i" x="-350" y="350"/><use xlink:href="#i" y="350"/><use xlink:href="#i" x="350" y="350"/></pattern><rect width="100%" height="100%" fill="url(#j)"/></g><g fi:class="KUsePattern"><pattern id="l" width="350" height="350" patternUnits="userSpaceOnUse"><use xlink:href="#k" x="-350" y="-350"/><use xlink:href="#k" y="-350"/><use xlink:href="#k" x="350" y="-350"/><use xlink:href="#k" x="-350"/><use xlink:href="#k"/><use xlink:href="#k" x="350"/><use xlink:href="#k" x="-350" y="350"/><use xlink:href="#k" y="350"/><use xlink:href="#k" x="350" y="350"/></pattern><rect width="100%" height="100%" fill="url(#l)"/></g></svg>