<svg width="1919" height="864" fill="none" xmlns="http://www.w3.org/2000/svg"><mask id="a" maskUnits="userSpaceOnUse" x="0" y="0" width="1919" height="864"><path fill="#C4C4C4" d="M0 0h1919v864H0z"/></mask><g mask="url(#a)" stroke-width="1.51"><path d="M948.839 431.755l39.979 7.098 31.982-209.378-71.961 202.28z" fill="#009EE1" stroke="#009EE1"/><path d="M1020.8 229.475l-250.535 98.183 178.574 104.097 71.961-202.28z" fill="#06A4E2" stroke="#06A4E2"/><path d="M988.818 438.853l201.232-107.646-169.25-101.732-31.982 209.378z" fill="#039CDA" stroke="#039CDA"/><path d="M1020.8 229.475l151.92-121.841-195.896 85.17 43.976 36.671z" fill="#0FA7DA" stroke="#0FA7DA"/><path d="M976.824 192.804L770.265 327.658l250.535-98.183-43.976-36.671z" fill="#0CA9E1" stroke="#0CA9E1"/><path d="M988.818 438.853l298.512-33.122-97.28-74.524-201.232 107.646z" fill="#0293D1" stroke="#0293D1"/><path d="M948.839 431.756l126.601 162.06-86.622-154.963-39.979-7.097z" fill="#0292CF" stroke="#0292CF"/><path d="M786.257 667.158l289.183-73.341-126.601-162.061-162.582 235.402z" fill="#038FC9" stroke="#038FC9"/><path d="M1075.44 593.816l211.89-188.085-298.512 33.122 86.622 154.963z" fill="#028EC8" stroke="#028EC8"/><path d="M1190.05 331.207l-17.33-223.573-151.92 121.841 169.25 101.732z" fill="#0CA1D4" stroke="#0CA1D4"/><path d="M1475.23 233.024l-302.51-125.39 17.33 223.573 285.18-98.183z" fill="#0C99C9" stroke="#0C99C9"/><path d="M976.824 192.804l-197.23-62.695-9.329 197.549 206.559-134.854z" fill="#10AEE0" stroke="#10AEE0"/><path d="M779.594 130.109l-71.963 82.805 62.634 114.744 9.329-197.549z" fill="#11B1E0" stroke="#11B1E0"/><path d="M707.631 212.914L411.785 324.109l358.48 3.549-62.634-114.744z" fill="#11B1E0" stroke="#11B1E0"/><path d="M779.594 130.109l-155.919 42.586 83.956 40.219 71.963-82.805z" fill="#13B6DF" stroke="#13B6DF"/><path d="M1075.44 593.816l179.91 36.671 31.98-224.756-211.89 188.085z" fill="#0383BA" stroke="#0383BA"/><path d="M602.353 513.377l346.486-81.622-178.574-104.097-167.912 185.719z" fill="#09A1DA" stroke="#09A1DA"/><path d="M602.353 513.378l183.904 153.78 162.582-235.402-346.486 81.622z" fill="#0997CB" stroke="#0997CB"/><path d="M1075.44 593.816l101.28 217.659 78.63-180.988-179.91-36.671z" fill="#0782B6" stroke="#0782B6"/><path d="M411.785 324.109l190.568 189.269 167.912-185.72-358.48-3.549z" fill="#0FABDE" stroke="#0FABDE"/><path d="M602.353 513.377l-1.333 78.074 185.237 75.707-183.904-153.781z" fill="#0D96C4" stroke="#0D96C4"/><path d="M1287.33 405.731l187.9-172.707-285.18 98.183 97.28 74.524z" fill="#0691C8" stroke="#0691C8"/><path d="M1255.35 630.487l223.88-218.841-191.9-5.915-31.98 224.756z" fill="#0382B8" stroke="#0382B8"/><path d="M1479.23 411.646l-4-178.622-187.9 172.707 191.9 5.915z" fill="#048AC2" stroke="#048AC2"/><path d="M708.964 819.755l146.59-47.317-69.297-105.28-77.293 152.597z" fill="#149BCE" stroke="#149BCE"/><path d="M786.257 667.158l69.297 105.28 219.886-178.622-289.183 73.342z" fill="#098FC5" stroke="#098FC5"/><path d="M1255.35 630.487l97.28 53.232 126.6-272.073-223.88 218.841z" fill="#0479AB" stroke="#0479AB"/><path d="M1176.72 811.475l175.91-127.756-97.28-53.232-78.63 180.988z" fill="#0A81B4" stroke="#0A81B4"/><path d="M601.02 591.451l107.944 228.304 77.293-152.597-185.237-75.707z" fill="#1198C6" stroke="#1198C6"/><path d="M602.353 513.377l-63.967 111.195 62.634-33.121 1.333-78.074z" fill="#0E9BC5" stroke="#0E9BC5"/><path d="M394.461 372.609l143.925 251.964 63.967-111.195-207.892-140.769z" fill="#10A4CE" stroke="#10A4CE"/><path d="M1000.81 863.524l175.91-52.049-101.28-217.659-74.63 269.708z" fill="#0F8EC7" stroke="#0F8EC7"/><path d="M1475.23 233.024l38.65-112.378-341.16-13.012 302.51 125.39z" fill="#0E98C1" stroke="#0E98C1"/><path d="M1587.17 159.682l-73.29-39.036-38.65 112.378 111.94-73.342z" fill="#119AC4" stroke="#119AC4"/><path d="M623.675 172.695l-211.89 151.414 295.846-111.195-83.956-40.219z" fill="#13B6DF" stroke="#13B6DF"/><path d="M441.103 188.073l-29.318 136.036 211.89-151.414-182.572 15.378z" fill="#12BADE" stroke="#12BADE"/><path d="M855.554 772.438l145.256 91.086 74.63-269.708-219.886 178.622z" fill="#0D92CD" stroke="#0D92CD"/><path d="M207.892 298.085l186.569 74.524 17.324-48.5-203.893-26.024z" fill="#35B6E4" stroke="#35B6E4"/><path d="M411.785 324.109l-17.324 48.5 207.892 140.769-190.568-189.269z" fill="#15AEDB" stroke="#15AEDB"/><path d="M538.386 624.573l170.578 195.182L601.02 591.451l-62.634 33.122z" fill="#1199C3" stroke="#1199C3"/><path d="M1479.23 411.646l135.93-24.842-139.93-153.78 4 178.622z" fill="#098EC6" stroke="#098EC6"/><path d="M1587.17 584.353l27.99-197.549-135.93 24.842 107.94 172.707z" fill="#0987BC" stroke="#0987BC"/><path d="M1627.15 224.743l-39.98-65.061-111.94 73.342 151.92-8.281z" fill="#129AC7" stroke="#129AC7"/><path d="M1615.16 386.804l11.99-162.061-151.92 8.281 139.93 153.78z" fill="#0F95C8" stroke="#0F95C8"/><path d="M1408.6 820.938l178.57-236.585-234.54 99.366 55.97 137.219z" fill="#0978A6" stroke="#0978A6"/><path d="M1352.63 683.719l234.54-99.366-107.94-172.707-126.6 272.073z" fill="#0579A9" stroke="#0579A9"/><path d="M1176.72 811.475l231.88 9.463-55.97-137.219-175.91 127.756z" fill="#0F85B8" stroke="#0F85B8"/><path d="M441.103 188.073L207.892 298.085l203.893 26.024 29.318-136.036z" fill="#33BAE3" stroke="#33BAE3"/><path d="M538.386 624.573l-131.931 88.719 302.509 106.463-170.578-195.182z" fill="#14A0C8" stroke="#14A0C8"/><path d="M255.867 526.39l150.588 186.902 131.931-88.719-282.519-98.183z" fill="#249BC1" stroke="#249BC1"/><path d="M394.461 372.609L255.867 526.39l282.519 98.183-143.925-251.964z" fill="#27A6D0" stroke="#27A6D0"/><path d="M207.892 298.085l47.975 228.304 138.594-153.78-186.569-74.524z" fill="#3CB2E2" stroke="#3CB2E2"/><path d="M1587.17 584.353l173.25-115.927-145.26-81.622-27.99 197.549z" fill="#0D8AC0" stroke="#0D8AC0"/><path d="M1615.16 386.804l285.18-68.609-273.19-93.452-11.99 162.061z" fill="#149BD3" stroke="#149BD3"/><path d="M1901.68 699.097l-141.26-230.671-173.25 115.927 314.51 114.744z" fill="#1186BA" stroke="#1186BA"/><path d="M289.183 102.902l-81.291 195.183 233.211-110.012-151.92-85.171z" fill="#3ABFE4" stroke="#3ABFE4"/><path d="M255.867 526.39l-43.977 53.231 194.565 133.671L255.867 526.39z" fill="#369FC7" stroke="#369FC7"/><path d="M115.94 440.036l95.95 139.585 43.977-53.232-139.927-86.353z" fill="#45A9D6" stroke="#45A9D6"/><path d="M1856.37 159.682h-269.2l39.98 65.061 229.22-65.061z" fill="#17A2CF" stroke="#17A2CF"/><path d="M137.262 80.427L110.609 348.95l97.283-50.866-70.63-217.658z" fill="#50BFEA" stroke="#50BFEA"/><path d="M1408.6 820.938l297.18 20.11-118.61-256.695-178.57 236.585z" fill="#1283B5" stroke="#1283B5"/><path d="M137.262 80.427l70.63 217.658 81.291-195.183-151.921-22.475z" fill="#49C4E6" stroke="#49C4E6"/><path d="M207.892 298.085L115.94 440.036l139.927 86.353-47.975-228.304z" fill="#47B2E3" stroke="#47B2E3"/><path d="M110.609 348.951l5.331 91.085 91.952-141.951-97.283 50.866z" fill="#50B8EC" stroke="#50B8EC"/><path d="M1900.34 318.195l-43.97-158.513-229.22 65.061 273.19 93.452z" fill="#1AA5D8" stroke="#1AA5D8"/><path d="M121.27 16.549l15.992 63.877 151.921 22.476L121.27 16.549z" fill="#55CAE9" stroke="#55CAE9"/><path d="M1997.63 328.841l-97.29-10.646 123.94 48.5-26.65-37.854z" fill="#1BA6E2" stroke="#1BA6E2"/><path d="M1760.42 468.426l139.92-150.231-285.18 68.609 145.26 81.622z" fill="#1398D3" stroke="#1398D3"/><path d="M35 665.709l173.243 110.012 3.998-196.366L35 665.709z" fill="#48A3CD" stroke="#48A3CD"/><path d="M211.89 579.621l-3.998 196.366 198.563-62.695L211.89 579.621z" fill="#3AA3CB" stroke="#3AA3CB"/><path d="M137.262 80.427L-18.657 318.195l129.266 30.756 26.653-268.524z" fill="#59C0EC" stroke="#59C0EC"/><path d="M1872.36 767.707l-285.19-183.354 118.61 256.695 166.58-73.341z" fill="#178BBE" stroke="#178BBE"/><path d="M1872.36 767.707l29.32-68.61-314.51-114.744 285.19 183.354z" fill="#1689BD" stroke="#1689BD"/><path d="M1900.34 318.195l75.96-176.256-119.93 17.744 43.97 158.512z" fill="#1EAEE0" stroke="#1EAEE0"/><path d="M2024.28 366.695l-123.94-48.5-139.92 150.231 263.86-101.731z" fill="#18A1DE" stroke="#18A1DE"/><path d="M1997.63 328.841l-21.33-186.902-75.96 176.256 97.29 10.646z" fill="#1EABE1" stroke="#1EABE1"/><path d="M-139.927 40.207l121.27 277.988L137.262 80.427l-277.189-40.22z" fill="#62C9EE" stroke="#62C9EE"/><path d="M110.609 348.951l-129.266-30.756L115.94 440.036l-5.331-91.085z" fill="#58B9EE" stroke="#58B9EE"/><path d="M115.94 440.036L34.649 665.975l177.241-86.354-95.95-139.585z" fill="#4CA6D3" stroke="#4CA6D3"/><path d="M-122.603 602.097l157.252 63.878 81.291-225.939-238.543 162.061z" fill="#57A7D5" stroke="#57A7D5"/><path d="M2038.94 674.255l-14.66-307.56-263.86 101.731 278.52 205.829z" fill="#1998D0" stroke="#1998D0"/><path d="M121.27 16.549l-261.197 23.658 277.189 40.22-15.992-63.879z" fill="#68CEEF" stroke="#68CEEF"/><path d="M1901.68 699.097l137.26-24.842-278.52-205.829 141.26 230.671z" fill="#178DC1" stroke="#178DC1"/><path d="M1872.36 767.707l166.58-93.452-137.26 24.842-29.32 68.61z" fill="#1C94CA" stroke="#1C94CA"/><path d="M2097.57 713.292l-58.63-39.037-166.58 93.452 225.21-54.415z" fill="#1C95CA" stroke="#1C95CA"/><path d="M-18.657 318.195l-125.268 112.378 259.865 9.463-134.597-121.841z" fill="#5EB8ED" stroke="#5EB8ED"/><path d="M-143.925 430.573l21.322 171.524L115.94 440.036l-259.865-9.463z" fill="#5BAFE0" stroke="#5BAFE0"/><path d="M-106.611-13.025l-33.316 53.232L121.27 16.548l-227.881-29.573z" fill="#72CFF3" stroke="#72CFF3"/><path d="M-122.603 602.097l-19.989 194 177.24-130.122-157.251-63.878z" fill="#59A7D5" stroke="#59A7D5"/></g></svg>