<svg width="90" height="90" fill="none" xmlns="http://www.w3.org/2000/svg"><path d="M79.809 32.193h-2.161V21.765c0-.065-.01-.13-.018-.197a1.733 1.733 0 0 0-.42-1.142L59.857.604c-.005-.006-.01-.007-.014-.013a1.738 1.738 0 0 0-.352-.295 1.853 1.853 0 0 0-.463-.215c-.033-.008-.062-.022-.095-.03A1.754 1.754 0 0 0 58.53 0H15.882a3.533 3.533 0 0 0-3.529 3.53v28.662h-2.16a5.044 5.044 0 0 0-5.045 5.044V63.47a5.046 5.046 0 0 0 5.044 5.044h2.161v17.958A3.533 3.533 0 0 0 15.883 90h58.235a3.534 3.534 0 0 0 3.529-3.53V68.514h2.161a5.045 5.045 0 0 0 5.044-5.044V37.237a5.043 5.043 0 0 0-5.043-5.044zM15.882 3.529h40.882v18.058c0 .975.79 1.764 1.764 1.764h15.59v8.841H15.882V3.53zM51.637 51.65c-3.468-1.207-5.73-3.126-5.73-6.162 0-3.562 2.972-6.287 7.898-6.287 2.352 0 4.087.495 5.325 1.053l-1.053 3.808a9.933 9.933 0 0 0-4.365-.99c-2.044 0-3.035.929-3.035 2.013 0 1.332 1.177 1.92 3.87 2.941 3.685 1.364 5.42 3.283 5.42 6.225 0 3.5-2.695 6.473-8.424 6.473-2.384 0-4.738-.618-5.915-1.27l.96-3.902c1.27.65 3.221 1.302 5.233 1.302 2.17 0 3.314-.898 3.314-2.261 0-1.3-.99-2.045-3.498-2.943zm-7.988 4.8v3.965H30.61V39.54h4.74v16.91h8.3zm-28.18 3.965H10.08l6.038-10.563-5.823-10.313h5.42l1.827 3.81a64.89 64.89 0 0 1 1.58 3.47h.06c.497-1.333.9-2.262 1.424-3.47l1.766-3.81h5.388l-5.884 10.188 6.195 10.686h-5.45l-1.89-3.779c-.773-1.453-1.27-2.538-1.858-3.746h-.061c-.434 1.208-.96 2.293-1.61 3.746l-1.734 3.781zm58.649 25.1H15.882V68.513h58.236v17.002zm.032-25.1l-1.89-3.779c-.774-1.455-1.27-2.538-1.858-3.746h-.06c-.434 1.208-.962 2.291-1.613 3.746l-1.732 3.78h-5.39l6.039-10.564-5.823-10.313h5.42l1.829 3.81a65.704 65.704 0 0 1 1.578 3.47h.062c.495-1.333.897-2.262 1.424-3.47l1.765-3.81h5.39l-5.885 10.188L79.6 60.413h-5.45v.002z" fill="#fff"/></svg>