<svg width="88" height="88" viewBox="0 0 88 88" fill="none" xmlns="http://www.w3.org/2000/svg">
<g clip-path="url(#clip0)">
<path d="M71.8667 32.2667C62.9564 32.2667 55.7333 25.0436 55.7333 16.1333C55.7333 7.22305 62.9564 0 71.8667 0C80.777 0 88 7.22305 88 16.1333C87.9893 25.0393 80.7727 32.2559 71.8667 32.2667ZM71.8667 2.93333C64.5763 2.93333 58.6667 8.84297 58.6667 16.1333C58.6667 23.4237 64.5763 29.3333 71.8667 29.3333C79.157 29.3333 85.0667 23.4237 85.0667 16.1333C85.0588 8.84655 79.1535 2.94121 71.8667 2.93333Z" fill="white"/>
<path d="M70.4 24.074L63.1411 16.8151L65.2151 14.7412L70.4 19.9261L79.7335 10.5925L81.8075 12.6665L70.4 24.074Z" fill="white"/>
<path d="M73.3333 35.2001H70.4V76.2667H16.9397C16.8101 74.4499 16.0073 72.7462 14.6889 71.49L14.6566 71.4621C14.1331 70.9343 14.1331 70.0828 14.6566 69.555L18.1335 66.0781C19.8516 64.3594 19.8516 61.5743 18.1335 59.8562L17.0922 58.815C16.0359 57.768 14.363 57.6784 13.2 58.6051V26.4001H27.8667V11.7334H54.2667V8.80005H25.7927L10.2667 24.3261V52.1928L1.28905 61.1704C0.461188 61.9932 -0.0035907 63.1133 -9.9801e-06 64.2813V88.0001H2.93332V64.2813C2.93332 63.8924 3.08801 63.5193 3.36301 63.2443L10.2667 56.3407V61.4912L5.0789 66.679L7.15285 68.7529L15.019 60.8875L16.0574 61.9273C16.6296 62.4995 16.6296 63.4284 16.0574 64.0013L12.5798 67.4782C11.7627 68.296 11.3108 69.4096 11.3273 70.5655C11.343 71.7213 11.8257 72.8213 12.665 73.6163L12.7073 73.6564C14.3494 75.229 14.512 77.7978 13.0811 79.5653L10.5882 82.6834L12.8792 84.5167L15.3721 81.3972C15.8913 80.7383 16.2909 79.9936 16.5544 79.1972H20.6329C20.5555 79.3161 20.5025 79.4464 20.413 79.5581L17.6 83.0852V88.0001H20.5333V84.115L22.7025 81.4001C23.2296 80.7426 23.6371 79.9978 23.9064 79.2001H73.3333V35.2001ZM15.2739 23.4667L24.9333 13.8073V23.4667H15.2739Z" fill="white"/>
<path d="M27.8667 58.6667H33.7333V61.6001H27.8667V58.6667Z" fill="white"/>
<path d="M36.6667 58.6667H60.1333V61.6001H36.6667V58.6667Z" fill="white"/>
<path d="M27.8667 67.4668H33.7333V70.4001H27.8667V67.4668Z" fill="white"/>
<path d="M36.6667 67.4668H60.1333V70.4001H36.6667V67.4668Z" fill="white"/>
<path d="M27.8667 49.8667H33.7333V52.8H27.8667V49.8667Z" fill="white"/>
<path d="M36.6667 49.8667H60.1333V52.8H36.6667V49.8667Z" fill="white"/>
<path d="M19.0667 43.9999H58.6666V41.0666H22V32.2666H58.6666V29.3333H19.0667V43.9999Z" fill="white"/>
</g>
<defs>
<clipPath id="clip0">
<rect width="88" height="88" fill="white"/>
</clipPath>
</defs>
</svg>
