<svg width="92" height="92" viewBox="0 0 92 92" fill="none" xmlns="http://www.w3.org/2000/svg">
<path d="M9.2 26.0667H12.2667V29.1333H9.2V26.0667Z" fill="white"/>
<path d="M15.3333 26.0667H39.8667V29.1333H15.3333V26.0667Z" fill="white"/>
<path d="M9.2 32.2H12.2667V35.2666H9.2V32.2Z" fill="white"/>
<path d="M15.3333 32.2H39.8667V35.2666H15.3333V32.2Z" fill="white"/>
<path d="M46 56.7335H9.2V38.3335H46V56.7335ZM12.2667 53.6668H42.9333V41.4002H12.2667V53.6668Z" fill="white"/>
<path d="M15.3333 59.8H46V62.8667H15.3333V59.8Z" fill="white"/>
<path d="M15.3333 65.9333H46V69H15.3333V65.9333Z" fill="white"/>
<path d="M9.2 72.0667H12.2667V75.1333H9.2V72.0667Z" fill="white"/>
<path d="M15.3333 72.0667H18.4V75.1333H15.3333V72.0667Z" fill="white"/>
<path d="M21.4667 72.0667H24.5333V75.1333H21.4667V72.0667Z" fill="white"/>
<path d="M27.6 72.0667H30.6667V75.1333H27.6V72.0667Z" fill="white"/>
<path d="M33.7333 72.0667H36.8V75.1333H33.7333V72.0667Z" fill="white"/>
<path d="M39.8667 72.0667H42.9333V75.1333H39.8667V72.0667Z" fill="white"/>
<path d="M46 72.0667H49.0667V75.1333H46V72.0667Z" fill="white"/>
<path d="M52.1333 72.0667H55.2V75.1333H52.1333V72.0667Z" fill="white"/>
<path d="M81.2667 9.19995C75.9359 9.20594 71.4175 13.1239 70.6561 18.4H0V82.7999H81.2667C87.1919 82.7932 91.9933 77.9918 92 72.0666V19.9333C91.9933 14.0081 87.1919 9.20669 81.2667 9.19995ZM73.6 19.9333C73.6 15.6994 77.0328 12.2666 81.2667 12.2666C85.5006 12.2666 88.9333 15.6994 88.9333 19.9333V64.5534C86.9163 62.4893 84.1521 61.3258 81.2667 61.3258C78.3812 61.3258 75.617 62.4893 73.6 64.5534V19.9333ZM81.2667 79.7333H3.06667V21.4666H70.5333V72.0666H73.6C73.6 67.8327 77.0328 64.3999 81.2667 64.3999C85.5006 64.3999 88.9333 67.8327 88.9333 72.0666C88.9333 76.3005 85.5006 79.7333 81.2667 79.7333Z" fill="white"/>
<path d="M58.2667 72.0667H61.3333V75.1333H58.2667V72.0667Z" fill="white"/>
<path d="M64.4 72.0667H67.4667V75.1333H64.4V72.0667Z" fill="white"/>
<path d="M49.0667 69.0002H67.4667V38.3335H49.0667V69.0002ZM52.1333 41.4002H64.4V65.9335H52.1333V41.4002Z" fill="white"/>
<path d="M52.1333 32.2H64.4V35.2666H52.1333V32.2Z" fill="white"/>
<path d="M52.1333 27.5999H64.4V30.6665H52.1333V27.5999Z" fill="white"/>
</svg>
