<svg width="122" height="122" viewBox="0 0 122 122" fill="none" xmlns="http://www.w3.org/2000/svg">
<g clip-path="url(#clip0)">
<path d="M111.777 24.4536H83.3249V14.2926C83.3182 8.68305 78.7726 4.13746 73.1638 4.13077H48.7751C43.1663 4.13746 38.6207 8.68305 38.614 14.2926V24.4536H10.1619C4.55228 24.4603 0.006697 29.0059 0 34.6155V107.779C0.006697 113.388 4.55228 117.934 10.1619 117.94H111.777C117.387 117.934 121.932 113.388 121.939 107.779V34.6155C121.932 29.0059 117.387 24.4603 111.777 24.4536ZM42.6783 14.2926C42.6783 10.9249 45.4081 8.19501 48.7751 8.19501H73.163C76.5308 8.19501 79.2598 10.9249 79.2598 14.2926V24.4536H75.1956V14.2926C75.1956 13.17 74.2856 12.2601 73.1638 12.2601H48.7751C47.6533 12.2601 46.7434 13.17 46.7434 14.2926V24.4536H42.6783V14.2926ZM50.8076 24.4536V16.3243H71.1313V24.4536H50.8076ZM4.06424 34.6155C4.06424 31.2486 6.7941 28.5187 10.1619 28.5187H111.777C115.145 28.5187 117.874 31.2486 117.874 34.6155V55.6457L71.1313 76.2105V71.197C71.1313 70.0744 70.2214 69.1645 69.0988 69.1645H52.8401C51.7176 69.1645 50.8076 70.0744 50.8076 71.197V76.2105L4.06424 55.6457V34.6155ZM67.0662 77.2938H54.8727V73.2295H67.0662V77.2938ZM54.8727 81.3589H67.0662V87.4556C67.0662 90.8226 64.3372 93.5524 60.9695 93.5524C57.6025 93.5524 54.8727 90.8226 54.8727 87.4556V81.3589ZM111.777 113.876H10.1619C6.7941 113.876 4.06424 111.146 4.06424 107.779V60.0867L50.8076 80.6532V87.4556C50.8076 93.0677 55.3574 97.6175 60.9695 97.6175C66.5815 97.6175 71.1313 93.0677 71.1313 87.4556V80.6532L117.874 60.0867V107.779C117.875 111.146 115.145 113.876 111.777 113.876Z" fill="#00A0E3"/>
<path d="M58.9369 85.4232H63.002V89.4882H58.9369V85.4232Z" fill="#00A0E3"/>
</g>
<defs>
<clipPath id="clip0">
<rect width="122" height="122" fill="white"/>
</clipPath>
</defs>
</svg>
