<svg width="86" height="86" viewBox="0 0 86 86" fill="none" xmlns="http://www.w3.org/2000/svg">
<path d="M10.0085 10.0281V84.5239C10.0085 85.3153 10.65 85.9567 11.4413 85.9567H65.8807C66.6714 85.9567 67.3128 85.3153 67.3128 84.5239V24.3547C67.3128 24.3228 67.2975 24.2956 67.2946 24.2644C67.2875 24.1387 67.2627 24.0148 67.2214 23.8961C67.2054 23.8501 67.1942 23.8059 67.1742 23.761C67.1045 23.6052 67.0078 23.463 66.8874 23.3414L52.5614 9.01551C52.4399 8.89454 52.2971 8.79776 52.1401 8.72872C52.097 8.71043 52.0534 8.69508 52.0085 8.68151C51.8887 8.6402 51.7642 8.61542 51.6373 8.60716C51.6132 8.61129 51.5848 8.59595 51.5547 8.59595H11.4413C10.65 8.59595 10.0085 9.2368 10.0085 10.0281ZM62.4221 22.9219H52.9869V13.4867L62.4221 22.9219ZM12.8735 11.4609H50.122V24.3547C50.122 25.1454 50.7634 25.7868 51.5541 25.7868H64.4479V83.0917H12.8735V11.4609Z" fill="white"/>
<path d="M70.1784 74.4958V77.3608H74.4761C75.2675 77.3608 75.9089 76.7199 75.9089 75.9286V1.43277C75.9089 0.641442 75.2675 0 74.4761 0H20.0367C19.2454 0 18.604 0.641442 18.604 1.43277V5.73049H21.4695V2.86495H73.0434V74.4958H70.1784Z" fill="white"/>
<path d="M21.4695 28.6523H55.8519V31.5173H21.4695V28.6523Z" fill="white"/>
<path d="M21.4695 20.0564H32.9305V22.9219H21.4695V20.0564Z" fill="white"/>
<path d="M21.4695 37.2478H44.3915V40.1133H21.4695V37.2478Z" fill="white"/>
<path d="M47.2564 37.2478H55.8519V40.1133H47.2564V37.2478Z" fill="white"/>
<path d="M21.4695 45.8433H55.8519V48.7088H21.4695V45.8433Z" fill="white"/>
<path d="M21.4695 63.0349H55.8519V65.9005H21.4695V63.0349Z" fill="white"/>
<path d="M34.3627 54.4395H55.8519V57.3044H34.3627V54.4395Z" fill="white"/>
<path d="M21.4695 54.4395H31.4977V57.3044H21.4695V54.4395Z" fill="white"/>
<path d="M21.4695 71.6309H27.2V74.4958H21.4695V71.6309Z" fill="white"/>
<path d="M30.0649 71.6309H55.8519V74.4958H30.0649V71.6309Z" fill="white"/>
</svg>
