<svg width="89" height="89" viewBox="0 0 89 89" fill="none" xmlns="http://www.w3.org/2000/svg">
<g clip-path="url(#clip0)">
<path d="M10.1601 18.7008C10.0474 18.7008 9.93266 18.6892 9.8213 18.6662C9.70994 18.6458 9.60062 18.6105 9.49605 18.567C9.39012 18.5236 9.28963 18.4699 9.19524 18.4074C9.10018 18.345 9.01123 18.2716 8.93111 18.1915C8.85098 18.1114 8.77833 18.0231 8.71586 17.9274C8.65339 17.8337 8.59907 17.7332 8.55561 17.6266C8.51215 17.5227 8.47752 17.4134 8.45647 17.302C8.43407 17.1906 8.42184 17.0759 8.42184 16.9625C8.42184 16.8498 8.43407 16.735 8.45647 16.6237C8.47752 16.5123 8.51215 16.403 8.55561 16.2971C8.59907 16.1925 8.65339 16.092 8.71586 15.9983C8.77833 15.9026 8.85098 15.8136 8.93111 15.7342C9.01123 15.654 9.10018 15.5807 9.19524 15.5169C9.28963 15.4537 9.39012 15.4001 9.49605 15.3566C9.60062 15.3132 9.70994 15.2799 9.8213 15.2575C10.0454 15.2127 10.2749 15.2127 10.499 15.2575C10.6103 15.2799 10.7196 15.3132 10.8242 15.3566C10.9301 15.4001 11.0313 15.4537 11.125 15.5169C11.2208 15.5807 11.309 15.654 11.3891 15.7342C11.4693 15.8136 11.5419 15.9026 11.6044 15.9983C11.6675 16.092 11.7212 16.1925 11.7646 16.2971C11.8081 16.403 11.8427 16.5123 11.8638 16.6237C11.8862 16.735 11.8984 16.8498 11.8984 16.9625C11.8984 17.4202 11.7124 17.8683 11.3891 18.1915C11.309 18.2716 11.2208 18.345 11.125 18.4074C11.0313 18.4699 10.9301 18.5236 10.8242 18.567C10.7196 18.6105 10.6103 18.6458 10.499 18.6662C10.3876 18.6892 10.2735 18.7008 10.1601 18.7008Z" fill="white"/>
<path d="M87.0716 10.9736H18.895C17.1601 7.85282 13.8282 5.73633 10.0114 5.73633C7.29873 5.73633 4.66211 6.85195 2.77852 8.79666C0.911224 10.7257 -0.0733506 13.2537 0.00405731 15.9182V72.4993C-0.00137482 72.6928 -0.00137482 72.8877 0.00405731 73.0826C-0.048906 75.7436 0.966903 78.277 2.86611 80.219C4.8244 82.2214 7.55133 83.3697 10.3468 83.3697H87.2618C88.2219 83.3697 89 82.5915 89 81.6314V12.902C89 11.8387 88.135 10.9736 87.0716 10.9736V10.9736ZM5.27594 11.2153C6.52669 9.92382 8.20794 9.21289 10.0114 9.21289C13.6944 9.21289 16.6909 12.2094 16.6909 15.8924V65.4144C15.3553 64.2458 13.7107 63.4208 11.8984 63.0786V23.8681C11.8984 22.908 11.1202 22.1298 10.1601 22.1298C9.19998 22.1298 8.42183 22.908 8.42183 23.8681V63.0304C6.60478 63.3237 4.88551 64.1127 3.48062 65.3058V15.8924C3.48062 15.8734 3.48062 15.855 3.47994 15.8367C3.42426 14.11 4.06254 12.4688 5.27594 11.2153V11.2153ZM85.5235 79.8931H10.3468C8.48022 79.8931 6.65978 79.1258 5.35199 77.7881C4.10668 76.515 3.44192 74.8643 3.48062 73.1382C3.48062 73.1185 3.48062 73.0982 3.48062 73.0785C3.48062 73.0717 3.48062 73.0649 3.48062 73.0588V72.5624C3.53766 70.9986 4.16575 69.5279 5.27594 68.3817C6.52669 67.0902 8.20794 66.3793 10.0114 66.3793C13.6944 66.3793 16.6909 69.3758 16.6909 73.0588C16.6909 74.0189 17.469 74.7971 18.4292 74.7971C19.3893 74.7971 20.1675 74.0189 20.1675 73.0588V15.8924C20.1675 15.4028 20.1328 14.9214 20.0656 14.4501H85.5235V79.8931Z" fill="white"/>
<path d="M25.7272 74.797H77.7005C77.1845 75.478 77.2368 76.4524 77.8581 77.0737C78.1976 77.4132 78.6423 77.583 79.0878 77.583C79.5325 77.583 79.9773 77.4132 80.3168 77.0737L83.1028 74.2877C83.4287 73.9618 83.6114 73.5198 83.6114 73.0587C83.6114 72.5977 83.4287 72.1556 83.1028 71.8297L80.3168 69.0437C79.6378 68.3647 78.5371 68.3647 77.8581 69.0437C77.2368 69.665 77.1845 70.6387 77.7005 71.3204H25.7272C24.7678 71.3204 23.989 72.0986 23.989 73.0587C23.989 74.0188 24.7678 74.797 25.7272 74.797V74.797Z" fill="white"/>
<path d="M29.5324 44.119H32.3252V66.4451C32.3252 67.4052 33.1034 68.1834 34.0635 68.1834H69.8932C70.8533 68.1834 71.6314 67.4052 71.6314 66.4451V44.119H74.4242C75.1284 44.119 75.7626 43.6946 76.0308 43.0441C76.2997 42.3936 76.1496 41.6453 75.6512 41.149L53.2057 18.7863C52.5273 18.1106 51.43 18.1106 50.7517 18.7863L43.7639 25.7482V23.8673C43.7639 22.9072 42.9858 22.1291 42.0257 22.1291H35.2463C34.2862 22.1291 33.5081 22.9072 33.5081 23.8673V35.9654L28.3054 41.149C27.807 41.6453 27.657 42.3936 27.9259 43.0441C28.1948 43.6946 28.829 44.119 29.5324 44.119V44.119ZM49.0087 64.7068V55.5054H54.9487V64.7068H49.0087ZM68.1549 64.7068H58.4246V53.7672C58.4246 52.807 57.6464 52.0289 56.6863 52.0289H47.2704C46.3102 52.0289 45.5321 52.807 45.5321 53.7672V64.7068H35.8018V44.119H68.1549V64.7068ZM51.9787 22.472L70.2171 40.6424H33.7403L51.9787 22.472ZM36.9846 25.6063H40.2874V29.2119L36.9846 32.5024V25.6063Z" fill="white"/>
</g>
<defs>
<clipPath id="clip0">
<rect width="89" height="89" fill="white"/>
</clipPath>
</defs>
</svg>
