<svg width="28" height="28" viewBox="0 0 28 28" fill="none" xmlns="http://www.w3.org/2000/svg">
<path d="M14 27.8594L13.5199 27.1647C13.1588 26.6414 4.66666 14.2911 4.66666 9.33333C4.66666 4.18717 8.85382 0 14 0C19.1462 0 23.3333 4.18717 23.3333 9.33333C23.3333 14.2911 14.8412 26.6414 14.4801 27.1647L14 27.8594ZM14 1.16667C9.49666 1.16667 5.83332 4.83 5.83332 9.33333C5.83332 13.2924 12.1829 23.0738 14 25.7915C15.8171 23.0738 22.1667 13.2924 22.1667 9.33333C22.1667 4.83 18.5033 1.16667 14 1.16667Z" fill="white"/>
<path d="M14 13.4167C11.7489 13.4167 9.91666 11.585 9.91666 9.33333C9.91666 7.08167 11.7489 5.25 14 5.25C16.2511 5.25 18.0833 7.08167 18.0833 9.33333C18.0833 11.585 16.2511 13.4167 14 13.4167ZM14 6.41667C12.3917 6.41667 11.0833 7.72508 11.0833 9.33333C11.0833 10.9416 12.3917 12.25 14 12.25C15.6082 12.25 16.9167 10.9416 16.9167 9.33333C16.9167 7.72508 15.6082 6.41667 14 6.41667Z" fill="white"/>
</svg>
