<?xml version="1.0" encoding="utf-8"?>
<!-- Generator: Adobe Illustrator 19.0.0, SVG Export Plug-In . SVG Version: 6.00 Build 0)  -->
<svg version="1.1" id="Слой_1" xmlns="http://www.w3.org/2000/svg" xmlns:xlink="http://www.w3.org/1999/xlink" x="0px" y="0px"
	 viewBox="0 0 28.1 28" style="enable-background:new 0 0 28.1 28;" xml:space="preserve">
<g id="PbmU3Z.tif">
	<g id="XMLID_1_">
		<g id="XMLID_23_">
			<path id="XMLID_32_" d="M0.1,27.9c0-5.3,0-10.6,0-16c1-0.9,2-1.8,3.1-2.6c0.1-0.1,0.2-0.2,0.2-0.4c0-0.7,0-1.4,0-2.1
				c0-0.3,0.1-0.5,0.3-0.6C4.7,5,5.9,3.8,7,2.6c0.2-0.2,0.4-0.3,0.7-0.3c1.1,0,2.1,0,3.2,0c0.2,0,0.3,0,0.4-0.1
				C12.2,1.5,13,0.8,13.9,0c0.1,0,0.2,0,0.3,0c0.8,0.7,1.7,1.4,2.5,2.2c0.2,0.1,0.3,0.2,0.5,0.2c2.3,0,4.6,0,6.9,0
				c0.6,0,0.7,0.1,0.7,0.7c0,1.9,0,3.8,0,5.7c0,0.3,0.1,0.4,0.3,0.6c0.9,0.8,1.8,1.6,2.7,2.4c0.2,0.1,0.3,0.3,0.3,0.5
				c0,5.1,0,10.2,0,15.2c0,0.4-0.1,0.4-0.4,0.4c-9.1,0-18.1,0-27.2,0C0.3,28,0.2,28,0.1,27.9z M15.9,3.3c-2.5,0-5,0-7.5,0
				C8,3.3,8,3.3,8,3.8c0,0.9,0,1.8,0,2.7C8,6.9,7.8,7,7.4,7c-1,0-1.9,0-2.9,0C4.3,7,4.2,7.1,4.2,7.3c0,2.4,0,4.8,0,7.2
				c0,0.2,0,0.3,0.2,0.4c2.1,1.8,4.2,3.6,6.3,5.5c0.2,0.1,0.3,0.2,0.5,0.2c1.8,0,3.7,0,5.5,0c0.3,0,0.5-0.1,0.7-0.3
				c2.1-1.8,4.1-3.6,6.2-5.4c0.2-0.1,0.2-0.3,0.2-0.5c0-3.6,0-7.2,0-10.8c0-0.3,0-0.4-0.4-0.4C21,3.3,18.5,3.3,15.9,3.3z M25.8,27.1
				c0-0.1-0.1-0.1-0.1-0.1c-2.8-1.8-5.6-3.5-8.4-5.3c-0.1-0.1-0.3-0.1-0.4-0.1c-1.9,0-3.9,0-5.8,0c-0.2,0-0.3,0-0.5,0.1
				c-2.4,1.5-4.7,3-7.1,4.5c-0.5,0.3-0.9,0.6-1.5,0.9C10.1,27.1,18,27.1,25.8,27.1z M27.1,13.2c-3.1,2.6-6,5.2-9,7.8
				c0.1,0.1,0.2,0.1,0.3,0.2c2.8,1.8,5.6,3.6,8.4,5.3c0.1,0.1,0.2,0.2,0.3,0.1c0.1-0.1,0-0.2,0-0.3c0-4.3,0-8.5,0-12.8
				C27.1,13.5,27.1,13.4,27.1,13.2z M1,13.2c0,4.5,0,9,0,13.5c3-1.9,6-3.8,9-5.7C7,18.4,4,15.9,1,13.2z M24.8,14
				c0.7-0.6,1.3-1.1,1.9-1.6c0.2-0.2,0.1-0.2,0-0.4c-0.6-0.5-1.1-1-1.7-1.4c-0.1,0-0.1-0.1-0.2-0.1C24.8,11.6,24.8,12.8,24.8,14z
				 M3.3,10.4C2.6,11,2,11.5,1.3,12.1c-0.1,0.1-0.1,0.2,0,0.2c0.2,0.2,0.4,0.3,0.6,0.5c0.4,0.4,0.9,0.7,1.3,1.1
				C3.3,12.8,3.3,11.6,3.3,10.4z M5,6.1c0.4,0,0.7,0,1.1,0c0.3,0,0.7,0.1,0.9-0.1C7.2,5.9,7,5.4,7,5.1C7,4.8,7,4.4,7,4
				C6.3,4.7,5.7,5.4,5,6.1z M15.5,2.4c-0.5-0.4-0.9-0.8-1.3-1.1c-0.1-0.1-0.2,0-0.3,0c-0.4,0.3-0.7,0.6-1.1,0.9
				c-0.1,0-0.1,0.1-0.1,0.2C13.6,2.4,14.5,2.4,15.5,2.4z"/>
			<path id="XMLID_31_" d="M15.9,13.1c-1.6,0-3.2,0-4.8,0c-0.3,0-0.4-0.1-0.3-0.3c0-0.6,0-0.6,0.6-0.6c3.1,0,6.2,0,9.3,0
				c0.3,0,0.4,0.1,0.4,0.4c0,0.6,0,0.6-0.6,0.6C19,13.1,17.4,13.1,15.9,13.1z"/>
			<path id="XMLID_30_" d="M17.1,10.3c-1.2,0-2.5,0-3.7,0c-0.2,0-0.3-0.1-0.3-0.3c0-0.7,0-0.7,0.6-0.7c2.3,0,4.6,0,7,0
				c0.3,0,0.4,0.1,0.4,0.4c0,0.6,0,0.6-0.6,0.6C19.3,10.3,18.2,10.3,17.1,10.3z"/>
			<path id="XMLID_29_" d="M11.2,15.9c-1.3,0-2.6,0-3.9,0c-0.2,0-0.3-0.1-0.3-0.3C7,15,7,15,7.6,15c2.5,0,5,0,7.5,0
				c0.3,0,0.3,0.1,0.3,0.3c0,0.6,0,0.6-0.6,0.6C13.6,15.9,12.4,15.9,11.2,15.9z"/>
			<path id="XMLID_28_" d="M14,17.8c1.1,0,2.3,0,3.4,0c0.2,0,0.3,0.1,0.3,0.3c0,0.6,0,0.6-0.6,0.6c-2.2,0-4.4,0-6.5,0
				c-0.3,0-0.3-0.1-0.3-0.3c0-0.6,0-0.6,0.6-0.6C12,17.8,13,17.8,14,17.8z"/>
			<path id="XMLID_27_" d="M9.6,10.3c-0.8,0-1.5,0-2.3,0c-0.2,0-0.3-0.1-0.3-0.3c0-0.7,0-0.7,0.7-0.7c1.4,0,2.8,0,4.2,0
				c0.2,0,0.3,0.1,0.3,0.3c0,0.7,0,0.7-0.7,0.7C10.9,10.3,10.2,10.3,9.6,10.3z"/>
			<path id="XMLID_26_" d="M18.7,15.9c-0.7,0-1.4,0-2.1,0c-0.2,0-0.2,0-0.2-0.2c0-0.7,0-0.7,0.7-0.7c1.2,0,2.5,0,3.7,0
				c0.2,0,0.3,0.1,0.3,0.3c0,0.6,0,0.6-0.6,0.6C19.9,15.9,19.3,15.9,18.7,15.9z"/>
			<path id="XMLID_25_" d="M19.2,7.5c-0.5,0-1.1,0-1.6,0c-0.2,0-0.3-0.1-0.3-0.3c0-0.7,0-0.7,0.7-0.7c0.9,0,1.9,0,2.8,0
				c0.2,0,0.3,0,0.3,0.3c0,0.7,0,0.7-0.6,0.7C20,7.5,19.6,7.5,19.2,7.5z"/>
			<path id="XMLID_24_" d="M8.4,12.2c0.4,0,0.8,0,1.1,0c0.2,0,0.3,0,0.3,0.2c0,0.9,0.1,0.7-0.7,0.7c-0.6,0-1.3,0-1.9,0
				c-0.2,0-0.2,0-0.2-0.2c0-0.7,0-0.7,0.7-0.7C7.9,12.2,8.2,12.2,8.4,12.2z"/>
		</g>
	</g>
</g>
</svg>
