<svg width="50" height="50" viewBox="0 0 50 50" fill="none" xmlns="http://www.w3.org/2000/svg">
<g clip-path="url(#clip0)">
<path d="M48.4771 22.4178C48.4133 22.4178 48.3489 22.4113 48.2863 22.3984C48.2238 22.3858 48.1623 22.3671 48.104 22.3427C48.0445 22.3183 47.9876 22.2881 47.935 22.253C47.8812 22.2179 47.8312 22.1767 47.7866 22.1317C47.7416 22.0871 47.7004 22.0364 47.6653 21.9833C47.6302 21.9295 47.6001 21.8731 47.5756 21.8143C47.5512 21.756 47.5318 21.6946 47.5199 21.632C47.5074 21.5683 47.5005 21.505 47.5005 21.4413C47.5005 21.3772 47.5074 21.3135 47.5199 21.2501C47.5318 21.1876 47.5512 21.1269 47.5756 21.0674C47.6001 21.0087 47.6302 20.9522 47.6653 20.8996C47.7004 20.8458 47.7416 20.7958 47.7866 20.75C47.8312 20.705 47.8812 20.6642 47.935 20.6291C47.9876 20.594 48.0445 20.5635 48.104 20.5391C48.1623 20.5147 48.2241 20.4964 48.2863 20.4834C48.4126 20.4582 48.5411 20.4582 48.6674 20.4834C48.73 20.4964 48.7914 20.5147 48.8509 20.5391C48.9096 20.5635 48.9661 20.594 49.0187 20.6291C49.0725 20.6642 49.1225 20.705 49.1675 20.75C49.2121 20.7962 49.2533 20.8458 49.2896 20.8996C49.3247 20.9522 49.3548 21.0087 49.3792 21.0674C49.4036 21.1269 49.4223 21.1876 49.4349 21.2501C49.4475 21.3135 49.4536 21.3772 49.4536 21.4413C49.4536 21.505 49.4475 21.5683 49.4349 21.632C49.4223 21.6946 49.4036 21.756 49.3792 21.8143C49.3548 21.8731 49.3247 21.9295 49.2896 21.9833C49.2533 22.0364 49.2121 22.0871 49.1675 22.1317C49.1225 22.1767 49.0725 22.2179 49.0187 22.253C48.9661 22.2881 48.9096 22.3183 48.8509 22.3427C48.7914 22.3671 48.73 22.3858 48.6674 22.3984C48.6048 22.4113 48.5404 22.4178 48.4771 22.4178Z" fill="#00A0E3"/>
<path d="M34.2454 23.8915H26.6118C26.0728 23.8915 25.6353 23.4543 25.6353 22.9149V17.96C25.6353 15.3782 27.736 13.2778 30.3174 13.2778H30.5398C33.1216 13.2778 35.222 15.3782 35.222 17.96V22.9149C35.222 23.4543 34.7848 23.8915 34.2454 23.8915ZM27.5884 21.9383H33.2688V17.96C33.2688 16.4555 32.0447 15.231 30.5402 15.231H30.3174C28.8129 15.231 27.5888 16.4555 27.5888 17.96V21.9383H27.5884Z" fill="#00A0E3"/>
<path d="M48.4768 24.7849C47.9374 24.7849 47.5003 25.2221 47.5003 25.7615V40.4523H10.1429V1.16086C10.1429 0.62146 9.70536 0.184296 9.16634 0.184296H1.66016C1.12076 0.184296 0.683594 0.62146 0.683594 1.16086V48.9259C0.683594 49.4653 1.12076 49.9024 1.66016 49.9024H48.4768C49.0159 49.9024 49.4534 49.4653 49.4534 48.9259V25.7615C49.4534 25.2221 49.0162 24.7849 48.4768 24.7849ZM2.63672 2.13742H8.18978V8.51904H6.92826C6.38886 8.51904 5.9517 8.9562 5.9517 9.4956C5.9517 10.035 6.38886 10.4722 6.92826 10.4722H8.18978V17.0464H6.92826C6.38886 17.0464 5.9517 17.484 5.9517 18.023C5.9517 18.5624 6.38886 18.9995 6.92826 18.9995H8.18978V25.5738H6.92826C6.38886 25.5738 5.9517 26.011 5.9517 26.5504C5.9517 27.0898 6.38886 27.5269 6.92826 27.5269H8.18978V34.1012H6.92826C6.38886 34.1012 5.9517 34.5384 5.9517 35.0778C5.9517 35.6172 6.38886 36.0543 6.92826 36.0543H8.18978V42.6286H6.92826C6.38886 42.6286 5.9517 43.0661 5.9517 43.6051C5.9517 44.1445 6.38886 44.5817 6.92826 44.5817H8.18978V47.9493H2.63672V2.13742ZM47.5003 47.9493H10.1429V42.4054H14.5481V43.6643C14.5481 44.2033 14.9853 44.6408 15.5247 44.6408C16.0641 44.6408 16.5013 44.2033 16.5013 43.6643V42.4054H23.0858V43.6643C23.0858 44.2033 23.523 44.6408 24.0624 44.6408C24.6018 44.6408 25.0389 44.2033 25.0389 43.6643V42.4054H31.6235V43.6643C31.6235 44.2033 32.061 44.6408 32.6 44.6408C33.1395 44.6408 33.5766 44.2033 33.5766 43.6643V42.4054H40.1612V43.6643C40.1612 44.2033 40.5987 44.6408 41.1377 44.6408C41.6771 44.6408 42.1143 44.2033 42.1143 43.6643V42.4054H47.5003V47.9493Z" fill="#00A0E3"/>
<path d="M15.427 20.076C15.7864 20.443 16.3681 20.4689 16.7587 20.1363L17.4629 19.5362V37.0312C17.4629 37.5702 17.9005 38.0078 18.4395 38.0078H42.418C42.957 38.0078 43.3945 37.5702 43.3945 37.0312V19.5362L44.0987 20.1363C44.2818 20.2927 44.5073 20.3697 44.7319 20.3697C44.986 20.3697 45.2397 20.2706 45.43 20.076L48.5364 16.9003C48.7237 16.7088 48.824 16.4486 48.8141 16.1812C48.8041 15.9138 48.6847 15.6616 48.4837 15.4846L31.0742 0.146103C30.7053 -0.178909 30.1522 -0.178909 29.7833 0.146103L12.3737 15.4846C12.1727 15.6616 12.0533 15.9138 12.0434 16.1812C12.0335 16.4486 12.1338 16.7088 12.3211 16.9003L15.427 20.076ZM27.5883 36.0546V29.3473H33.2688V36.0546H27.5883ZM41.4414 36.0546H35.2219V28.3707C35.2219 27.8313 34.7847 27.3941 34.2453 27.3941H26.6117C26.0727 27.3941 25.6352 27.8313 25.6352 28.3707V36.0546H19.4161V17.8715L30.4287 8.48656L41.4414 17.8715V36.0546ZM30.4287 2.18048L46.4207 16.2701L44.6717 18.0584L31.062 6.4602C30.6969 6.14892 30.1602 6.14892 29.7951 6.4602L16.1858 18.0584L14.4367 16.2701L30.4287 2.18048Z" fill="#00A0E3"/>
</g>
<defs>
<clipPath id="clip0">
<rect width="50" height="50" fill="white"/>
</clipPath>
</defs>
</svg>
