<svg width="50" height="50" viewBox="0 0 50 50" fill="none" xmlns="http://www.w3.org/2000/svg">
<g clip-path="url(#clip0)">
<path d="M40.8332 18.3333C35.7705 18.3333 31.6665 14.2293 31.6665 9.16667C31.6665 4.104 35.7705 0 40.8332 0C45.8958 0 49.9998 4.104 49.9998 9.16667C49.9937 14.2269 45.8934 18.3272 40.8332 18.3333ZM40.8332 1.66667C36.6909 1.66667 33.3332 5.02441 33.3332 9.16667C33.3332 13.3089 36.6909 16.6667 40.8332 16.6667C44.9754 16.6667 48.3332 13.3089 48.3332 9.16667C48.3287 5.02645 44.9734 1.67114 40.8332 1.66667Z" fill="#00A0E3"/>
<path d="M39.9998 13.6783L35.8755 9.554L37.0539 8.37561L39.9998 11.3216L45.303 6.01843L46.4814 7.19682L39.9998 13.6783Z" fill="#00A0E3"/>
<path d="M41.6667 20H40V43.3333H9.62485C9.5512 42.301 9.09506 41.333 8.34596 40.6193L8.32765 40.6034C8.0302 40.3036 8.0302 39.8197 8.32765 39.5199L10.3032 37.5444C11.2793 36.5678 11.2793 34.9854 10.3032 34.0092L9.71152 33.4176C9.11134 32.8227 8.16082 32.7718 7.50001 33.2983V15H15.8333V6.66667H30.8333V5H14.655L5.83334 13.8216V29.655L0.732434 34.7559C0.262056 35.2234 -0.00202283 35.8598 1.1669e-05 36.5234V50H1.66668V36.5234C1.66668 36.3025 1.75457 36.0905 1.91082 35.9342L5.83334 32.0117V34.9382L2.88575 37.8857L4.06414 39.0641L8.53354 34.5951L9.12355 35.186C9.44866 35.5111 9.44866 36.0388 9.12355 36.3643L7.14764 38.3398C6.68336 38.8045 6.42661 39.4373 6.43597 40.094C6.44492 40.7507 6.71917 41.3757 7.19606 41.8274L7.22006 41.8502C8.15309 42.7437 8.24545 44.2033 7.43247 45.2075L6.01604 46.9792L7.31772 48.0208L8.73414 46.2484C9.02915 45.874 9.2562 45.4509 9.40594 44.9984H11.7232C11.6793 45.0659 11.6492 45.14 11.5983 45.2035L10 47.2074V50H11.6667V47.7926L12.8992 46.25C13.1987 45.8765 13.4302 45.4533 13.5832 45H41.6667V20ZM8.6784 13.3333L14.1667 7.84505V13.3333H8.6784Z" fill="#00A0E3"/>
<path d="M15.8333 33.3334H19.1666V35H15.8333V33.3334Z" fill="#00A0E3"/>
<path d="M20.8335 33.3334H34.1668V35H20.8335V33.3334Z" fill="#00A0E3"/>
<path d="M15.8333 38.3334H19.1666V40H15.8333V38.3334Z" fill="#00A0E3"/>
<path d="M20.8335 38.3334H34.1668V40H20.8335V38.3334Z" fill="#00A0E3"/>
<path d="M15.8333 28.3334H19.1666V30H15.8333V28.3334Z" fill="#00A0E3"/>
<path d="M20.8335 28.3334H34.1668V30H20.8335V28.3334Z" fill="#00A0E3"/>
<path d="M10.8333 25H33.3333V23.3333H12.4999V18.3333H33.3333V16.6666H10.8333V25Z" fill="#00A0E3"/>
</g>
<defs>
<clipPath id="clip0">
<rect width="50" height="50" fill="white"/>
</clipPath>
</defs>
</svg>
