<svg width="50" height="50" viewBox="0 0 50 50" fill="none" xmlns="http://www.w3.org/2000/svg">
<g clip-path="url(#clip0)">
<path d="M5.70787 10.506C5.64455 10.506 5.58008 10.4995 5.51752 10.4866C5.45496 10.474 5.39354 10.4553 5.33479 10.4309C5.27528 10.4065 5.21883 10.3763 5.16618 10.3412C5.1124 10.3061 5.06242 10.2649 5.01741 10.2199C4.97278 10.1749 4.93158 10.1253 4.89534 10.0715C4.86024 10.0189 4.83087 9.96244 4.80646 9.90254C4.78204 9.84418 4.76259 9.78276 4.75114 9.7202C4.73817 9.65764 4.73169 9.59317 4.73169 9.52947C4.73169 9.46614 4.73817 9.40167 4.75114 9.33911C4.76259 9.27655 4.78204 9.21514 4.80646 9.15563C4.83087 9.09688 4.86024 9.04042 4.89534 8.98778C4.93158 8.93399 4.97278 8.88402 5.01741 8.83939C5.06242 8.79437 5.1124 8.75317 5.16618 8.71808C5.21883 8.68184 5.27528 8.65285 5.33479 8.62843C5.39354 8.60402 5.45496 8.58418 5.51752 8.57274C5.6434 8.54718 5.77234 8.54642 5.89822 8.57274C5.96079 8.58418 6.02258 8.60402 6.08095 8.62843C6.14046 8.65285 6.1973 8.68184 6.24994 8.71808C6.30373 8.75317 6.35332 8.79437 6.39833 8.83939C6.44334 8.88402 6.48416 8.93399 6.51926 8.98778C6.55473 9.04042 6.58487 9.09688 6.60928 9.15563C6.6337 9.21514 6.65315 9.27655 6.66498 9.33911C6.67757 9.40167 6.68443 9.46614 6.68443 9.52947C6.68443 9.59317 6.67757 9.65764 6.66498 9.7202C6.65315 9.78276 6.6337 9.84418 6.60928 9.90254C6.58487 9.96244 6.55473 10.0189 6.51926 10.0715C6.48416 10.1253 6.44334 10.1749 6.39833 10.2199C6.35332 10.2649 6.30373 10.3061 6.24994 10.3412C6.1973 10.3763 6.14046 10.4065 6.08095 10.4309C6.0222 10.4553 5.96079 10.474 5.89822 10.4866C5.83566 10.4995 5.77158 10.506 5.70787 10.506Z" fill="#00A0E3"/>
<path d="M31.0039 15.7719C30.9406 15.7719 30.8757 15.7662 30.8136 15.7532C30.751 15.7406 30.6892 15.7219 30.6308 15.6975C30.5713 15.6731 30.5145 15.643 30.4618 15.6079C30.4081 15.5716 30.3585 15.5308 30.3134 15.4858C30.2684 15.4408 30.2276 15.3912 30.1925 15.3374C30.1574 15.2848 30.1269 15.2279 30.1025 15.1692C30.0781 15.1097 30.0598 15.0494 30.0468 14.9868C30.0342 14.9231 30.0273 14.8598 30.0273 14.7953C30.0273 14.5386 30.1319 14.2864 30.3134 14.1049C30.3585 14.0599 30.4084 14.019 30.4622 13.9839C30.5149 13.9485 30.5713 13.9183 30.6308 13.8939C30.6896 13.8695 30.751 13.8508 30.8136 13.8382C30.9394 13.813 31.0695 13.813 31.1954 13.8382C31.2568 13.8508 31.3186 13.8695 31.3781 13.8939C31.4365 13.9183 31.4933 13.9485 31.546 13.9839C31.5998 14.019 31.6494 14.0599 31.6944 14.1049C31.8759 14.2864 31.9805 14.5386 31.9805 14.7953C31.9805 14.8598 31.9747 14.9231 31.9622 14.9868C31.9496 15.0494 31.9309 15.1097 31.9065 15.1692C31.882 15.2279 31.8519 15.2848 31.8164 15.3374C31.7806 15.3912 31.7394 15.4408 31.6944 15.4858C31.6497 15.5308 31.5998 15.5716 31.546 15.6079C31.4933 15.643 31.4369 15.6731 31.3781 15.6975C31.3186 15.7219 31.2568 15.7406 31.1954 15.7532C31.1317 15.7662 31.0672 15.7719 31.0039 15.7719Z" fill="#00A0E3"/>
<path d="M48.9167 6.16487H10.6153C9.6406 4.41164 7.76873 3.2226 5.62449 3.2226C4.10051 3.2226 2.61927 3.84935 1.56107 4.94188C0.512026 6.02564 -0.0411053 7.44585 0.00238225 8.94312V40.7299C-0.000669504 40.8386 -0.000669504 40.9477 0.00238225 41.0576C-0.0273724 42.5522 0.543307 43.9758 1.61028 45.0668C2.71044 46.1918 4.24204 46.8368 5.81293 46.8368H49.0236C49.563 46.8368 50.0001 46.3997 50.0001 45.8603V7.24825C50.0001 6.65087 49.5141 6.16487 48.9167 6.16487ZM2.96411 6.30068C3.66678 5.57512 4.6113 5.17572 5.62449 5.17572C7.69358 5.17572 9.377 6.85877 9.377 8.92824V36.7496C8.62627 36.0927 7.70273 35.6292 6.68459 35.4374V13.409C6.68459 12.8696 6.24743 12.4324 5.70803 12.4324C5.16901 12.4324 4.73146 12.8696 4.73146 13.409V35.4103C3.71065 35.5751 2.74477 36.0183 1.95551 36.6886V8.92824C1.95551 8.91756 1.95551 8.90726 1.95513 8.89696C1.92385 7.92688 2.28205 7.00487 2.96411 6.30068ZM48.047 44.8837H5.81293C4.76427 44.8837 3.74155 44.4526 3.00684 43.7011C2.30722 42.9859 1.93376 42.0585 1.95551 41.0888C1.95551 41.0782 1.95551 41.0675 1.95551 41.0564C1.95551 41.0526 1.95551 41.0484 1.95551 41.0442V40.7654C1.98755 39.8868 2.34041 39.0606 2.96411 38.4166C3.66678 37.6911 4.6113 37.2917 5.62449 37.2917C7.69358 37.2917 9.377 38.9751 9.377 41.0442C9.377 41.5836 9.81417 42.0208 10.3536 42.0208C10.893 42.0208 11.3301 41.5836 11.3301 41.0442V8.92824C11.3301 8.6532 11.3107 8.38274 11.2729 8.118H48.047V44.8837Z" fill="#00A0E3"/>
<path d="M16.5962 28.318H31.0039C31.5433 28.318 31.9805 27.8809 31.9805 27.3415C31.9805 27.2945 31.9771 27.2484 31.9706 27.203C31.9771 27.1576 31.9805 27.1114 31.9805 27.0641V18.9945C31.9805 18.4551 31.5433 18.018 31.0039 18.018C30.4649 18.018 30.0274 18.4551 30.0274 18.9945V26.3649H26.2516V23.4955C26.2516 22.9561 25.8144 22.5189 25.275 22.5189C22.9908 22.5189 21.0884 24.1844 20.7184 26.3649H17.5728V12.3062H24.2985V17.1864H20.2785C19.7391 17.1864 19.302 17.6239 19.302 18.1629C19.302 18.7023 19.7391 19.1395 20.2785 19.1395H25.275C25.8144 19.1395 26.2516 18.7023 26.2516 18.1629V12.3062H37.1124C37.5084 14.1388 38.9938 15.5708 40.8546 15.8867V18.8473H35.7563C35.2169 18.8473 34.7797 19.2848 34.7797 19.8238C34.7797 20.3632 35.2169 20.8004 35.7563 20.8004H40.8546V26.3653H36.2446C35.7052 26.3653 35.268 26.8025 35.268 27.3419C35.268 27.8809 35.7052 28.3184 36.2446 28.3184H41.8312C42.3706 28.3184 42.8078 27.8809 42.8078 27.3419V11.3297C42.8078 10.7903 42.3706 10.3531 41.8312 10.3531H16.5962C16.0568 10.3531 15.6196 10.7903 15.6196 11.3297V27.3415C15.6196 27.8809 16.0568 28.318 16.5962 28.318ZM24.2985 24.6571V26.3649H22.7211C22.9591 25.5844 23.5454 24.9542 24.2985 24.6571ZM40.8546 12.3062V13.8836C40.0741 13.6459 39.444 13.0592 39.1468 12.3062H40.8546Z" fill="#00A0E3"/>
<path d="M41.8312 36.9548H16.5962C16.0568 36.9548 15.6196 36.5176 15.6196 35.9782V32.1582C15.6196 31.6188 16.0568 31.1816 16.5962 31.1816H41.8312C42.3706 31.1816 42.8078 31.6188 42.8078 32.1582V35.9782C42.8078 36.5176 42.3706 36.9548 41.8312 36.9548ZM17.5728 35.0017H40.8546V33.1348H17.5728V35.0017Z" fill="#00A0E3"/>
<path d="M41.8311 41.5325C41.7673 41.5325 41.7029 41.5268 41.6403 41.5142C41.5778 41.5013 41.5163 41.4829 41.458 41.4585C41.3985 41.4341 41.3416 41.4036 41.289 41.3685C41.2352 41.3323 41.1856 41.2914 41.1406 41.2464C40.959 41.0649 40.8545 40.8131 40.8545 40.556C40.8545 40.4926 40.861 40.4282 40.8739 40.3656C40.8865 40.3031 40.9052 40.2416 40.9296 40.1829C40.9541 40.1234 40.9842 40.0669 41.0193 40.0139C41.0544 39.9605 41.0956 39.9105 41.1406 39.8655C41.1852 39.8209 41.2352 39.7797 41.289 39.7446C41.3416 39.7095 41.3981 39.679 41.458 39.6546C41.5163 39.6301 41.5778 39.6118 41.6403 39.5989C41.9577 39.5344 42.2945 39.6389 42.5211 39.8655C42.7031 40.0471 42.8076 40.2992 42.8076 40.556C42.8076 40.8131 42.7031 41.0649 42.5211 41.2464C42.3396 41.428 42.0878 41.5325 41.8311 41.5325Z" fill="#00A0E3"/>
<path d="M37.632 41.5325H16.5962C16.0568 41.5325 15.6196 41.0954 15.6196 40.556C15.6196 40.017 16.0568 39.5794 16.5962 39.5794H37.632C38.1714 39.5794 38.6085 40.017 38.6085 40.556C38.6085 41.0954 38.1714 41.5325 37.632 41.5325Z" fill="#00A0E3"/>
</g>
<defs>
<clipPath id="clip0">
<rect width="50" height="50" fill="white"/>
</clipPath>
</defs>
</svg>
