<svg width="93" height="93" viewBox="0 0 93 93" fill="none" xmlns="http://www.w3.org/2000/svg">
<g clip-path="url(#clip0)">
<path d="M10.6168 19.5413C10.499 19.5413 10.3791 19.5292 10.2627 19.5051C10.1464 19.4817 10.0321 19.4469 9.92286 19.4015C9.81217 19.3561 9.70716 19.3 9.60925 19.2348C9.5092 19.1695 9.41625 19.0929 9.33253 19.0091C9.24951 18.9254 9.17288 18.8332 9.10548 18.7331C9.0402 18.6352 8.98557 18.5302 8.94016 18.4188C8.89474 18.3102 8.85856 18.196 8.83727 18.0796C8.81315 17.9633 8.80109 17.8434 8.80109 17.7249C8.80109 17.6071 8.81315 17.4872 8.83727 17.3708C8.85856 17.2545 8.89474 17.1402 8.94016 17.0295C8.98557 16.9203 9.0402 16.8153 9.10548 16.7173C9.17288 16.6173 9.24951 16.5243 9.33253 16.4413C9.41625 16.3576 9.5092 16.281 9.60925 16.2157C9.70716 16.1483 9.81217 16.0944 9.92286 16.049C10.0321 16.0035 10.1464 15.9667 10.2627 15.9454C10.4969 15.8978 10.7367 15.8964 10.9708 15.9454C11.0872 15.9667 11.2021 16.0035 11.3107 16.049C11.4214 16.0944 11.5271 16.1483 11.625 16.2157C11.7251 16.281 11.8173 16.3576 11.901 16.4413C11.9848 16.5243 12.0607 16.6173 12.126 16.7173C12.1919 16.8153 12.248 16.9203 12.2934 17.0295C12.3388 17.1402 12.375 17.2545 12.397 17.3708C12.4204 17.4872 12.4332 17.6071 12.4332 17.7249C12.4332 17.8434 12.4204 17.9633 12.397 18.0796C12.375 18.196 12.3388 18.3102 12.2934 18.4188C12.248 18.5302 12.1919 18.6352 12.126 18.7331C12.0607 18.8332 11.9848 18.9254 11.901 19.0091C11.8173 19.0929 11.7251 19.1695 11.625 19.2348C11.5271 19.3 11.4214 19.3561 11.3107 19.4015C11.2014 19.4469 11.0872 19.4817 10.9708 19.5051C10.8545 19.5292 10.7353 19.5413 10.6168 19.5413Z" fill="white"/>
<path d="M57.6674 29.3356C57.5496 29.3356 57.429 29.325 57.3134 29.3008C57.197 29.2774 57.0821 29.2427 56.9735 29.1972C56.8628 29.1518 56.7571 29.0958 56.6592 29.0305C56.5591 28.9631 56.4669 28.8872 56.3832 28.8035C56.2994 28.7197 56.2235 28.6275 56.1582 28.5274C56.093 28.4295 56.0362 28.3238 55.9908 28.2145C55.9454 28.1039 55.9113 27.9917 55.8872 27.8754C55.8638 27.7569 55.851 27.6391 55.851 27.5192C55.851 27.0417 56.0454 26.5727 56.3832 26.2349C56.4669 26.1512 56.5598 26.0753 56.6599 26.01C56.7578 25.944 56.8628 25.888 56.9735 25.8426C57.0828 25.7972 57.197 25.7624 57.3134 25.739C57.5475 25.6922 57.7895 25.6922 58.0236 25.739C58.1378 25.7624 58.2528 25.7972 58.3635 25.8426C58.472 25.888 58.5778 25.944 58.6757 26.01C58.7757 26.0753 58.868 26.1512 58.9517 26.2349C59.2894 26.5727 59.4838 27.0417 59.4838 27.5192C59.4838 27.6391 59.4732 27.7569 59.4498 27.8754C59.4264 27.9917 59.3916 28.1039 59.3462 28.2145C59.3008 28.3238 59.2447 28.4295 59.1787 28.5274C59.112 28.6275 59.0354 28.7197 58.9517 28.8035C58.8687 28.8872 58.7757 28.9631 58.6757 29.0305C58.5778 29.0958 58.4727 29.1518 58.3635 29.1972C58.2528 29.2427 58.1378 29.2774 58.0236 29.3008C57.9051 29.325 57.7852 29.3356 57.6674 29.3356V29.3356Z" fill="white"/>
<path d="M90.985 11.4668H19.7442C17.9313 8.20576 14.4497 5.99414 10.4614 5.99414C7.62677 5.99414 4.87165 7.15991 2.9034 9.19201C0.952185 11.2078 -0.076639 13.8494 0.00424789 16.6343V75.7577C-0.00142838 75.9599 -0.00142838 76.1628 0.00424789 76.3672C-0.0510958 79.1471 1.01037 81.7951 2.99493 83.8244C5.04123 85.9168 7.89001 87.1166 10.8119 87.1166H91.1836C92.1869 87.1166 93 86.3035 93 85.3002V13.4819C93 12.3707 92.0961 11.4668 90.985 11.4668V11.4668ZM5.51307 11.7194C6.82003 10.3698 8.57684 9.62696 10.4614 9.62696C14.3099 9.62696 17.441 12.7574 17.441 16.6066V68.3544C16.0447 67.1326 14.3269 66.2705 12.4332 65.9136V24.9408C12.4332 23.9375 11.62 23.1244 10.6167 23.1244C9.61418 23.1244 8.80034 23.9375 8.80034 24.9408V65.8632C6.90163 66.1697 5.10509 66.9942 3.63706 68.2409V16.6066C3.63706 16.5868 3.63706 16.5676 3.63635 16.5485C3.57817 14.7441 4.24442 13.0292 5.51307 11.7194V11.7194ZM89.3672 83.4838H10.8119C8.86136 83.4838 6.9591 82.682 5.59254 81.2842C4.29125 79.9539 3.59662 78.229 3.63706 76.4253C3.63706 76.4055 3.63706 76.3856 3.63706 76.365C3.63706 76.3579 3.63706 76.3501 3.63706 76.3423V75.8237C3.69666 74.1896 4.35298 72.6527 5.51307 71.4551C6.82003 70.1055 8.57684 69.3626 10.4614 69.3626C14.3099 69.3626 17.441 72.4938 17.441 76.3423C17.441 77.3456 18.2542 78.1587 19.2575 78.1587C20.2607 78.1587 21.0739 77.3456 21.0739 76.3423V16.6066C21.0739 16.0951 21.0377 15.592 20.9674 15.0996H89.3672V83.4838Z" fill="white"/>
<path d="M30.869 52.6716H57.6674C58.6706 52.6716 59.4838 51.8585 59.4838 50.8552C59.4838 50.768 59.4774 50.6821 59.4653 50.5977C59.4774 50.5132 59.4838 50.4274 59.4838 50.3394V35.3299C59.4838 34.3266 58.6706 33.5135 57.6674 33.5135C56.6648 33.5135 55.8509 34.3266 55.8509 35.3299V49.0388H48.828V43.7017C48.828 42.6984 48.0149 41.8853 47.0116 41.8853C42.7629 41.8853 39.2244 44.9831 38.5362 49.0388H32.6854V22.8897H45.1952V31.9667H37.7181C36.7148 31.9667 35.9017 32.7806 35.9017 33.7831C35.9017 34.7864 36.7148 35.5995 37.7181 35.5995H47.0116C48.0149 35.5995 48.828 34.7864 48.828 33.7831V22.8897H69.0291C69.7656 26.2983 72.5286 28.9618 75.9897 29.5493V35.056H66.5067C65.5035 35.056 64.6903 35.8699 64.6903 36.8724C64.6903 37.8757 65.5035 38.6888 66.5067 38.6888H75.9897V49.0395H67.4149C66.4117 49.0395 65.5985 49.8527 65.5985 50.8559C65.5985 51.8585 66.4117 52.6723 67.4149 52.6723H77.8061C78.8093 52.6723 79.6225 51.8585 79.6225 50.8559V21.0732C79.6225 20.07 78.8093 19.2568 77.8061 19.2568H30.869C29.8657 19.2568 29.0526 20.07 29.0526 21.0732V50.8552C29.0526 51.8585 29.8657 52.6716 30.869 52.6716V52.6716ZM45.1952 45.8622V49.0388H42.2612C42.704 47.5871 43.7945 46.415 45.1952 45.8622ZM75.9897 22.8897V25.8236C74.538 25.3815 73.3658 24.2903 72.8131 22.8897H75.9897Z" fill="white"/>
<path d="M77.8061 68.7359H30.869C29.8657 68.7359 29.0526 67.9228 29.0526 66.9195V59.8142C29.0526 58.8109 29.8657 57.9978 30.869 57.9978H77.8061C78.8093 57.9978 79.6225 58.8109 79.6225 59.8142V66.9195C79.6225 67.9228 78.8093 68.7359 77.8061 68.7359ZM32.6854 65.1031H75.9897V61.6306H32.6854V65.1031Z" fill="white"/>
<path d="M77.8061 77.2505C77.6876 77.2505 77.5677 77.2398 77.4513 77.2164C77.335 77.1923 77.2207 77.1582 77.1122 77.1128C77.0015 77.0674 76.8958 77.0106 76.7978 76.9454C76.6978 76.878 76.6056 76.802 76.5218 76.7183C76.1841 76.3806 75.9897 75.9123 75.9897 75.4341C75.9897 75.3163 76.0017 75.1964 76.0259 75.08C76.0493 74.9636 76.0841 74.8494 76.1295 74.7401C76.1749 74.6294 76.2309 74.5244 76.2962 74.4258C76.3615 74.3265 76.4381 74.2335 76.5218 74.1498C76.6049 74.0668 76.6978 73.9902 76.7978 73.9249C76.8958 73.8596 77.0008 73.8028 77.1122 73.7574C77.2207 73.712 77.335 73.678 77.4513 73.6538C78.0417 73.5339 78.6682 73.7283 79.0896 74.1498C79.4281 74.4875 79.6225 74.9565 79.6225 75.4341C79.6225 75.9123 79.4281 76.3806 79.0896 76.7183C78.7519 77.0561 78.2836 77.2505 77.8061 77.2505V77.2505Z" fill="white"/>
<path d="M69.9955 77.2505H30.869C29.8657 77.2505 29.0526 76.4374 29.0526 75.4341C29.0526 74.4315 29.8657 73.6177 30.869 73.6177H69.9955C70.9988 73.6177 71.8119 74.4315 71.8119 75.4341C71.8119 76.4374 70.9988 77.2505 69.9955 77.2505Z" fill="white"/>
</g>
<defs>
<clipPath id="clip0">
<rect width="93" height="93" fill="white"/>
</clipPath>
</defs>
</svg>
