<svg width="123" height="127" viewBox="0 0 123 127" fill="none" xmlns="http://www.w3.org/2000/svg">
<g clip-path="url(#clip0)">
<path d="M41.1407 93.5385C41.1159 93.5385 39.8496 93.5385 39.8248 93.5137C42.1587 90.9092 44.8153 87.511 44.8153 83.7655V72.777C44.8153 66.303 39.5517 61.0444 33.0715 61.0444H17.9758C16.6102 61.0444 15.4929 62.1606 15.4929 63.5248V83.7903C15.4929 87.5358 18.1496 90.9588 20.4834 93.5385C20.4586 93.5385 19.1924 93.5385 19.1675 93.5633C8.44166 94.5307 0 103.56 0 114.523V124.52C0 125.884 1.11728 127 2.48284 127H57.8254C59.191 127 60.3082 125.884 60.3082 124.52V114.523C60.3082 103.56 51.8666 94.5307 41.1407 93.5385ZM30.1417 93.4393C24.8036 93.4393 19.2172 89.0985 19.2172 83.7655V76.845C20.409 78.3828 23.3635 79.251 25.0022 79.251H41.091V83.7655C41.091 89.0985 35.5046 93.4393 30.1417 93.4393ZM35.7281 97.16L30.1665 103.956L24.5801 97.16H35.7281ZM19.2172 64.7403H20.4586H33.0466C36.7957 64.7403 41.0662 69.0315 41.0662 72.7522V75.5055H24.9774C22.4697 75.5055 19.1924 73.4715 19.1924 70.9662C19.2172 70.9662 19.2172 64.7403 19.2172 64.7403ZM3.72426 123.279V114.523C3.72426 106.363 10.2293 97.6065 20.1855 97.3088L28.3789 107.975C28.8755 108.471 29.4962 108.694 30.1417 108.694C30.7872 108.694 31.408 108.446 31.9045 107.975L40.0979 97.3088C50.5507 97.8545 56.5591 106.363 56.5591 114.523V123.279H3.72426Z" fill="#00A0E3"/>
<path d="M109.27 96.3662C111.778 94.3818 113.888 92.7695 113.863 87.9574V77.8867C113.863 72.1568 110.983 67.0967 106.613 64.0457C106.663 63.8721 106.663 63.6984 106.663 63.5V57.5965C112.473 56.8771 116.967 51.9162 116.967 45.9135V21.0592C116.967 14.5603 111.678 9.27695 105.173 9.27695H66.5898C60.0848 9.27695 54.7963 14.5603 54.7963 21.0592V45.9135C54.7963 52.4123 60.0848 57.6957 66.5898 57.6957H94.8446L98.2212 61.0691C97.7992 61.0443 97.3771 61.0195 96.955 61.0195C87.6443 61.0195 80.0717 68.585 80.0717 77.8867V87.9822C80.0717 90.8844 82.2566 94.233 84.1684 96.143C76.9433 99.4668 70.9348 106.04 70.9348 114.498V124.52C70.9348 125.884 72.0521 127 73.4177 127H120.517C121.883 127 123 125.884 123 124.52V114.474C123 106.015 116.495 99.69 109.27 96.3662ZM96.4088 54.6943C95.937 54.223 95.3163 53.975 94.646 53.975H66.5898C62.8407 53.975 58.5206 49.6838 58.5206 45.9135V21.0592C58.5206 17.3137 61.5 13.0225 66.5898 12.9977H105.198C108.947 12.9977 113.54 16.4703 113.267 21.5553L112.026 21.6793H96.2846C94.9191 21.6793 93.8018 22.2994 93.8018 23.6637C93.8018 25.0279 94.9191 25.648 96.2846 25.648H113.267V45.9135C113.267 49.659 108.972 53.975 105.198 53.975H104.18C102.815 53.975 102.939 55.0912 102.939 56.4555V61.2428L96.4088 54.6943ZM83.8208 77.8867C83.8208 71.3135 87.694 64.7402 96.9798 64.7402C105.347 64.7402 110.139 71.3135 110.139 77.8867V87.9822C110.139 91.0084 106.439 94.7043 103.41 94.7043H101.97H91.9893H90.5493C87.5202 94.7043 83.8208 91.0084 83.8208 87.9822V77.8867ZM119.276 122.039V123.279H74.6591V114.474C74.6591 105.618 83.1256 98.4002 91.9893 98.4002H101.97C110.834 98.4002 119.301 105.618 119.301 114.474V122.039H119.276Z" fill="#00A0E3"/>
<path d="M50.8238 0H21.9483C15.4433 0 10.1548 5.2834 10.1548 11.7822V36.6365C10.1548 42.6393 14.6488 47.6002 20.4586 48.3195V54.223C20.4586 55.2152 21.0545 56.133 21.998 56.5051C22.2959 56.6291 22.6187 56.7035 22.9415 56.7035C23.587 56.7035 24.2325 56.4555 24.7043 55.9842L32.2769 48.4188H45.1877C46.5533 48.4188 47.6706 47.7986 47.6706 46.4344C47.6706 45.0701 46.5533 44.698 45.1877 44.698H31.259C30.5886 44.698 29.9679 44.9709 29.4962 45.4174L24.2077 51.1969V45.9135C24.2077 44.5492 24.3318 44.6732 22.9663 44.6732H21.9483C18.1992 44.6732 13.8791 40.382 13.8791 36.6117V11.7822C13.8791 8.01191 18.1744 3.7207 21.9483 3.7207H50.8238C52.1893 3.7207 53.3066 3.34863 53.3066 1.98438C53.3066 0.620117 52.1893 0 50.8238 0Z" fill="#00A0E3"/>
</g>
<defs>
<clipPath id="clip0">
<rect width="123" height="127" fill="white"/>
</clipPath>
</defs>
</svg>
