<svg width="121" height="142" viewBox="0 0 121 142" fill="none" xmlns="http://www.w3.org/2000/svg">
<g clip-path="url(#clip0)">
<path d="M51.5738 63.4662C50.8108 64.6838 50.2005 66.0536 49.4376 67.2712C44.7074 75.9464 39.9773 84.6216 35.2472 93.2969C32.0429 99.0804 28.8386 105.016 25.7869 110.8C22.1248 117.496 18.4628 124.193 14.8008 131.042C14.1904 132.259 13.2749 132.716 11.9016 132.716C9.00252 132.716 6.1034 132.716 3.20429 132.716C0.61034 132.716 -0.61034 130.281 0.457756 127.998C11.5965 105.777 22.8878 83.4041 34.0265 61.0311C34.1791 60.8789 34.1791 60.7267 34.3316 60.4223C33.7213 60.4223 33.2636 60.4223 32.8058 60.2701C31.2799 60.1179 30.2118 58.9003 30.2118 57.3783C30.2118 53.269 30.2118 49.1597 30.2118 45.0504C30.2118 43.224 31.8903 42.1586 33.2636 42.1586C37.6885 42.1586 41.9609 42.1586 46.3859 42.1586C46.5385 42.1586 51.2686 42.1586 51.5738 42.1586C49.285 39.5713 46.2333 36.5273 45.6229 33.179C45.4704 33.179 42.2661 33.179 41.9609 33.179C39.0618 33.179 36.3153 33.179 33.4161 33.179C31.4325 33.179 30.2118 31.9614 30.2118 29.9829C30.2118 23.134 30.2118 16.1329 30.2118 9.28403C30.2118 7.30547 31.4325 6.08789 33.4161 6.08789C50.3531 6.08789 67.1374 6.08789 84.0744 6.08789C84.227 6.08789 84.5322 6.08789 84.8373 6.08789C84.8373 5.02251 84.8373 4.10932 84.8373 3.19614C84.8373 2.28296 85.1425 1.52197 85.7528 0.913183C86.2106 0.304394 86.8209 0 87.5839 0C90.6356 0 93.6873 0 96.5864 0C98.2648 0 99.3329 0.913183 99.6381 2.28296C99.6381 2.58735 99.7907 2.89175 99.7907 3.19614C99.7907 14.1543 99.7907 24.9603 99.7907 35.9185C99.7907 37.8971 98.57 39.1147 96.5864 39.1147C93.6873 39.1147 90.7881 39.1147 87.889 39.1147C85.9054 39.1147 84.6847 37.8971 84.6847 35.9185C84.6847 35.0054 84.6847 34.0922 84.6847 33.179C82.5485 33.179 77.3607 33.179 75.2245 33.179C74.7667 36.6795 71.715 39.5713 69.4262 42.3108C69.7314 42.3108 74.4615 42.3108 74.6141 42.3108C79.0391 42.3108 83.3115 42.3108 87.7364 42.3108C89.4149 42.3108 90.483 43.224 90.7881 44.746C90.7881 44.8982 90.7881 45.2026 90.7881 45.3548C90.7881 49.3119 90.7881 53.269 90.7881 57.2261C90.7881 59.0525 89.5675 60.2701 87.7364 60.4223C87.4313 60.4223 86.9735 60.4223 86.6683 60.4223C86.8209 60.7267 86.8209 60.8789 86.9735 61.0311C98.1122 83.4041 109.404 105.777 120.542 128.15C121.305 129.672 121.153 131.194 119.779 132.259C119.169 132.716 118.406 132.868 117.796 132.868C114.897 132.868 111.997 132.868 109.098 132.868C107.725 132.868 106.81 132.259 106.199 131.042C101.317 121.91 96.2812 112.778 91.3985 103.646C85.2951 92.3837 79.1917 81.1211 73.0883 69.8585C72.0202 67.88 70.7995 65.7492 69.7314 63.7706C69.7314 63.6184 69.5788 63.4662 69.4262 63.314C69.4262 63.7706 69.4262 64.2272 69.2736 64.6838C69.1211 69.4019 68.9685 73.9678 68.8159 78.686C68.6633 82.6431 68.5107 86.6002 68.3581 90.5573C68.2055 95.8842 67.9004 101.363 67.7478 106.69C67.5952 110.647 67.4426 114.604 67.29 118.562C67.1374 123.128 66.9849 127.541 66.8323 132.107C66.6797 134.542 66.6797 136.977 66.5271 139.413C66.5271 140.935 65.1538 142.152 63.628 142.152C61.4918 142.152 59.5082 142.152 57.372 142.152C55.6936 142.152 54.4729 140.782 54.4729 139.108C54.3203 134.542 54.1677 129.976 54.0151 125.41C53.71 118.562 53.5574 111.865 53.2522 105.016C52.947 98.1672 52.7945 91.4705 52.4893 84.6216C52.3367 78.686 52.0315 72.7503 51.8789 66.8146C51.8789 65.9014 51.8789 65.1404 51.7264 64.2272C51.7264 63.7706 51.5738 63.6184 51.5738 63.4662ZM84.6847 9.13183C68.5107 9.13183 49.4376 9.13183 33.2636 9.13183C33.2636 14.1543 33.2636 25.2647 33.2636 30.2872C49.4376 30.2872 68.5107 30.2872 84.6847 30.2872C84.6847 25.1125 84.6847 14.1543 84.6847 9.13183ZM87.7364 45.3548C71.5624 45.3548 49.4376 45.3548 33.2636 45.3548C33.2636 47.3333 33.2636 55.3998 33.2636 57.3783C49.4376 57.3783 71.5624 57.3783 87.7364 57.3783C87.7364 55.3998 87.7364 47.3333 87.7364 45.3548ZM7.93443 129.824C8.54477 129.824 9.15511 129.824 9.76545 129.824C10.0706 129.824 11.7491 129.672 12.0542 129.368C13.8852 126.019 17.0895 119.779 18.9206 116.583C24.8714 105.625 30.8222 94.8189 36.6204 83.8607C40.7402 76.403 44.7074 68.9453 48.8272 61.4877C48.9798 61.1833 49.285 60.7267 49.4376 60.2701C47.7591 60.2701 43.1816 60.2701 41.6557 60.2701C41.3506 60.2701 37.9937 60.4223 37.8411 60.7267C27.0076 82.6431 14.0378 107.451 3.0517 129.368C2.89912 129.52 8.08701 129.672 7.93443 129.824ZM113.066 129.824C113.066 129.672 117.491 129.52 117.491 129.368C108.183 110.8 97.3493 89.1876 88.0416 70.6195C86.3632 67.4234 84.8373 64.075 83.1589 60.8789C83.0063 60.7267 82.8537 60.5745 82.7011 60.5745C81.0227 60.5745 73.3934 60.5745 71.5624 60.5745C71.715 60.8789 71.715 61.0311 71.8676 61.1833C75.2245 67.2712 78.4287 73.3591 81.7856 79.4469C87.4313 89.9485 93.2295 100.45 98.8752 110.952C101.774 116.279 104.673 121.453 107.42 126.78C107.573 126.932 109.251 130.129 109.404 130.129C110.166 129.824 112.455 129.824 113.066 129.824ZM54.4729 60.4223C55.3884 85.5348 56.3039 113.691 57.372 138.804H63.628C64.5435 113.691 65.459 85.5348 66.5271 60.4223C64.5435 60.4223 56.4565 60.4223 54.4729 60.4223ZM72.1728 33.179C64.3909 33.179 56.7617 33.179 48.9798 33.179C49.8953 37.4405 54.0151 41.8542 59.966 42.1586C66.5271 42.6152 71.1047 37.7449 72.1728 33.179ZM87.7364 3.04394C87.7364 12.1758 87.7364 27.2433 87.7364 36.2229C88.8045 36.2229 95.8235 36.2229 96.8916 36.2229C96.8916 27.0911 96.8916 12.0236 96.8916 3.04394C95.8235 3.04394 88.8045 3.04394 87.7364 3.04394Z" fill="#00A0E3"/>
</g>
<defs>
<clipPath id="clip0">
<rect width="121" height="142" fill="white"/>
</clipPath>
</defs>
</svg>
