<svg width="121" height="121" viewBox="0 0 121 121" fill="none" xmlns="http://www.w3.org/2000/svg">
<g clip-path="url(#clip0)">
<path d="M120.798 56.0242C120.868 55.8349 120.908 55.6368 120.917 55.4347C120.917 55.2217 120.882 55.0098 120.816 54.8077L120.661 54.367C119.012 38.4356 111.104 23.8114 98.6732 13.7123C97.7849 12.9887 96.8562 12.3351 95.9276 11.6647C95.8812 11.6263 95.8566 11.5721 95.8063 11.5356C95.756 11.4991 95.7156 11.503 95.6732 11.4764C85.3957 4.10914 73.0745 0.137134 60.4289 0.113474C59.9084 0.113474 59.3849 0.113474 58.9955 0.153894C52.2503 0.285013 45.578 1.5686 39.2656 3.94943C33.7931 -0.319316 26.3647 -1.09321 20.1292 1.95604C13.8936 5.00528 9.94331 11.3443 9.95316 18.2847C10.0744 20.5936 10.6107 22.8611 11.5384 24.9777C9.47798 27.7943 7.66401 30.7824 6.1172 33.9105C6.08664 33.9588 6.0689 34.0111 6.04228 34.0614C-8.27233 63.6597 3.63877 99.2737 32.8802 114.304C62.1206 129.335 98.0136 118.295 113.752 89.4279C118.062 81.4869 120.512 72.6704 120.915 63.6449C120.978 62.6709 121 61.6781 121 60.6844C121 59.1198 120.919 57.5691 120.798 56.0242ZM114.931 45.6629C114.675 45.4352 114.438 45.1719 114.17 44.962C111.532 42.9587 108.542 41.4651 105.354 40.5591C102.452 39.8306 99.4185 39.799 96.5013 40.4665C94.0199 41.0284 91.4468 41.0412 88.9595 40.5039C84.1328 39.45 80.3185 38.619 78.2955 35.3883C75.3981 30.744 76.7566 24.2166 79.8138 21.9196C80.8213 21.2246 82.0645 20.9594 83.2682 21.1822C85.4095 21.3576 87.5616 20.9949 89.5274 20.1283C91.6194 19.1483 93.4777 17.7336 94.9792 15.9769C95.3607 16.2716 95.7639 16.5368 96.1375 16.8414C105.249 24.259 111.818 34.3344 114.931 45.6629ZM28.1244 4.15153C35.9255 4.16435 42.2458 10.4847 42.2576 18.2847C42.2576 24.3241 33.1868 38.1507 28.1244 45.1601C23.3243 38.6732 19.1532 31.7426 15.6691 24.4631C14.7198 22.5298 14.1499 20.4329 13.9912 18.2847C14.0001 10.4827 20.3224 4.16041 28.1244 4.15153ZM3.89607 60.6844C3.90396 56.9223 4.28352 53.1692 5.02882 49.4811C5.24472 52.2878 5.61048 54.785 5.93778 56.9509C7.18883 65.2291 8.37087 73.0332 14.4723 80.1698C17.0237 83.1766 21.2964 88.2035 27.9026 88.9468C34.5088 89.6902 42.7811 85.8897 45.1708 84.7067L46.0877 84.2443C47.3575 83.4448 48.8086 82.9804 50.3062 82.8937C52.8605 83.1254 55.2266 84.334 56.9124 86.2673C60.3579 90.0816 61.2324 96.4502 58.7835 99.8957C57.9988 100.919 56.9153 101.672 55.682 102.051C53.5713 102.757 51.7771 104.187 50.6187 106.089C48.9122 109.179 48.5947 112.847 49.7462 116.184C23.1557 111.032 3.93748 87.7697 3.89607 60.6844ZM60.4289 117.217C58.4779 117.217 56.5289 117.117 54.5877 116.917C54.4221 116.705 54.2683 116.484 54.1273 116.254C52.7629 113.73 52.7481 110.691 54.0889 108.154C54.8174 106.997 55.9462 106.148 57.2594 105.769C59.1848 105.106 60.8647 103.873 62.0743 102.234C65.5859 97.296 64.5922 88.7408 59.9143 83.566C57.4812 80.784 54.0386 79.0883 50.3505 78.8556H50.2608C48.1343 78.9197 46.0621 79.5369 44.2461 80.6469L43.3845 81.0827C38.9728 83.2575 32.6958 85.4076 28.3512 84.9186C23.3371 84.3577 19.8551 80.2546 17.5452 77.5375C12.1901 71.2784 11.1421 64.3527 9.93147 56.3377C8.63212 49.4811 8.58085 42.447 9.77768 35.5717C10.8592 33.3821 12.0806 31.2645 13.4362 29.2317C13.5032 29.3657 13.5772 29.5028 13.6383 29.6359C13.7674 29.8922 13.9005 30.1465 14.0415 30.4029C14.2436 30.7844 14.4457 31.1659 14.6478 31.5504C14.7868 31.8087 14.9278 32.067 15.0717 32.3272C15.2857 32.7107 15.5016 33.0942 15.7194 33.4777C15.8653 33.7321 16.0103 33.9874 16.1581 34.2418C16.3829 34.6253 16.6077 35.0068 16.8344 35.3883C16.9833 35.6387 17.1312 35.8872 17.282 36.1356C17.5206 36.5388 17.7611 36.9164 18.0017 37.3058C18.1387 37.5266 18.2738 37.7504 18.4049 37.9683C18.7036 38.4474 19.0004 38.9118 19.2971 39.382C19.376 39.5033 19.4548 39.6305 19.5317 39.7497C19.9014 40.3225 20.2682 40.8815 20.628 41.4267C20.765 41.6288 20.8981 41.8309 21.0322 42.033C21.254 42.3662 21.4758 42.6994 21.6917 43.0179L22.1709 43.7188C22.3444 43.9751 22.5199 44.2314 22.6894 44.4759L23.1735 45.1719C23.3233 45.3888 23.4732 45.6008 23.6161 45.8039C23.7591 46.0079 23.9207 46.2386 24.0706 46.4467C24.2195 46.6547 24.321 46.7996 24.4403 46.9672L24.8435 47.5242L25.1728 47.9806L25.4942 48.4233L25.7564 48.7782L26.0029 49.1134L26.1498 49.3155C26.3302 49.56 26.4672 49.7434 26.5057 49.7936C26.8862 50.3023 27.4846 50.602 28.1205 50.602C28.7564 50.602 29.3548 50.3023 29.7353 49.7936C31.43 47.5469 46.2957 27.6168 46.2957 18.2847C46.2957 17.6952 46.2592 17.1096 46.203 16.5279C46.1853 16.3485 46.1567 16.1691 46.134 15.9897C46.0818 15.5855 46.0197 15.1813 45.9329 14.7781C45.8945 14.576 45.8521 14.3867 45.8077 14.1925C45.714 13.7883 45.6056 13.385 45.4824 12.9808C45.4321 12.8192 45.3897 12.6555 45.3365 12.4968C45.1551 11.9556 44.951 11.4202 44.7193 10.8997C44.675 10.8001 44.6217 10.6976 44.5754 10.6069C44.3733 10.1869 44.1722 9.7709 43.9395 9.36473C43.839 9.18333 43.7276 9.00785 43.6191 8.82941C43.4249 8.51098 43.2228 8.19748 43.0128 7.88891C42.8876 7.70948 42.7604 7.53006 42.6293 7.35359C42.5603 7.26486 42.5021 7.17022 42.4272 7.08346C46.6279 5.66876 50.9844 4.76572 55.402 4.39405C52.2542 10.3358 51.226 15.8319 52.4011 20.7484C53.2775 24.0411 54.9407 27.0726 57.2476 29.5816C59.1473 31.9339 60.5137 33.6296 60.4289 36.3978C60.2554 42.2528 53.6433 47.1269 51.1412 48.9685C47.8593 51.3316 44.1909 53.1031 40.2997 54.2053C36.6324 55.4031 33.4688 56.4363 32.2591 60.0465C31.0633 64.8141 33.0271 69.8163 37.148 72.4959C39.6175 73.8297 42.5278 74.0871 45.1935 73.2067C48.1136 72.5284 51.1323 72.3835 54.1037 72.7808C57.9396 73.324 61.2472 73.7903 62.8157 75.9868C63.7463 77.299 63.698 78.6555 63.5166 81.1438C63.1025 84.6663 63.4604 88.237 64.5636 91.6077C65.4844 94.37 66.8754 98.5412 70.2175 99.0223C70.4343 99.0568 70.6542 99.0745 70.8731 99.0745C73.2381 99.0745 74.6853 96.9865 76.2075 94.79C76.8799 93.8189 77.6212 92.771 78.5095 91.7191C82.6649 98.4327 86.8863 104.035 87.0825 104.302C87.464 104.81 88.0624 105.109 88.6973 105.109C89.3332 105.109 89.9316 104.81 90.3131 104.302C94.6933 98.4357 98.686 92.2879 102.264 85.9005C104.744 86.6192 107.106 87.6958 109.275 89.0967C99.173 106.511 80.561 117.226 60.4289 117.217ZM98.1142 62.2736C101.114 64.9492 102.83 68.7782 102.829 72.7985C102.829 74.2507 102.239 77.1294 99.4392 82.5969C96.243 88.5209 92.6545 94.2231 88.6953 99.666C86.7956 97.019 83.5265 92.3204 80.6015 87.3823C78.9709 84.6751 77.5148 81.8684 76.24 78.9769C75.2907 77.0436 74.7208 74.9467 74.5621 72.7985C74.571 64.9965 80.8933 58.6742 88.6953 58.6653C89.1321 58.6653 89.5648 58.6851 89.9957 58.7245C93.0144 58.9976 95.8635 60.2437 98.1142 62.2736ZM116.891 63.4369C116.543 71.1167 114.608 78.6407 111.205 85.5348C108.993 84.1359 106.609 83.0258 104.115 82.2312C105.675 79.3121 106.612 76.0992 106.867 72.7985C106.85 65.87 102.91 59.5487 96.6965 56.4807L96.5694 56.4245C96.1178 56.2066 95.6594 56.0025 95.1911 55.8192C94.8697 55.694 94.5365 55.5964 94.2072 55.4919C94.0051 55.4307 93.8237 55.3548 93.6276 55.2898C93.107 55.1419 92.5776 55.0216 92.0453 54.922H92.0186C91.6963 54.8619 91.369 54.8294 91.0417 54.787C85.8502 54.0683 80.6024 55.6427 76.664 59.1001C72.7245 62.5585 70.4836 67.5577 70.5241 72.7985C70.6808 75.4899 71.3601 78.1261 72.5234 80.5582C73.6551 83.1352 74.9318 85.6462 76.3475 88.0783C75.0856 89.4595 73.9302 90.9333 72.8901 92.488C72.3351 93.4394 71.6341 94.2971 70.8129 95.0305C70.4087 94.9694 69.6605 94.1078 68.3897 90.33C67.463 87.4621 67.1722 84.4257 67.5399 81.4346C68.0644 78.7482 67.5488 75.9631 66.0986 73.6424C63.5205 70.0372 59.0201 69.4023 54.641 68.7812C51.2368 68.3159 47.7765 68.4716 44.4285 69.2396C41.8456 69.7335 40.6468 69.9179 39.2754 69.0631C36.7704 67.3458 35.5183 64.3084 36.0852 61.3242C36.6245 59.7094 38.2403 59.1257 41.537 58.0433C45.8422 56.808 49.9 54.8363 53.5319 52.2149C56.4737 50.0569 64.2333 44.33 64.467 36.5171C64.5961 32.2425 62.4578 29.6053 60.3905 27.0559C58.4799 25.0093 57.0898 22.5338 56.3366 19.8375C55.264 15.339 56.593 10.0637 60.1972 4.15153H60.4289C71.5444 4.16731 82.4105 7.45217 91.6736 13.597C90.6039 14.7889 89.3095 15.757 87.8633 16.4461C86.4555 17.0554 84.9165 17.2959 83.3895 17.1461C81.2659 16.8838 79.1227 17.4349 77.3886 18.6889C72.8103 22.1355 70.7587 30.9244 74.8736 37.5247C77.8026 42.2026 82.8058 43.2929 88.2694 44.4838C91.2102 45.1049 94.2496 45.0921 97.1855 44.4454C99.5417 43.8834 101.998 43.8903 104.351 44.468C106.998 45.2311 109.482 46.4752 111.681 48.1364C113.964 50.0302 115.695 52.5028 116.694 55.2957C116.859 57.0791 116.962 58.8674 116.962 60.6844C116.962 61.5874 116.944 62.5013 116.883 63.4369H116.891Z" fill="#00A0E3"/>
<path d="M28.1245 24.3418C32.5845 24.3418 36.2006 20.7267 36.2006 16.2657C36.2006 11.8057 32.5845 8.18958 28.1245 8.18958C23.6645 8.18958 20.0483 11.8057 20.0483 16.2657C20.0483 20.7267 23.6645 24.3418 28.1245 24.3418ZM28.1245 12.2276C30.3545 12.2276 32.1625 14.0357 32.1625 16.2657C32.1625 18.4957 30.3545 20.3038 28.1245 20.3038C25.8945 20.3038 24.0864 18.4957 24.0864 16.2657C24.0864 14.0357 25.8945 12.2276 28.1245 12.2276Z" fill="#00A0E3"/>
<path d="M80.6193 70.7795C80.6193 75.2405 84.2354 78.8556 88.6954 78.8556C93.1554 78.8556 96.7715 75.2405 96.7715 70.7795C96.7715 66.3195 93.1554 62.7034 88.6954 62.7034C84.2354 62.7034 80.6193 66.3195 80.6193 70.7795ZM92.7334 70.7795C92.7334 73.0095 90.9254 74.8176 88.6954 74.8176C86.4654 74.8176 84.6573 73.0095 84.6573 70.7795C84.6573 68.5495 86.4654 66.7415 88.6954 66.7415C90.9254 66.7415 92.7334 68.5495 92.7334 70.7795Z" fill="#00A0E3"/>
</g>
<defs>
<clipPath id="clip0">
<rect width="121" height="121" fill="white"/>
</clipPath>
</defs>
</svg>
