<svg width="30" height="30" viewBox="0 0 30 30" fill="none" xmlns="http://www.w3.org/2000/svg">
<path d="M21.2109 0H8.78906C3.94277 0 0 3.94277 0 8.78906V21.2109C0 26.0572 3.94277 30 8.78906 30H21.2109C26.0572 30 30 26.0572 30 21.2109V8.78906C30 3.94277 26.0572 0 21.2109 0ZM28.8281 21.2109C28.8281 25.4111 25.4111 28.8281 21.2109 28.8281H8.78906C4.58895 28.8281 1.17188 25.4111 1.17188 21.2109V8.78906C1.17188 4.58895 4.58895 1.17188 8.78906 1.17188H21.2109C25.4111 1.17188 28.8281 4.58895 28.8281 8.78906V21.2109Z" fill="white"/>
<g clip-path="url(#clip0)">
<path d="M3.99991 9.86669C5.46657 13.5334 6.52037 15.836 9.30704 18.7371C11.8627 21.3984 13.5699 21.5399 14.9999 21.6M3.99991 9.86669L4.46434 9.68149C4.4682 9.69117 4.4692 9.69702 4.46948 9.69902C4.4698 9.70127 4.46974 9.70251 4.46967 9.70331C4.46949 9.70532 4.46837 9.71053 4.4646 9.71585C4.46416 9.71648 4.46377 9.71698 4.46345 9.71737M3.99991 9.86669L4.46414 9.681C4.4679 9.69038 4.47165 9.69975 4.4754 9.70912M3.99991 9.86669C3.90604 9.63129 3.99991 9.16416 4.73324 9.16416C5.09399 9.16416 5.44163 9.15672 5.79522 9.14915C6.16114 9.14132 6.53344 9.13336 6.93324 9.13336C7.02528 9.13336 7.10825 9.13131 7.18412 9.12944C7.71273 9.11642 7.89649 9.11189 8.39991 9.86669C8.83762 10.5233 9.27532 11.2451 9.69354 11.9349C10.6767 13.5563 11.5521 15 12.0666 15L7.98388 10.144C7.6964 9.71302 7.58954 9.65916 7.55155 9.64504C7.52979 9.63696 7.4907 9.62763 7.38564 9.62654C7.33265 9.62599 7.27338 9.6274 7.19551 9.62931L7.19457 9.62934C7.11951 9.63119 7.03144 9.63336 6.93324 9.63336C6.54624 9.63336 6.18478 9.64093 5.82441 9.64864L5.80382 9.64908C5.45167 9.65662 5.0994 9.66416 4.73324 9.66416C4.60158 9.66416 4.52825 9.68526 4.49351 9.7002C4.48586 9.70348 4.47993 9.70651 4.4754 9.70912M4.46345 9.71737C4.46276 9.71801 4.46247 9.71836 4.4625 9.71838C4.46253 9.71839 4.46288 9.71807 4.46345 9.71737ZM4.46345 9.71737C4.46503 9.71591 4.46867 9.71298 4.4754 9.70912M4.4754 9.70912C5.92814 13.3393 6.95486 15.5666 9.66763 18.3907L9.66768 18.3908C10.9101 19.6845 11.9194 20.3379 12.7637 20.6807C13.6055 21.0225 14.3182 21.0709 15.0209 21.1005M15.0209 21.1005C15.0209 21.1005 15.0209 21.1005 15.0209 21.1005L14.9999 21.6M15.0209 21.1005C15.1877 21.1075 15.1906 21.1073 15.202 21.1066C15.2037 21.1065 15.2055 21.1063 15.2081 21.1062C15.2638 21.1039 15.3632 21.1 15.7332 21.1C15.7792 21.1 15.7891 21.0899 15.7988 21.0799L15.7997 21.079C15.8235 21.0546 15.8612 20.9963 15.8948 20.8809C15.9635 20.6444 15.9666 20.3482 15.9666 20.1334C15.9666 19.6041 16.2262 19.1166 16.5714 18.7715C16.9165 18.4263 17.404 18.1667 17.9332 18.1667C18.2452 18.1667 18.5521 18.295 18.8136 18.4422C19.0856 18.5952 19.3666 18.8023 19.6397 19.0276C20.1821 19.4751 20.7458 20.0388 21.2114 20.5044L21.2201 20.5131C21.4072 20.7003 21.534 20.8267 21.6365 20.919C21.7379 21.0103 21.7907 21.0447 21.8235 21.0611C21.8793 21.089 21.9286 21.1 22.3332 21.1H22.3375H22.3419H22.3462H22.3506H22.3549H22.3593H22.3637H22.3681H22.3726H22.377H22.3815H22.386H22.3905H22.395H22.3995H22.4041H22.4086H22.4132H22.4178H22.4224H22.427H22.4317H22.4363H22.441H22.4457H22.4503H22.455H22.4598H22.4645H22.4693H22.474H22.4788H22.4836H22.4884H22.4932H22.498H22.5029H22.5077H22.5126H22.5175H22.5224H22.5273H22.5322H22.5372H22.5421H22.5471H22.552H22.557H22.562H22.567H22.572H22.5771H22.5821H22.5872H22.5922H22.5973H22.6024H22.6075H22.6126H22.6177H22.6229H22.628H22.6332H22.6383H22.6435H22.6487H22.6539H22.6591H22.6643H22.6695H22.6748H22.68H22.6853H22.6905H22.6958H22.7011H22.7064H22.7117H22.717H22.7223H22.7276H22.733H22.7383H22.7437H22.749H22.7544H22.7598H22.7652H22.7706H22.776H22.7814H22.7868H22.7922H22.7977H22.8031H22.8086H22.814H22.8195H22.825H22.8305H22.8359H22.8414H22.8469H22.8524H22.858H22.8635H22.869H22.8745H22.8801H22.8856H22.8912H22.8967H22.9023H22.9079H22.9134H22.919H22.9246H22.9302H22.9358H22.9414H22.947H22.9526H22.9582H22.9638H22.9695H22.9751H22.9807H22.9864H22.992H22.9977H23.0033H23.009H23.0146H23.0203H23.0259H23.0316H23.0373H23.043H23.0486H23.0543H23.06H23.0657H23.0714H23.0771H23.0828H23.0885H23.0942H23.0999H23.1056H23.1113H23.117H23.1227H23.1284H23.1341H23.1398H23.1456H23.1513H23.157H23.1627H23.1684H23.1742H23.1799H23.1856H23.1913H23.1971H23.2028H23.2085H23.2143H23.22H23.2257H23.2314H23.2372H23.2429H23.2486H23.2544H23.2601H23.2658H23.2715H23.2773H23.283H23.2887H23.2944H23.3002H23.3059H23.3116H23.3173H23.323H23.3288H23.3345H23.3402H23.3459H23.3516H23.3573H23.363H23.3687H23.3744H23.3801H23.3858H23.3915H23.3972H23.4029H23.4085H23.4142H23.4199H23.4256H23.4312H23.4369H23.4426H23.4482H23.4539H23.4595H23.4652H23.4708H23.4765H23.4821H23.4877H23.4934H23.499H23.5046H23.5102H23.5158H23.5214H23.527H23.5326H23.5382H23.5438H23.5493H23.5549H23.5605H23.566H23.5716H23.5771H23.5827H23.5882H23.5937H23.5993H23.6048H23.6103H23.6158H23.6213H23.6268H23.6323H23.6377H23.6432H23.6487H23.6541H23.6596H23.665H23.6704H23.6759H23.6813H23.6867H23.6921H23.6975H23.7029H23.7082H23.7136H23.719H23.7243H23.7297H23.735H23.7403H23.7456H23.7509H23.7562H23.7615H23.7668H23.7721H23.7773H23.7826H23.7878H23.793H23.7983H23.8035H23.8087H23.8139H23.819H23.8242H23.8294H23.8345H23.8396H23.8448H23.8499H23.855H23.8601H23.8652H23.8702H23.8753H23.8803H23.8854H23.8904H23.8954H23.9004H23.9054H23.9104H23.9153H23.9203H23.9252H23.9301H23.935H23.9399H23.9448H23.9497H23.9546H23.9594H23.9643H23.9691H23.9739H23.9787H23.9835H23.9882H23.993H23.9977H24.0024H24.0072H24.0119H24.0165H24.0212H24.0259H24.0305H24.0351H24.0397H24.0443H24.0489H24.0535H24.058H24.0626H24.0671H24.0716H24.0761H24.0806H24.085H24.0895H24.0939H24.0983H24.1027H24.1071H24.1114H24.1158H24.1201H24.1244H24.1287H24.133H24.1372H24.1415H24.1457H24.1499H24.1541H24.1583H24.1624H24.1666H24.1707H24.1748H24.1789H24.1829H24.187H24.191H24.195H24.199H24.203H24.207H24.2109H24.2148H24.2187H24.2226H24.2265H24.2303H24.2341H24.2379H24.2417H24.2455H24.2492H24.253H24.2567H24.2604H24.264H24.2677H24.2713H24.2749H24.2785H24.282H24.2856H24.2891H24.2926H24.2961H24.2996H24.303H24.3064H24.3098H24.3132H24.3165H24.3199H24.3232H24.3265H24.3297H24.333H24.3362H24.3394H24.3426H24.3457H24.3489H24.352H24.355H24.3581H24.3612H24.3642H24.3672H24.3701H24.3731H24.376H24.3789H24.3818H24.3846H24.3875H24.3903H24.3931H24.3958H24.3985H24.4013H24.4039H24.4066H24.4092H24.4118H24.4144H24.417H24.4195H24.422H24.4245H24.427H24.4294H24.4318H24.4342H24.4366H24.4389H24.4412H24.4435H24.4457H24.448H24.4502H24.4523H24.4545H24.4566H24.4587H24.4608H24.4628H24.4648H24.4668H24.4688H24.4707H24.4726H24.4745H24.4764H24.4782H24.48H24.4817H24.4835H24.4852H24.4869H24.4885H24.4902H24.4918H24.4933H24.4949H24.4964H24.4979H24.4993H24.5007H24.5021H24.5035H24.5048H24.5062H24.5074H24.5087H24.5099H24.5111H24.5123H24.5134H24.5145H24.5156H24.5166H24.5176H24.5182C24.5237 21.0996 24.5322 21.0989 24.5432 21.0977C24.5706 21.0948 24.613 21.0892 24.6651 21.0788C24.7716 21.0577 24.9068 21.0192 25.0362 20.952C25.1645 20.8855 25.2762 20.7967 25.3564 20.678C25.4337 20.5634 25.4999 20.3944 25.4999 20.1334C25.4999 20.0728 25.4595 19.875 25.1324 19.4258C24.8177 18.9938 24.2896 18.3968 23.4464 17.5536C23.1474 17.2547 22.8845 17.0591 22.6545 16.888C22.6256 16.8664 22.5972 16.8453 22.5693 16.8244C22.4499 16.7349 22.3188 16.6343 22.211 16.5229C22.0982 16.4064 21.9861 16.2537 21.9337 16.051C21.8305 15.6522 22.0087 15.2607 22.2277 14.8923C22.4627 14.4969 22.8492 13.9673 23.4 13.2333L23.4 13.2333C24.0693 12.3413 24.6394 11.5018 25.0185 10.8355C25.209 10.5007 25.343 10.2241 25.4188 10.0148C25.4396 9.95741 25.4545 9.9091 25.4649 9.86929C25.383 9.8323 25.2706 9.79008 25.1289 9.74563C24.7768 9.63517 24.3041 9.52957 23.816 9.45674C23.3259 9.38364 22.8445 9.3472 22.4714 9.365C22.2834 9.37396 22.1439 9.39586 22.0521 9.4233C22.0236 9.43181 22.0048 9.43927 21.9934 9.44446C20.566 11.5871 20.3018 12.1149 19.8562 13.0054L19.8471 13.0236C19.8471 13.0237 19.8471 13.0237 19.847 13.0238C19.6697 13.3785 19.5319 13.6897 19.4124 13.9629C19.4012 13.9885 19.39 14.014 19.379 14.0393C19.2753 14.2768 19.1785 14.4987 19.0821 14.6824C18.9764 14.8838 18.8451 15.0925 18.6561 15.2483C18.4481 15.4198 18.2047 15.5 17.9332 15.5C17.5541 15.5 17.2878 15.2851 17.1253 15.0486C16.9721 14.8255 16.8839 14.5507 16.8284 14.2991C16.7158 13.7893 16.6999 13.1928 16.6999 12.8C16.6999 12.2759 16.7161 11.7837 16.7307 11.3399C16.7332 11.262 16.7357 11.1855 16.7381 11.1106C16.7542 10.6023 16.7631 10.1752 16.7409 9.81996C16.7183 9.45796 16.6656 9.22606 16.593 9.08325C16.5431 8.98517 16.4871 8.93139 16.3973 8.90002M15.0209 21.1005L14.9999 21.6M14.9999 21.6C15.1465 21.6062 15.1759 21.6074 15.2052 21.6067C15.2492 21.6056 15.2931 21.6 15.7332 21.6C16.4666 21.6 16.4666 20.5433 16.4666 20.1334C16.4666 19.4 17.1999 18.6667 17.9332 18.6667C18.6666 18.6667 19.9242 19.9244 20.8666 20.8667C21.2883 21.2884 21.4675 21.4676 21.6831 21.5437C21.8424 21.6 22.0216 21.6 22.3332 21.6H24.5332L16.3973 8.90002M16.3973 8.90002H16.3962H16.3941H16.392H16.3899H16.3878H16.3857H16.3835H16.3813H16.3791H16.3768H16.3745H16.3722H16.3699H16.3675H16.3652H16.3628H16.3603H16.3579H16.3554H16.3529H16.3503H16.3478H16.3452H16.3426H16.3399H16.3373H16.3346H16.3319H16.3291H16.3264H16.3236H16.3208H16.318H16.3151H16.3122H16.3093H16.3064H16.3035H16.3005H16.2975H16.2945H16.2914H16.2884H16.2853H16.2822H16.2791H16.2759H16.2727H16.2695H16.2663H16.2631H16.2598H16.2565H16.2532H16.2499H16.2465H16.2431H16.2397H16.2363H16.2329H16.2294H16.2259H16.2224H16.2189H16.2154H16.2118H16.2082H16.2046H16.201H16.1974H16.1937H16.19H16.1863H16.1826H16.1788H16.1751H16.1713H16.1675H16.1636H16.1598H16.1559H16.1521H16.1482H16.1442H16.1403H16.1363H16.1324H16.1284H16.1244H16.1203H16.1163H16.1122H16.1081H16.104H16.0999H16.0958H16.0916H16.0874H16.0832H16.079H16.0748H16.0706H16.0663H16.062H16.0577H16.0534H16.0491H16.0448H16.0404H16.036H16.0316H16.0272H16.0228H16.0183H16.0139H16.0094H16.0049H16.0004H15.9959H15.9914H15.9868H15.9823H15.9777H15.9731H15.9685H15.9638H15.9592H15.9545H15.9499H15.9452H15.9405H15.9358H15.9311H15.9263H15.9216H15.9168H15.912H15.9072H15.9024H15.8976H15.8928H15.8879H15.883H15.8782H15.8733H15.8684H15.8635H15.8585H15.8536H15.8487H15.8437H15.8387H15.8337H15.8287H15.8237H15.8187H15.8137H15.8086H15.8036H15.7985H15.7934H15.7883H15.7832H15.7781H15.773H15.7678H15.7627H15.7575H15.7524H15.7472H15.742H15.7368H15.7316H15.7264H15.7211H15.7159H15.7107H15.7054H15.7001H15.6948H15.6896H15.6843H15.679H15.6736H15.6683H15.663H15.6576H15.6523H15.6469H15.6416H15.6362H15.6308H15.6254H15.62H15.6146H15.6092H15.6038H15.5983H15.5929H15.5875H15.582H15.5765H15.5711H15.5656H15.5601H15.5546H15.5491H15.5436H15.5381H15.5326H15.5271H15.5216H15.516H15.5105H15.5049H15.4994H15.4938H15.4883H15.4827H15.4771H15.4715H15.4659H15.4603H15.4547H15.4491H15.4435H15.4379H15.4323H15.4267H15.4211H15.4154H15.4098H15.4042H15.3985H15.3929H15.3872H15.3816H15.3759H15.3702H15.3646H15.3589H15.3532H15.3476H15.3419H15.3362H15.3305H15.3248H15.3191H15.3134H15.3077H15.302H15.2963H15.2906H15.2849H15.2792H15.2735H15.2678H15.2621H15.2564H15.2507H15.2449H15.2392H15.2335H15.2278H15.2221H15.2163H15.2106H15.2049H15.1992H15.1934H15.1877H15.182H15.1762H15.1705H15.1648H15.159H15.1533H15.1476H15.1419H15.1361H15.1304H15.1247H15.119H15.1132H15.1075H15.1018H15.0961H15.0903H15.0846H15.0789H15.0732H15.0675H15.0617H15.056H15.0503H15.0446H15.0389H15.0332H15.0275H15.0218H15.0161H15.0104H15.0047H14.999H14.9933H14.9876H14.982H14.9763H14.9706H14.9649H14.9593H14.9536H14.9479H14.9423H14.9366H14.931H14.9253H14.9197H14.9141H14.9084H14.9028H14.8972H14.8916H14.8859H14.8803H14.8747H14.8691H14.8635H14.8579H14.8524H14.8468H14.8412H14.8356H14.8301H14.8245H14.819H14.8134H14.8079H14.8023H14.7968H14.7913H14.7858H14.7803H14.7748H14.7693H14.7638H14.7583H14.7528H14.7474H14.7419H14.7365H14.731H14.7256H14.7202H14.7147H14.7093H14.7039H14.6985H14.6931H14.6877H14.6824H14.677H14.6717H14.6663H14.661H14.6556H14.6503H14.645H14.6397H14.6344H14.6291H14.6239H14.6186H14.6133H14.6081H14.6029H14.5976H14.5924H14.5872H14.582H14.5768H14.5717H14.5665H14.5613H14.5562H14.5511H14.5459H14.5408H14.5357H14.5306H14.5256H14.5205H14.5154H14.5104H14.5054H14.5003H14.4953H14.4903H14.4854H14.4804H14.4754H14.4705H14.4656H14.4606H14.4557H14.4508H14.4459H14.4411H14.4362H14.4314H14.4265H14.4217H14.4169H14.4121H14.4074H14.4026H14.3978H14.3931H14.3884H14.3837H14.379H14.3743H14.3696H14.365H14.3604H14.3557H14.3511H14.3465H14.342H14.3374H14.3329H14.3283H14.3238H14.3193H14.3148H14.3104H14.3059H14.3015H14.2971H14.2927H14.2883H14.2839H14.2795H14.2752H14.2709H14.2666C13.7743 8.90002 13.298 9.05456 12.9311 9.2217C12.7625 9.29851 12.623 9.37522 12.5233 9.43451C12.6683 9.48613 12.8166 9.56609 12.9469 9.6906C13.1852 9.91828 13.2999 10.2332 13.2999 10.6V10.6043V10.6086V10.6129V10.6172V10.6215V10.6258V10.6301V10.6344V10.6387V10.643V10.6473V10.6516V10.6559V10.6602V10.6645V10.6688V10.673V10.6773V10.6816V10.6859V10.6902V10.6945V10.6988V10.7031V10.7074V10.7116V10.7159V10.7202V10.7245V10.7288V10.7331V10.7373V10.7416V10.7459V10.7502V10.7545V10.7587V10.763V10.7673V10.7715V10.7758V10.7801V10.7844V10.7886V10.7929V10.7971V10.8014V10.8057V10.8099V10.8142V10.8184V10.8227V10.8269V10.8312V10.8354V10.8397V10.8439V10.8482V10.8524V10.8567V10.8609V10.8651V10.8694V10.8736V10.8778V10.882V10.8863V10.8905V10.8947V10.8989V10.9031V10.9074V10.9116V10.9158V10.92V10.9242V10.9284V10.9326V10.9368V10.941V10.9452V10.9494V10.9535V10.9577V10.9619V10.9661V10.9703V10.9744V10.9786V10.9828V10.9869V10.9911V10.9952V10.9994V11.0035V11.0077V11.0118V11.016V11.0201V11.0242V11.0284V11.0325V11.0366V11.0408V11.0449V11.049V11.0531V11.0572V11.0613V11.0654V11.0695V11.0736V11.0777V11.0818V11.0859V11.0899V11.094V11.0981V11.1021V11.1062V11.1103V11.1143V11.1184V11.1224V11.1265V11.1305V11.1345V11.1386V11.1426V11.1466V11.1506V11.1546V11.1587V11.1627V11.1667V11.1707V11.1746V11.1786V11.1826V11.1866V11.1906V11.1945V11.1985V11.2025V11.2064V11.2104V11.2143V11.2182V11.2222V11.2261V11.23V11.234V11.2379V11.2418V11.2457V11.2496V11.2535V11.2574V11.2613V11.2651V11.269V11.2729V11.2768V11.2806V11.2845V11.2883V11.2922V11.296V11.2998V11.3036V11.3075V11.3113V11.3151V11.3189V11.3227V11.3265V11.3303V11.3341V11.3378V11.3416V11.3454V11.3491V11.3529V11.3566V11.3604V11.3641V11.3678V11.3715V11.3752V11.379V11.3827V11.3864V11.39V11.3937V11.3974V11.4011V11.4047V11.4084V11.412V11.4157V11.4193V11.423V11.4266V11.4302V11.4338V11.4374V11.441V11.4446V11.4482V11.4518V11.4553V11.4589V11.4625V11.466V11.4696V11.4731V11.4766V11.4801V11.4837V11.4872V11.4907V11.4942V11.4976V11.5011V11.5046V11.508V11.5115V11.515V11.5184V11.5218V11.5253V11.5287V11.5321V11.5355V11.5389V11.5423V11.5457V11.549V11.5524V11.5557V11.5591V11.5624V11.5658V11.5691V11.5724V11.5757V11.579V11.5823V11.5856V11.5889V11.5921V11.5954V11.5987V11.6019V11.6051V11.6084V11.6116V11.6148V11.618V11.6212V11.6244V11.6275V11.6307V11.6339V11.637V11.6402V11.6433V11.6464V11.6495V11.6526V11.6557V11.6588V11.6619V11.665V11.668V11.6711V11.6741V11.6772V11.6802V11.6832V11.6862V11.6892V11.6922V11.6952V11.6982V11.7011V11.7041V11.707V11.7099V11.7129V11.7158V11.7187V11.7216V11.7245V11.7273V11.7302V11.7331V11.7359V11.7387V11.7416V11.7444V11.7472V11.75V11.7528V11.7556V11.7583V11.7611V11.7638V11.7666V11.7693V11.772V11.7747V11.7774V11.7801V11.7828V11.7854V11.7881V11.7907V11.7934V11.796V11.7986V11.8012V11.8038V11.8064V11.8089V11.8115V11.8141V11.8166V11.8191V11.8216V11.8241V11.8266V11.8291V11.8316V11.8341V11.8365V11.839V11.8414V11.8438V11.8462V11.8486V11.851V11.8534V11.8557V11.8581V11.8604V11.8628V11.8651V11.8674V11.8697V11.872V11.8742V11.8765V11.8787V11.881V11.8832V11.8854V11.8876V11.8898V11.892V11.8941V11.8963V11.8984V11.9006V11.9027V11.9048V11.9069V11.909V11.9111V11.9131V11.9152V11.9172V11.9192V11.9212V11.9232V11.9252V11.9272V11.9291V11.9311V11.933V11.935V11.9369V11.9388V11.9406V11.9425V11.9444V11.9462V11.9481V11.9499V11.9517V11.9535V11.9553V11.9571V11.9588V11.9606V11.9623V11.964V11.9657V11.9674V11.9691V11.9708V11.9724V11.9741V11.9757V11.9773V11.9789V11.9805V11.9821V11.9836V11.9852V11.9867V11.9882V11.9897V11.9912V11.9927V11.9942V11.9956V11.9971V11.9985V11.9999V12.0013V12.0027V12.0041V12.0054V12.0068V12.0081V12.0094V12.0107V12.012V12.0133V12.0145V12.0158V12.017V12.0182V12.0194V12.0206V12.0218V12.0229V12.0241V12.0252V12.0263V12.0274V12.0285V12.0296V12.0307V12.0317V12.0327V12.0337V12.0347V12.0357V12.0367V12.0377V12.0386V12.0395V12.0404V12.0413V12.0422V12.0431V12.0439V12.0448V12.0456V12.0464V12.0472V12.048V12.0487V12.0495V12.0502V12.0509V12.0516V12.0523V12.053V12.0536V12.0543V12.0549V12.0555V12.0561V12.0566V12.0572V12.0577V12.0583V12.0588V12.0593V12.0598V12.0602V12.0607V12.0611V12.0615V12.0619V12.0623V12.0627V12.063V12.0634V12.0637V12.064V12.0643V12.0646V12.0648V12.0651V12.0653V12.0655V12.0657L13.2999 12.0657L13.2999 12.0659L13.2999 12.0659L13.2999 12.066V12.0662V12.0663V12.0664V12.0665V12.0666V12.0666V12.0666V12.0667V12.0667L13.2999 12.0687L13.2999 12.076L13.2998 12.1027C13.2996 12.1257 13.2993 12.1588 13.2987 12.2006C13.2974 12.2842 13.2946 12.4028 13.289 12.5449C13.2777 12.8278 13.2547 13.2094 13.2069 13.5948C13.1601 13.9726 13.0859 14.3864 12.9613 14.7177C12.8996 14.8819 12.8132 15.0597 12.6858 15.2044C12.5524 15.3559 12.3451 15.5 12.0666 15.5C11.8155 15.5 11.6057 15.3795 11.4594 15.2703C11.3039 15.1542 11.1532 14.9997 11.0099 14.8315C10.7225 14.4941 10.4091 14.0339 10.0864 13.5268C9.8141 13.0989 9.53661 12.6409 9.25344 12.1736C8.8427 11.4958 8.42002 10.7983 7.98394 10.1441L16.3973 8.90002Z" stroke="white"/>
</g>
<defs>
<clipPath id="clip0">
<rect width="22" height="22" fill="white" transform="translate(4 4)"/>
</clipPath>
</defs>
</svg>
