<svg width="150" height="45" viewBox="0 0 150 45" fill="none" xmlns="http://www.w3.org/2000/svg">
<path d="M0.919402 44.7935C0.411756 44.7935 0 44.3233 0 43.7437C0 43.1641 0.411756 42.6939 0.919402 42.6939V44.7935ZM110.872 44.7935H0.919402V42.6939H110.872L111.655 44.2945L110.872 44.7935ZM110.872 42.6939C111.38 42.6939 111.791 43.1641 111.791 43.7437C111.791 44.3233 111.38 44.7935 110.872 44.7935V42.6939ZM118.355 31.8732L111.655 44.2945L110.089 43.1929L116.79 30.7717L118.492 31.3227L118.355 31.8732ZM116.79 30.7717C117.056 30.278 117.622 30.1243 118.054 30.4284C118.487 30.7325 118.621 31.3795 118.355 31.8732L116.79 30.7717ZM118.495 11.7225L118.492 31.3227L116.653 31.3222L116.656 11.7219L117.574 10.6724L118.495 11.7225ZM116.656 11.7219C116.656 11.1424 117.068 10.6724 117.576 10.6724C118.084 10.6724 118.495 11.1429 118.495 11.7225L116.656 11.7219ZM124.416 12.7571L117.578 12.772L117.574 10.6724L124.413 10.6575L125.334 11.7075L124.416 12.7571ZM124.413 10.6575C124.92 10.6564 125.333 11.1255 125.334 11.7051C125.335 12.2847 124.924 12.756 124.416 12.7571L124.413 10.6575ZM123.494 18.6406L123.495 11.707L125.334 11.7075L125.332 18.6411L125.196 19.1916L123.494 18.6406ZM125.332 18.6411C125.332 19.2207 124.92 19.6906 124.413 19.6906C123.905 19.6906 123.494 19.2201 123.494 18.6406L125.332 18.6411ZM134.332 2.25375L125.196 19.1916L123.63 18.0901L132.767 1.15221L134.269 1.04978L134.332 2.25375ZM132.767 1.15221C133.033 0.658516 133.6 0.504884 134.032 0.808941C134.464 1.113 134.598 1.76005 134.332 2.25375L132.767 1.15221ZM148.361 24.6788L132.83 2.35616L134.269 1.04978L149.8 23.3724L148.361 24.6788ZM149.8 23.3724C150.116 23.8263 150.05 24.487 149.653 24.8476C149.255 25.2082 148.677 25.1327 148.361 24.6788L149.8 23.3724Z" fill="white"/>
<path d="M2.62945 12.9254V39.8334H0.386322V10.5708H10.6832V12.9254H2.62945ZM13.4048 39.8334V10.5708H24.1062V12.9254H15.6479V23.7306H23.0398V26.0849H15.6479V37.4788H24.1062V39.8334H13.4048ZM38.0441 32.6019C38.0441 35.0685 37.5598 36.9392 36.5977 38.2147C35.6293 39.4901 34.1705 40.1276 32.2153 40.1276C30.2601 40.1276 28.8134 39.5251 27.8697 38.3198C26.9319 37.1145 26.4599 35.4328 26.4599 33.2745V17.8866C26.4599 16.8493 26.5579 15.8683 26.7541 14.9434C26.9503 14.0184 27.275 13.2126 27.7225 12.5258C28.176 11.839 28.7768 11.2995 29.5184 10.9071C30.2661 10.5148 31.1794 10.3185 32.2519 10.3185C33.3491 10.3185 34.2746 10.4937 35.0225 10.8442C35.7639 11.1944 36.3586 11.699 36.8 12.3578C37.2351 13.0163 37.5537 13.8013 37.7499 14.7121C37.9461 15.6232 38.0441 16.6391 38.0441 17.7604V32.6019ZM35.8008 17.3819C35.8008 16.7653 35.7394 16.1767 35.6169 15.616C35.4945 15.0554 35.2983 14.5579 35.0346 14.1235C34.7649 13.689 34.4033 13.3388 33.9559 13.0723C33.5024 12.8062 32.9446 12.6731 32.2888 12.6731C31.584 12.6731 30.9954 12.8483 30.5297 13.1985C30.0699 13.549 29.7022 13.9904 29.4326 14.523C29.1689 15.0554 28.979 15.6371 28.8687 16.2679C28.7583 16.8984 28.7033 17.494 28.7033 18.0546V33.3167C28.7033 33.8771 28.7707 34.4238 28.9056 34.9562C29.0404 35.4888 29.2487 35.9654 29.5245 36.3858C29.8065 36.8061 30.1742 37.1425 30.6216 37.3948C31.0752 37.6471 31.6206 37.7733 32.2519 37.7733C33.5453 37.7733 34.4584 37.2966 34.9978 36.3436C35.5311 35.3907 35.8008 34.2417 35.8008 32.8961V17.3819ZM50.695 39.8334V13.0094H43.9649V39.8334H41.7218V10.5708H52.9381V39.8334H50.695ZM68.1999 32.6019C68.1999 35.0685 67.7156 36.9392 66.7535 38.2147C65.7851 39.4901 64.3263 40.1276 62.371 40.1276C60.4158 40.1276 58.9692 39.5251 58.0255 38.3198C57.0877 37.1145 56.6157 35.4328 56.6157 33.2745V17.8866C56.6157 16.8493 56.7137 15.8683 56.9099 14.9434C57.1061 14.0184 57.4308 13.2126 57.8783 12.5258C58.3318 11.839 58.9325 11.2995 59.6742 10.9071C60.4219 10.5148 61.3352 10.3185 62.4077 10.3185C63.5049 10.3185 64.4303 10.4937 65.1783 10.8442C65.9197 11.1944 66.5144 11.699 66.9557 12.3578C67.3908 13.0163 67.7095 13.8013 67.9057 14.7121C68.1019 15.6232 68.1999 16.6391 68.1999 17.7604V32.6019ZM65.9565 17.3819C65.9565 16.7653 65.8952 16.1767 65.7727 15.616C65.6502 15.0554 65.454 14.5579 65.1904 14.1235C64.9207 13.689 64.5591 13.3388 64.1117 13.0723C63.6581 12.8062 63.1003 12.6731 62.4445 12.6731C61.7398 12.6731 61.1512 12.8483 60.6855 13.1985C60.2257 13.549 59.858 13.9904 59.5883 14.523C59.3247 15.0554 59.1348 15.6371 59.0244 16.2679C58.9141 16.8984 58.859 17.494 58.859 18.0546V33.3167C58.859 33.8771 58.9265 34.4238 59.0613 34.9562C59.1962 35.4888 59.4045 35.9654 59.6802 36.3858C59.9623 36.8061 60.33 37.1425 60.7774 37.3948C61.2309 37.6471 61.7764 37.7733 62.4077 37.7733C63.7011 37.7733 64.6142 37.2966 65.1535 36.3436C65.6869 35.3907 65.9565 34.2417 65.9565 32.8961V17.3819ZM81.4391 16.8354L73.9002 39.8334H71.8038V10.5708H74.0472V33.6109L74.1944 33.653L81.6229 10.5708H83.7926V39.8334H81.5494V16.8354H81.4391ZM96.8479 39.8334V26.0009H89.8236V39.8334H87.5805V10.5708H89.8236V23.7306H96.8479V10.5708H99.091V39.8334H96.8479ZM108.101 12.9254V39.8334H105.784V12.9254H101.187V10.5708H112.698V12.9254H108.101Z" fill="#FEFEFE" stroke="white" stroke-width="0.0801" stroke-miterlimit="22.9256"/>
</svg>
