<svg width="87" height="87" viewBox="0 0 87 87" fill="none" xmlns="http://www.w3.org/2000/svg">
<g clip-path="url(#clip0)">
<path d="M84.3497 39.0069C84.2388 39.0069 84.1266 38.9956 84.0178 38.9731C83.9089 38.9512 83.8021 38.9186 83.7005 38.8762C83.597 38.8337 83.4981 38.7812 83.4065 38.7202C83.3129 38.6591 83.2259 38.5874 83.1483 38.5091C83.0699 38.4314 82.9982 38.3432 82.9372 38.2509C82.8761 38.1573 82.8237 38.0591 82.7812 37.9569C82.7387 37.8553 82.7049 37.7484 82.6843 37.6396C82.6624 37.5287 82.6504 37.4186 82.6504 37.3077C82.6504 37.1962 82.6624 37.0853 82.6843 36.9752C82.7049 36.8663 82.7387 36.7608 82.7812 36.6572C82.8237 36.555 82.8761 36.4568 82.9372 36.3652C82.9982 36.2716 83.0699 36.1846 83.1483 36.105C83.2259 36.0267 83.3129 35.9556 83.4065 35.8946C83.4981 35.8335 83.597 35.7804 83.7005 35.7379C83.8021 35.6954 83.9096 35.6636 84.0178 35.641C84.2375 35.5972 84.4612 35.5972 84.6809 35.641C84.7897 35.6636 84.8966 35.6954 85.0001 35.7379C85.1024 35.7804 85.2006 35.8335 85.2922 35.8946C85.3858 35.9556 85.4727 36.0267 85.5511 36.105C85.6287 36.1853 85.7004 36.2716 85.7635 36.3652C85.8245 36.4568 85.877 36.555 85.9194 36.6572C85.9619 36.7608 85.9945 36.8663 86.0164 36.9752C86.0383 37.0853 86.0489 37.1962 86.0489 37.3077C86.0489 37.4186 86.0383 37.5287 86.0164 37.6396C85.9945 37.7484 85.9619 37.8553 85.9194 37.9569C85.877 38.0591 85.8245 38.1573 85.7635 38.2509C85.7004 38.3432 85.6287 38.4314 85.5511 38.5091C85.4727 38.5874 85.3858 38.6591 85.2922 38.7202C85.2006 38.7812 85.1024 38.8337 85.0001 38.8762C84.8966 38.9186 84.7897 38.9512 84.6809 38.9731C84.572 38.9956 84.4598 39.0069 84.3497 39.0069Z" fill="white"/>
<path d="M59.5868 41.5713H46.3044C45.3665 41.5713 44.6052 40.8106 44.6052 39.872V31.2505C44.6052 26.7582 48.2605 23.1035 52.7521 23.1035H53.1391C57.6314 23.1035 61.2861 26.7582 61.2861 31.2505V39.872C61.2861 40.8106 60.5254 41.5713 59.5868 41.5713ZM48.0036 38.1728H57.8876V31.2505C57.8876 28.6326 55.7576 26.502 53.1398 26.502H52.7521C50.1343 26.502 48.0043 28.6326 48.0043 31.2505V38.1728H48.0036Z" fill="white"/>
<path d="M84.3497 43.1256C83.4111 43.1256 82.6504 43.8863 82.6504 44.8249V70.3868H17.6486V2.01978C17.6486 1.08122 16.8873 0.320557 15.9494 0.320557H2.88864C1.95008 0.320557 1.18941 1.08122 1.18941 2.01978V85.1309C1.18941 86.0695 1.95008 86.8301 2.88864 86.8301H84.3497C85.2875 86.8301 86.0489 86.0695 86.0489 85.1309V44.8249C86.0489 43.8863 85.2882 43.1256 84.3497 43.1256V43.1256ZM4.58786 3.719H14.2502V14.823H12.0551C11.1166 14.823 10.3559 15.5837 10.3559 16.5222C10.3559 17.4608 11.1166 18.2214 12.0551 18.2214H14.2502V29.6606H12.0551C11.1166 29.6606 10.3559 30.422 10.3559 31.3599C10.3559 32.2984 11.1166 33.0591 12.0551 33.0591H14.2502V44.4983H12.0551C11.1166 44.4983 10.3559 45.259 10.3559 46.1975C10.3559 47.1361 11.1166 47.8967 12.0551 47.8967H14.2502V59.3359H12.0551C11.1166 59.3359 10.3559 60.0966 10.3559 61.0352C10.3559 61.9737 11.1166 62.7344 12.0551 62.7344H14.2502V74.1736H12.0551C11.1166 74.1736 10.3559 74.9349 10.3559 75.8728C10.3559 76.8114 11.1166 77.572 12.0551 77.572H14.2502V83.4317H4.58786V3.719ZM82.6504 83.4317H17.6486V73.7853H25.3137V75.9757C25.3137 76.9136 26.0744 77.6749 27.0129 77.6749C27.9515 77.6749 28.7121 76.9136 28.7121 75.9757V73.7853H40.1693V75.9757C40.1693 76.9136 40.9299 77.6749 41.8685 77.6749C42.807 77.6749 43.5677 76.9136 43.5677 75.9757V73.7853H55.0248V75.9757C55.0248 76.9136 55.7862 77.6749 56.724 77.6749C57.6626 77.6749 58.4233 76.9136 58.4233 75.9757V73.7853H69.8804V75.9757C69.8804 76.9136 70.6417 77.6749 71.5796 77.6749C72.5182 77.6749 73.2788 76.9136 73.2788 75.9757V73.7853H82.6504V83.4317Z" fill="white"/>
<path d="M26.843 34.9323C27.4683 35.5708 28.4805 35.6159 29.1602 35.0371L30.3855 33.993V64.4343C30.3855 65.3722 31.1468 66.1335 32.0847 66.1335H73.8072C74.7451 66.1335 75.5064 65.3722 75.5064 64.4343V33.993L76.7317 35.0371C77.0503 35.3093 77.4426 35.4433 77.8335 35.4433C78.2756 35.4433 78.717 35.2708 79.0482 34.9323L84.4532 29.4065C84.7791 29.0733 84.9537 28.6206 84.9364 28.1553C84.9192 27.69 84.7114 27.2512 84.3616 26.9433L54.069 0.254219C53.4272 -0.311302 52.4647 -0.311302 51.8229 0.254219L21.5303 26.9433C21.1805 27.2512 20.9727 27.69 20.9555 28.1553C20.9382 28.6206 21.1128 29.0733 21.4387 29.4065L26.843 34.9323ZM48.0036 62.7351V51.0642H57.8876V62.7351H48.0036ZM72.108 62.7351H61.2861V49.365C61.2861 48.4264 60.5254 47.6658 59.5868 47.6658H46.3044C45.3665 47.6658 44.6052 48.4264 44.6052 49.365V62.7351H33.7839V31.0964L52.9459 14.7666L72.108 31.0964V62.7351ZM52.9459 3.79404L80.772 28.3099L77.7287 31.4216L54.0478 11.2407C53.4126 10.6991 52.4787 10.6991 51.8434 11.2407L28.1632 31.4216L25.1199 28.3099L52.9459 3.79404Z" fill="white"/>
</g>
<defs>
<clipPath id="clip0">
<rect width="87" height="87" fill="white"/>
</clipPath>
</defs>
</svg>
