<svg xmlns="http://www.w3.org/2000/svg" xmlns:xlink="http://www.w3.org/1999/xlink" xmlns:fi="http://pattern.flaticon.com/" x="0" y="0" width="700" height="350" viewBox="0 0 700 350"><rect x="0px" y="0px" width="100%" height="100%" opacity="0" fill="#ffffff"/><defs><g transform="matrix(0.11048618837205801 0.05248094077543017 -0.05248094077543017 0.11048618837205801 334.15019721900677 255.27978702396334)" id="L1_0"><path d="M205.645,179.137c-0.529,7.945-0.845,16.444-0.845,25.668c0,42.743,12.757,68.267,34.133,68.267     c26.94,0,34.133-32.188,34.133-51.2c0-4.719-3.814-8.533-8.533-8.533c-4.71,0-8.533,3.814-8.533,8.533     c0,0.341-0.734,34.133-17.067,34.133c-9.89,0-17.067-21.538-17.067-51.2c0-99.49,34.918-110.822,36.011-111.147     c4.506-1.015,7.398-5.444,6.485-10.001c-0.922-4.617-5.393-7.62-10.044-6.69c-1.707,0.341-7.885,1.971-15.326,8.337     c0.008-1.459,0.128-2.927,0.521-4.386c1.178-4.403,4.002-8.081,7.953-10.368c3.951-2.27,8.542-2.884,12.945-1.698     c4.403,1.178,8.09,4.002,10.359,7.953c4.71,8.141,1.903,18.603-6.246,23.313c-4.079,2.355-5.47,7.578-3.115,11.657     c1.579,2.739,4.446,4.267,7.398,4.267c1.451,0,2.918-0.367,4.258-1.143c16.29-9.421,21.888-30.336,12.493-46.626     c-4.565-7.902-11.921-13.542-20.727-15.906c-8.832-2.364-18.014-1.143-25.899,3.405c-7.902,4.565-13.551,11.921-15.906,20.736     c-2.21,8.243-1.169,16.794,2.85,24.593c-7.322,11.913-14.165,29.653-17.971,56.03c-12.783-15.3-20.173-34.782-20.173-54.724     c0-47.053,38.281-85.333,85.333-85.333c47.044,0,85.333,38.281,85.333,85.333s-38.289,85.333-85.333,85.333     c-9.276,0-18.381-1.476-27.085-4.378c-4.463-1.485-9.293,0.913-10.795,5.385c-1.493,4.471,0.922,9.301,5.393,10.795     c10.445,3.49,21.376,5.265,32.486,5.265c56.465,0,102.4-45.943,102.4-102.4c0-56.465-45.935-102.4-102.4-102.4     c-56.465,0-102.4,45.935-102.4,102.4C170.667,131.504,183.731,159.775,205.645,179.137z" fill="#e3f6ff"/><path d="M110.933,324.272H179.2c9.95,0,26.88,12.698,41.813,23.893c18.722,14.046,36.403,27.307,52.053,27.307h51.2     c12.954,0,19.396,5.879,19.567,6.033c1.664,1.664,3.849,2.5,6.033,2.5c2.185,0,4.361-0.836,6.033-2.5     c3.328-3.337,3.328-8.738,0-12.066c-1.126-1.135-11.614-11.034-31.633-11.034h-51.2c-9.958,0-26.88-12.698-41.813-23.893     c-18.722-14.046-36.412-27.307-52.053-27.307h-68.267c-4.71,0-8.533,3.814-8.533,8.533     C102.4,320.449,106.223,324.272,110.933,324.272z" fill="#e3f6ff"/><path d="M374.673,173.412l86.127,86.127v30.601h-30.601l-3.533-3.533v-22.067c0-4.719-3.814-8.533-8.533-8.533H409.6v-8.533     c0-4.719-3.814-8.533-8.533-8.533h-22.059l-3.541-3.541v-22.059c0-4.719-3.814-8.533-8.533-8.533h-22.067l-0.828-0.828     c-3.328-3.337-8.73-3.337-12.066,0s-3.337,8.73,0,12.066l3.328,3.328c1.596,1.596,3.763,2.5,6.033,2.5H358.4v17.05     c0,2.261,0.896,4.429,2.492,6.033l8.533,8.542c1.596,1.604,3.772,2.509,6.042,2.509h17.067v8.533c0,4.71,3.814,8.533,8.533,8.533     h8.533v17.067c0,2.261,0.896,4.429,2.5,6.033l8.533,8.533c1.596,1.596,3.763,2.5,6.033,2.5h42.667     c4.719,0,8.533-3.823,8.533-8.533v-42.667c0-2.261-0.905-4.437-2.5-6.033l-88.627-88.627c-3.337-3.336-8.73-3.336-12.066,0     C371.337,164.682,371.337,170.075,374.673,173.412z" fill="#e3f6ff"/><path d="M42.667,456.539c0-7.057-5.743-12.8-12.8-12.8s-12.8,5.743-12.8,12.8s5.743,12.8,12.8,12.8     S42.667,463.596,42.667,456.539z" fill="#e3f6ff"/><path d="M59.733,273.072h-51.2c-4.71,0-8.533,3.814-8.533,8.533c0,4.71,3.823,8.533,8.533,8.533h51.2     c4.702,0,8.533,3.823,8.533,8.533v187.733c0,4.702-3.831,8.533-8.533,8.533h-51.2c-4.71,0-8.533,3.814-8.533,8.533     c0,4.71,3.823,8.533,8.533,8.533h51.2c14.114,0,25.6-11.486,25.6-25.6V298.672C85.333,284.55,73.847,273.072,59.733,273.072z" fill="#e3f6ff"/><path d="M507.426,358.406c-9.412-16.307-30.362-21.888-46.097-12.774l-98.21,47.804c-15.275,7.637-30.677,7.637-64.452,7.637     c-33.015,0-83.43-8.337-83.934-8.422c-4.685-0.777-9.045,2.372-9.822,7.014c-0.768,4.651,2.372,9.045,7.014,9.822     c2.125,0.358,52.301,8.653,86.741,8.653c35.43,0,53.214,0,71.996-9.395l98.671-48.051c3.942-2.278,8.542-2.884,12.945-1.707     s8.09,4.002,10.359,7.953c2.287,3.951,2.893,8.55,1.707,12.954c-1.169,4.395-3.994,8.081-8.192,10.505l-115.371,71.808     c-0.239,0.154-24.858,15.667-80.648,15.667c-48.375,0-123.11-41.182-124.186-41.771c-0.768-0.384-19.277-9.429-55.014-9.429     c-4.71,0-8.533,3.814-8.533,8.533c0,4.71,3.823,8.533,8.533,8.533c31.036,0,47.027,7.458,47.053,7.458     c3.226,1.792,79.343,43.742,132.147,43.742c61.602,0,88.934-17.749,89.839-18.355l114.961-71.552     c7.893-4.557,13.542-11.921,15.898-20.727C513.195,375.498,511.983,366.299,507.426,358.406z" fill="#e3f6ff"/></g><g transform="matrix(0.10806896551938341 -0.05195623191600224 0.05195623191600224 0.10806896551938341 193.03354945654127 25.63514019753442)" id="L1_1"><path d="M435.2,392.533c-23.526,0-42.667,19.14-42.667,42.667s19.14,42.667,42.667,42.667c23.526,0,42.667-19.14,42.667-42.667     S458.726,392.533,435.2,392.533z M435.2,460.8c-14.114,0-25.6-11.486-25.6-25.6s11.486-25.6,25.6-25.6s25.6,11.486,25.6,25.6     S449.314,460.8,435.2,460.8z" fill="#e3f6ff"/><path d="M494.933,387.029V102.4c0-9.412-7.654-17.067-17.067-17.067h-85.333c-9.412,0-17.067,7.654-17.067,17.067v230.4     c0,4.71,3.814,8.533,8.533,8.533h17.067c4.719,0,8.533-3.823,8.533-8.533c0-4.71-3.814-8.533-8.533-8.533h-8.533V307.2h8.533     c4.719,0,8.533-3.823,8.533-8.533s-3.814-8.533-8.533-8.533h-8.533v-17.067h25.6c4.719,0,8.533-3.823,8.533-8.533     S422.852,256,418.133,256h-25.6v-17.067h8.533c4.719,0,8.533-3.823,8.533-8.533c0-4.71-3.814-8.533-8.533-8.533h-8.533V204.8     h8.533c4.719,0,8.533-3.823,8.533-8.533s-3.814-8.533-8.533-8.533h-8.533v-17.067h8.533c4.719,0,8.533-3.823,8.533-8.533     c0-4.71-3.814-8.533-8.533-8.533h-8.533v-17.067h25.6c4.719,0,8.533-3.823,8.533-8.533c0-4.71-3.814-8.533-8.533-8.533h-25.6     V102.4h85.333v268.988c-12.22-8.201-26.88-12.988-42.667-12.988c-42.351,0-76.8,34.458-76.8,76.8     c0,15.778,4.796,30.455,12.979,42.667H136.533v-85.333H153.6v25.6c0,4.71,3.823,8.533,8.533,8.533     c4.71,0,8.533-3.823,8.533-8.533v-25.6h17.067v8.533c0,4.71,3.823,8.533,8.533,8.533s8.533-3.823,8.533-8.533v-8.533h17.067     v8.533c0,4.71,3.823,8.533,8.533,8.533s8.533-3.823,8.533-8.533v-8.533H256v8.533c0,4.71,3.823,8.533,8.533,8.533     c4.719,0,8.533-3.823,8.533-8.533v-8.533h17.067v25.6c0,4.71,3.814,8.533,8.533,8.533s8.533-3.823,8.533-8.533v-25.6h17.067     v8.533c0,4.71,3.814,8.533,8.533,8.533c4.719,0,8.533-3.823,8.533-8.533V384c0-4.71-3.814-8.533-8.533-8.533H136.533     c-9.89,0-17.067,7.177-17.067,17.067v85.333c0,9.89,7.177,17.067,17.067,17.067h250.496C400.213,505.583,416.964,512,435.2,512     c42.351,0,76.8-34.458,76.8-76.8C512,416.964,505.583,400.222,494.933,387.029z M435.2,494.933     c-32.93,0-59.733-26.795-59.733-59.733s26.803-59.733,59.733-59.733c32.93,0,59.733,26.795,59.733,59.733     S468.13,494.933,435.2,494.933z" fill="#e3f6ff"/><path d="M443.733,59.733c0-4.71-3.814-8.533-8.533-8.533H102.4C102.4,22.963,79.437,0,51.2,0S0,22.963,0,51.2v409.6     C0,489.037,22.963,512,51.2,512h42.667c4.71,0,8.533-3.823,8.533-8.533c0-4.71-3.823-8.533-8.533-8.533H51.2     c-18.825,0-34.133-15.309-34.133-34.133c0-18.824,15.309-34.133,34.133-34.133s34.133,15.309,34.133,34.133     c0,4.71,3.823,8.533,8.533,8.533c4.71,0,8.533-3.823,8.533-8.533V68.267h332.8C439.919,68.267,443.733,64.444,443.733,59.733z      M85.333,422.741C76.262,414.601,64.324,409.6,51.2,409.6s-25.062,5.001-34.133,13.141V51.2     c0-18.825,15.309-34.133,34.133-34.133S85.333,32.375,85.333,51.2V422.741z" fill="#e3f6ff"/><path d="M326.767,116.966c1.664,1.664,3.849,2.5,6.033,2.5c2.185,0,4.369-0.836,6.033-2.5c3.337-3.337,3.337-8.73,0-12.066     l-17.058-17.058c-0.794-0.794-1.732-1.417-2.782-1.852c-2.082-0.862-4.437-0.862-6.519,0c-1.05,0.435-1.988,1.058-2.782,1.852     L292.634,104.9c-3.337,3.337-3.337,8.73,0,12.066c3.337,3.336,8.73,3.336,12.066,0l2.5-2.5v197.734l-2.5-2.5     c-3.337-3.336-8.73-3.336-12.066,0c-3.337,3.337-3.337,8.73,0,12.066l17.058,17.058c0.794,0.794,1.732,1.417,2.782,1.852     c1.041,0.435,2.15,0.657,3.26,0.657c1.109,0,2.219-0.222,3.26-0.657c1.05-0.435,1.988-1.058,2.782-1.852l17.058-17.058     c3.337-3.337,3.337-8.73,0-12.066c-3.336-3.336-8.73-3.336-12.066,0l-2.5,2.5V114.466L326.767,116.966z" fill="#e3f6ff"/></g><g transform="matrix(0.09667475176216561 0.04143203790479317 -0.04143203790479317 0.09667475176216561 133.85786525251265 225.64466184525855)" id="L1_2"><path d="M315.733,375.467c0,4.71,3.814,8.533,8.533,8.533c1.63,0,10.078-0.393,25.6-7.595c15.514,7.202,23.962,7.595,25.6,7.595     c4.642,0,8.346-3.721,8.439-8.363c0.094-4.642-3.627-8.508-8.26-8.704c-0.077,0-7.467-0.384-21.965-7.637     c-2.398-1.195-5.231-1.195-7.637,0c-14.49,7.253-21.888,7.637-21.777,7.637C319.548,366.933,315.733,370.756,315.733,375.467z" fill="#e0f5ff"/><path d="M136.533,110.933v337.801l-2.5-2.5c-3.337-3.337-8.738-3.337-12.075,0c-3.328,3.328-3.328,8.73,0,12.066l17.067,17.058     c0.785,0.794,1.732,1.417,2.773,1.852c1.05,0.427,2.15,0.657,3.268,0.657c1.109,0,2.21-0.23,3.26-0.657     c1.041-0.435,1.988-1.058,2.773-1.852l17.067-17.058c3.328-3.337,3.328-8.738,0-12.066c-3.336-3.337-8.738-3.337-12.075,0     l-2.492,2.5V119.467h295.125l-2.492,2.5c-3.336,3.328-3.336,8.73,0,12.066c1.664,1.664,3.849,2.5,6.033,2.5     c2.176,0,4.361-0.836,6.033-2.5l17.058-17.067c0.785-0.785,1.417-1.732,1.843-2.773c0.862-2.091,0.862-4.437,0-6.528     c-0.427-1.041-1.058-1.98-1.843-2.773L458.3,87.834c-3.336-3.337-8.738-3.337-12.066,0c-3.336,3.328-3.336,8.73,0,12.066     l2.492,2.5H145.067C140.348,102.4,136.533,106.223,136.533,110.933z" fill="#e0f5ff"/><path d="M307.2,324.267c0,4.71,3.814,8.533,8.533,8.533c4.71,0,8.533-3.823,8.533-8.533c4.71,0,8.533-3.823,8.533-8.533     s-3.823-8.533-8.533-8.533H307.2c-4.719,0-8.533,3.823-8.533,8.533S302.481,324.267,307.2,324.267z" fill="#e0f5ff"/><path d="M358.4,392.533h-17.067c-4.719,0-8.533,3.823-8.533,8.533c0,4.71,3.814,8.533,8.533,8.533H358.4     c4.71,0,8.533-3.823,8.533-8.533C366.933,396.356,363.11,392.533,358.4,392.533z" fill="#e0f5ff"/><path d="M375.467,324.267c0,4.71,3.814,8.533,8.533,8.533c4.71,0,8.533-3.823,8.533-8.533c4.71,0,8.533-3.823,8.533-8.533     s-3.823-8.533-8.533-8.533h-17.067c-4.719,0-8.533,3.823-8.533,8.533S370.748,324.267,375.467,324.267z" fill="#e0f5ff"/><path d="M401.067,452.617c-4.719,0-8.533,3.823-8.533,8.533c0,1.382-0.486,33.783-42.667,33.783     c-41.037,0-42.624-30.686-42.667-34.133c0-4.71-3.823-8.533-8.533-8.533c-99.721,0-110.37,47.505-110.771,49.519     c-0.913,4.557,2.005,8.917,6.545,9.924c4.557,1.041,9.062-1.903,10.155-6.409c0.068-0.282,6.281-22.903,51.405-32.111v30.276     c0,4.71,3.814,8.533,8.533,8.533c4.71,0,8.533-3.823,8.533-8.533v-32.811c5.572-0.58,11.426-1.05,17.937-1.229     C294.528,487.595,309.53,512,349.867,512c40.286,0,55.296-24.183,58.846-42.214c6.511,0.171,12.373,0.631,17.954,1.212v32.469     c0,4.71,3.814,8.533,8.533,8.533c4.71,0,8.533-3.823,8.533-8.533v-29.961c45.107,9.114,51.328,31.497,51.362,31.65     c0.819,4.045,4.378,6.844,8.363,6.844c0.555,0,1.118-0.06,1.69-0.171c4.625-0.93,7.612-5.427,6.682-10.052     C511.42,499.772,500.77,452.617,401.067,452.617z" fill="#e0f5ff"/><path d="M469.333,51.2H128c-4.719,0-8.533,3.823-8.533,8.533s3.814,8.533,8.533,8.533h341.333c13.875,0,25.6,11.725,25.6,25.6     v358.4c0,4.71,3.814,8.533,8.533,8.533c4.71,0,8.533-3.823,8.533-8.533v-358.4C512,70.34,492.851,51.2,469.333,51.2z" fill="#e0f5ff"/><path d="M256.239,331.426c0.802,13.858,4.156,44.689,18.261,65.835l1.818,2.773c10.743,16.341,28.706,43.699,73.549,43.699     c44.834,0,62.797-27.358,73.54-43.699l1.826-2.773c14.097-21.146,17.451-51.977,18.253-65.835     c10.052-3.456,17.314-13.013,17.314-24.226v-17.067h8.533c4.71,0,8.533-3.823,8.533-8.533v-34.133     c0-1.178-0.239-2.295-0.674-3.319c-0.111-0.265-0.333-0.452-0.469-0.7c-0.393-0.717-0.785-1.434-1.348-2.005     c-0.282-0.282-0.657-0.418-0.964-0.657c-0.563-0.427-1.092-0.896-1.741-1.169c-0.41-0.179-0.887-0.171-1.323-0.273     c-0.649-0.162-1.271-0.41-1.963-0.41c-10.513-28.962-31.864-61.295-93.918-73.242v-3.558c0-4.71-3.823-8.533-8.533-8.533H332.8     c-4.719,0-8.533,3.823-8.533,8.533v3.379c-51.439,9.097-81.929,43.511-93.815,73.421H230.4c-4.719,0-8.533,3.823-8.533,8.533     c0,0.759,0.239,1.442,0.427,2.142V281.6c0,4.71,3.823,8.533,8.533,8.533h8.107V307.2     C238.933,318.413,246.187,327.97,256.239,331.426z M443.733,307.2c0,4.702-3.831,8.533-8.533,8.533     c-4.71,0-8.525,3.823-8.533,8.525c0,0.401-0.239,40.44-15.642,63.539l-1.886,2.867c-9.984,15.189-23.646,36.002-59.273,36.002     c-35.635,0-49.297-20.813-59.281-36.002l-1.886-2.867c-15.403-23.1-15.633-63.138-15.633-63.539     c-0.008-4.702-3.831-8.525-8.533-8.525c-4.71,0-8.533-3.831-8.533-8.533v-17.067h187.733V307.2z M239.36,256h33.707     c4.71,0,8.533-3.823,8.533-8.533s-3.823-8.533-8.533-8.533h-23.953c11.426-23.305,35.942-48.111,75.153-56.047V204.8     c0,4.71,3.814,8.533,8.533,8.533c4.71,0,8.533-3.823,8.533-8.533v-31.94v-2.193H358.4v2.193v31.94     c0,4.71,3.814,8.533,8.533,8.533c4.71,0,8.533-3.823,8.533-8.533v-21.658c47.053,9.89,65.766,32.512,75.58,55.791h-24.38     c-4.719,0-8.533,3.823-8.533,8.533s3.814,8.533,8.533,8.533H460.8v17.067H239.36V256z" fill="#e0f5ff"/><path d="M162.133,494.933H51.2c-18.825,0-34.133-15.317-34.133-34.133c0-18.824,15.309-34.133,34.133-34.133     c18.816,0,34.133,15.309,34.133,34.133c0,4.71,3.814,8.533,8.533,8.533c4.71,0,8.533-3.823,8.533-8.533V51.2     C102.4,22.963,79.428,0,51.2,0C22.963,0,0,22.963,0,51.2v409.6C0,489.028,22.963,512,51.2,512h110.933     c4.71,0,8.533-3.823,8.533-8.533C170.667,498.756,166.844,494.933,162.133,494.933z M17.067,51.2     c0-18.825,15.309-34.133,34.133-34.133c18.816,0,34.133,15.309,34.133,34.133v371.541C76.262,414.601,64.316,409.6,51.2,409.6     c-13.124,0-25.062,5.001-34.133,13.141V51.2z" fill="#e0f5ff"/></g><g transform="matrix(0.06797937599157389 -0.03398968926440271 0.03398968926440271 0.06797937599157389 35.89591929446999 41.29864019784418)" id="L1_3"><path d="M39.398,383.352c1.058,0.435,2.167,0.648,3.268,0.648c2.219,0,4.403-0.87,6.033-2.5l139.059-139.051L326.767,381.5     c2.432,2.441,6.101,3.174,9.301,1.852c3.183-1.323,5.265-4.437,5.265-7.885V264.533c0-4.71-3.823-8.533-8.533-8.533     c-4.71,0-8.533,3.823-8.533,8.533v90.325L193.818,224.367c-3.2-3.2-8.917-3.2-12.117,0l-130.5,130.5V256h42.667     c4.71,0,8.533-3.823,8.533-8.533v-8.533h17.067v8.533c0,4.71,3.823,8.533,8.533,8.533s8.533-3.823,8.533-8.533V230.4     c0-4.71-3.823-8.533-8.533-8.533H93.867c-4.71,0-8.533,3.823-8.533,8.533v8.533H42.667c-4.71,0-8.533,3.823-8.533,8.533v128     C34.133,378.914,36.215,382.029,39.398,383.352z" fill="#e3f6ff"/><path d="M239.778,179.14c-0.529,7.945-0.845,16.435-0.845,25.66c0,42.743,12.757,68.267,34.133,68.267     c26.948,0,34.133-32.179,34.133-51.2c0-4.71-3.823-8.533-8.533-8.533s-8.533,3.823-8.533,8.533     c0,0.341-0.734,34.133-17.067,34.133c-9.89,0-17.067-21.53-17.067-51.2c0-99.49,34.918-110.822,36.019-111.138     c4.497-1.024,7.39-5.453,6.477-10.001c-0.913-4.617-5.376-7.62-10.035-6.69c-1.707,0.341-7.893,1.963-15.334,8.337     c0.009-1.468,0.128-2.935,0.521-4.395c1.178-4.403,4.002-8.081,7.953-10.359c3.951-2.278,8.55-2.884,12.945-1.707     c4.403,1.186,8.09,4.011,10.359,7.953c4.71,8.149,1.911,18.611-6.238,23.313c-4.087,2.364-5.478,7.586-3.123,11.665     c1.579,2.731,4.446,4.258,7.398,4.258c1.451,0,2.918-0.367,4.258-1.143c16.299-9.421,21.897-30.336,12.493-46.626     c-4.557-7.893-11.921-13.542-20.727-15.906c-8.823-2.364-18.014-1.143-25.899,3.413c-7.893,4.557-13.542,11.921-15.906,20.727     c-2.21,8.243-1.161,16.802,2.85,24.593c-7.322,11.913-14.165,29.653-17.971,56.038c-12.774-15.3-20.173-34.79-20.173-54.733     c0-47.053,38.281-85.333,85.333-85.333s85.333,38.281,85.333,85.333s-38.281,85.333-85.333,85.333     c-9.267,0-18.381-1.476-27.076-4.378c-4.454-1.485-9.301,0.922-10.795,5.385c-1.502,4.471,0.913,9.301,5.385,10.795     c10.445,3.49,21.376,5.265,32.486,5.265c56.465,0,102.4-45.935,102.4-102.4C409.6,45.935,363.665,0,307.2,0     S204.8,45.935,204.8,102.4C204.8,131.499,217.865,159.778,239.778,179.14z" fill="#e3f6ff"/><path d="M509.5,249.967l-88.627-88.627c-3.328-3.328-8.73-3.328-12.066,0c-3.328,3.337-3.328,8.738,0,12.066l86.127,86.127     v30.601h-30.601l-3.533-3.533v-22.067c0-4.71-3.823-8.533-8.533-8.533h-8.533v-8.533c0-4.71-3.823-8.533-8.533-8.533h-22.059     l-3.541-3.541v-22.059c0-4.71-3.823-8.533-8.533-8.533H379l-0.828-0.828c-3.328-3.328-8.73-3.328-12.066,0     c-3.328,3.337-3.328,8.738,0,12.066l3.328,3.328c1.596,1.604,3.772,2.5,6.033,2.5h17.067v17.058c0,2.261,0.896,4.429,2.492,6.025     l8.533,8.55c1.604,1.604,3.772,2.5,6.042,2.5h17.067v8.533c0,4.71,3.823,8.533,8.533,8.533h8.533v17.067     c0,2.261,0.896,4.437,2.5,6.033l8.533,8.533c1.596,1.604,3.772,2.5,6.033,2.5h42.667c4.71,0,8.533-3.823,8.533-8.533V256     C512,253.739,511.104,251.563,509.5,249.967z" fill="#e3f6ff"/><path d="M213.333,375.467c-4.71,0-8.533,3.823-8.533,8.533v68.267c0,4.71,3.823,8.533,8.533,8.533h51.2     c4.71,0,8.533-3.823,8.533-8.533V384c0-4.71-3.823-8.533-8.533-8.533H213.333z M256,443.733h-34.133v-51.2H256V443.733z" fill="#e3f6ff"/><path d="M503.467,494.933H409.6v-34.995c19.447-3.968,34.133-21.197,34.133-41.805c0-1.109-0.486-110.933-42.667-110.933     c-42.18,0-42.667,109.824-42.667,110.933c0,20.608,14.686,37.837,34.133,41.805v34.995h-68.267V396.8     c0-4.71-3.823-8.533-8.533-8.533s-8.533,3.823-8.533,8.533v98.133H187.733V384c0-4.71-3.823-8.533-8.533-8.533h-68.267     c-4.71,0-8.533,3.823-8.533,8.533v110.933H68.267V396.8c0-4.71-3.823-8.533-8.533-8.533S51.2,392.09,51.2,396.8v98.133H8.533     c-4.71,0-8.533,3.823-8.533,8.533S3.823,512,8.533,512h494.933c4.71,0,8.533-3.823,8.533-8.533S508.177,494.933,503.467,494.933z      M170.667,435.2h-8.533c-4.71,0-8.533,3.823-8.533,8.533s3.823,8.533,8.533,8.533h8.533v42.667h-51.2v-102.4h51.2V435.2z      M375.467,418.133c0-42.513,11.418-93.867,25.6-93.867c14.182,0,25.6,51.354,25.6,93.867c0,14.114-11.486,25.6-25.6,25.6     C386.953,443.733,375.467,432.247,375.467,418.133z" fill="#e3f6ff"/></g><g transform="matrix(0.1171875 0 0 0.1171875 247 178)" id="L1_4"><path d="M503.467,324.267h-34.133c-4.71,0-8.533,3.823-8.533,8.533v162.133h-17.067V298.667c0-4.71-3.823-8.533-8.533-8.533H384     c-4.71,0-8.533,3.823-8.533,8.533v196.267H358.4V349.867c0-4.71-3.823-8.533-8.533-8.533h-51.2c-4.71,0-8.533,3.823-8.533,8.533     v145.067h-17.067v-93.867c0-4.71-3.823-8.533-8.533-8.533h-51.2c-4.71,0-8.533,3.823-8.533,8.533v93.867h-17.067v-42.667     c0-4.71-3.823-8.533-8.533-8.533H128c-4.71,0-8.533,3.823-8.533,8.533v42.667H51.2V307.2c0-4.71-3.823-8.533-8.533-8.533     c-4.71,0-8.533,3.823-8.533,8.533v187.733h-25.6c-4.71,0-8.533,3.823-8.533,8.533S3.823,512,8.533,512H128     c4.71,0,8.533-3.823,8.533-8.533V460.8h34.133v42.667c0,4.71,3.823,8.533,8.533,8.533h34.133c4.71,0,8.533-3.823,8.533-8.533     V409.6H256v93.867c0,4.71,3.823,8.533,8.533,8.533h34.133c4.71,0,8.533-3.823,8.533-8.533V358.4h34.133v145.067     c0,4.71,3.823,8.533,8.533,8.533H384c4.71,0,8.533-3.823,8.533-8.533V307.2h34.133v196.267c0,4.71,3.823,8.533,8.533,8.533     h34.133c4.71,0,8.533-3.823,8.533-8.533V341.333h25.6c4.71,0,8.533-3.823,8.533-8.533     C512,328.09,508.177,324.267,503.467,324.267z" fill="#e3f6ff"/><path d="M503.467,68.267H341.333c-4.71,0-8.533,3.823-8.533,8.533s3.823,8.533,8.533,8.533h153.6v184.201l-232.9-232.9     c-1.673-1.673-3.866-2.5-6.059-2.5s-4.386,0.828-6.059,2.5L17.067,269.525V85.333h93.867c4.71,0,8.533-3.823,8.533-8.533V42.667     c0-4.71-3.823-8.533-8.533-8.533H102.4V17.067h51.2v17.067h-8.533c-4.71,0-8.533,3.823-8.533,8.533V76.8     c0,4.71,3.823,8.533,8.533,8.533h25.6c4.71,0,8.533-3.823,8.533-8.533s-3.823-8.533-8.533-8.533H153.6V51.2h8.533     c4.71,0,8.533-3.823,8.533-8.533V8.533c0-4.71-3.823-8.533-8.533-8.533H93.867c-4.71,0-8.533,3.823-8.533,8.533v34.133     c0,4.71,3.823,8.533,8.533,8.533h8.533v17.067H8.533c-2.261,0-4.437,0.896-6.033,2.5C0.896,72.363,0,74.539,0,76.8l0.034,213.333     c0,3.456,2.082,6.562,5.274,7.885c1.058,0.435,2.159,0.649,3.26,0.649c2.227,0,4.412-0.87,6.033-2.5L255.974,54.707     l241.459,241.459c1.63,1.63,3.814,2.5,6.033,2.5c1.101,0,2.21-0.213,3.268-0.649c3.183-1.323,5.265-4.437,5.265-7.885V76.8     C512,72.09,508.177,68.267,503.467,68.267z" fill="#e3f6ff"/><path d="M290.133,170.667c0-18.825-15.309-34.133-34.133-34.133c-18.825,0-34.133,15.309-34.133,34.133S237.175,204.8,256,204.8     C274.825,204.8,290.133,189.491,290.133,170.667z M238.933,170.667c0-9.412,7.654-17.067,17.067-17.067     c9.412,0,17.067,7.654,17.067,17.067c0,9.412-7.654,17.067-17.067,17.067C246.588,187.733,238.933,180.079,238.933,170.667z" fill="#e3f6ff"/><path d="M204.8,298.667v68.267c0,4.71,3.823,8.533,8.533,8.533c4.71,0,8.533-3.823,8.533-8.533V307.2h68.267v8.533     c0,4.71,3.823,8.533,8.533,8.533s8.533-3.823,8.533-8.533v-17.067c0-4.71-3.823-8.533-8.533-8.533h-85.333     C208.623,290.133,204.8,293.956,204.8,298.667z" fill="#e3f6ff"/><path d="M162.133,290.133H93.867c-4.71,0-8.533,3.823-8.533,8.533v93.867H76.8c-4.71,0-8.533,3.823-8.533,8.533     S72.09,409.6,76.8,409.6h102.4c4.71,0,8.533-3.823,8.533-8.533s-3.823-8.533-8.533-8.533h-8.533v-93.867     C170.667,293.956,166.844,290.133,162.133,290.133z M153.6,392.533h-51.2V358.4h51.2V392.533z M153.6,341.333h-51.2V307.2h51.2     V341.333z" fill="#e3f6ff"/></g><g transform="matrix(0.07457766739510116 0.058004854695689306 -0.058004854695689306 0.07457766739510116 56.757359948950565 134.05887434475764)" id="L1_5"><path d="M469.333,51.2H128c-4.719,0-8.533,3.823-8.533,8.533s3.814,8.533,8.533,8.533h341.333c13.875,0,25.6,11.725,25.6,25.6     v375.467c0,14.353-11.238,25.6-25.6,25.6H51.2c-18.825,0-34.133-15.309-34.133-34.133c0-18.825,15.309-34.133,34.133-34.133     s34.133,15.309,34.133,34.133c0,4.71,3.814,8.533,8.533,8.533c4.719,0,8.533-3.823,8.533-8.533V51.2     C102.4,22.963,79.437,0,51.2,0S0,22.963,0,51.2v409.6C0,489.037,22.963,512,51.2,512h418.133     C493.261,512,512,493.261,512,469.333V93.867C512,70.34,492.86,51.2,469.333,51.2z M17.067,51.2     c0-18.825,15.309-34.133,34.133-34.133S85.333,32.375,85.333,51.2v371.55c-9.071-8.149-21.018-13.15-34.133-13.15     s-25.071,5-34.133,13.15V51.2z" fill="#e3f6ff"/><path d="M349.867,443.733c-4.719,0-8.533,3.823-8.533,8.533c0,4.71,3.814,8.533,8.533,8.533h102.4     c4.719,0,8.533-3.823,8.533-8.533V110.933c0-4.71-3.814-8.533-8.533-8.533h-307.2c-4.719,0-8.533,3.823-8.533,8.533v341.333     c0,4.71,3.814,8.533,8.533,8.533h170.667c4.719,0,8.533-3.823,8.533-8.533c0-39.467,29.918-72.073,68.267-76.331v42.197     c0,4.71,3.814,8.533,8.533,8.533c4.719,0,8.533-3.823,8.533-8.533v-51.2c0-4.71-3.814-8.533-8.533-8.533     c-48.879,0-89.097,37.564-93.432,85.333H153.6V307.2h162.133c4.719,0,8.533-3.823,8.533-8.533v-34.133     c0-4.71-3.814-8.533-8.533-8.533s-8.533,3.823-8.533,8.533v25.6H153.6V119.467h153.6V179.2c0,4.71,3.814,8.533,8.533,8.533     s8.533-3.823,8.533-8.533v-59.733h119.467v170.667h-42.667c-4.719,0-8.533,3.823-8.533,8.533s3.814,8.533,8.533,8.533h42.667     v136.533H349.867z" fill="#e3f6ff"/></g></defs><g fi:class="KUsePattern"><pattern id="pattern_L1_0" width="350" height="350" patternUnits="userSpaceOnUse"><use xlink:href="#L1_0" x="-350" y="-350"/><use xlink:href="#L1_0" x="0" y="-350"/><use xlink:href="#L1_0" x="350" y="-350"/><use xlink:href="#L1_0" x="-350" y="0"/><use xlink:href="#L1_0" x="0" y="0"/><use xlink:href="#L1_0" x="350" y="0"/><use xlink:href="#L1_0" x="-350" y="350"/><use xlink:href="#L1_0" x="0" y="350"/><use xlink:href="#L1_0" x="350" y="350"/></pattern><rect x="0" y="0" width="100%" height="100%" fill="url(#pattern_L1_0)"/></g><g fi:class="KUsePattern"><pattern id="pattern_L1_1" width="350" height="350" patternUnits="userSpaceOnUse"><use xlink:href="#L1_1" x="-350" y="-350"/><use xlink:href="#L1_1" x="0" y="-350"/><use xlink:href="#L1_1" x="350" y="-350"/><use xlink:href="#L1_1" x="-350" y="0"/><use xlink:href="#L1_1" x="0" y="0"/><use xlink:href="#L1_1" x="350" y="0"/><use xlink:href="#L1_1" x="-350" y="350"/><use xlink:href="#L1_1" x="0" y="350"/><use xlink:href="#L1_1" x="350" y="350"/></pattern><rect x="0" y="0" width="100%" height="100%" fill="url(#pattern_L1_1)"/></g><g fi:class="KUsePattern"><pattern id="pattern_L1_2" width="350" height="350" patternUnits="userSpaceOnUse"><use xlink:href="#L1_2" x="-350" y="-350"/><use xlink:href="#L1_2" x="0" y="-350"/><use xlink:href="#L1_2" x="350" y="-350"/><use xlink:href="#L1_2" x="-350" y="0"/><use xlink:href="#L1_2" x="0" y="0"/><use xlink:href="#L1_2" x="350" y="0"/><use xlink:href="#L1_2" x="-350" y="350"/><use xlink:href="#L1_2" x="0" y="350"/><use xlink:href="#L1_2" x="350" y="350"/></pattern><rect x="0" y="0" width="100%" height="100%" fill="url(#pattern_L1_2)"/></g><g fi:class="KUsePattern"><pattern id="pattern_L1_3" width="350" height="350" patternUnits="userSpaceOnUse"><use xlink:href="#L1_3" x="-350" y="-350"/><use xlink:href="#L1_3" x="0" y="-350"/><use xlink:href="#L1_3" x="350" y="-350"/><use xlink:href="#L1_3" x="-350" y="0"/><use xlink:href="#L1_3" x="0" y="0"/><use xlink:href="#L1_3" x="350" y="0"/><use xlink:href="#L1_3" x="-350" y="350"/><use xlink:href="#L1_3" x="0" y="350"/><use xlink:href="#L1_3" x="350" y="350"/></pattern><rect x="0" y="0" width="100%" height="100%" fill="url(#pattern_L1_3)"/></g><g fi:class="KUsePattern"><pattern id="pattern_L1_4" width="350" height="350" patternUnits="userSpaceOnUse"><use xlink:href="#L1_4" x="-350" y="-350"/><use xlink:href="#L1_4" x="0" y="-350"/><use xlink:href="#L1_4" x="350" y="-350"/><use xlink:href="#L1_4" x="-350" y="0"/><use xlink:href="#L1_4" x="0" y="0"/><use xlink:href="#L1_4" x="350" y="0"/><use xlink:href="#L1_4" x="-350" y="350"/><use xlink:href="#L1_4" x="0" y="350"/><use xlink:href="#L1_4" x="350" y="350"/></pattern><rect x="0" y="0" width="100%" height="100%" fill="url(#pattern_L1_4)"/></g><g fi:class="KUsePattern"><pattern id="pattern_L1_5" width="350" height="350" patternUnits="userSpaceOnUse"><use xlink:href="#L1_5" x="-350" y="-350"/><use xlink:href="#L1_5" x="0" y="-350"/><use xlink:href="#L1_5" x="350" y="-350"/><use xlink:href="#L1_5" x="-350" y="0"/><use xlink:href="#L1_5" x="0" y="0"/><use xlink:href="#L1_5" x="350" y="0"/><use xlink:href="#L1_5" x="-350" y="350"/><use xlink:href="#L1_5" x="0" y="350"/><use xlink:href="#L1_5" x="350" y="350"/></pattern><rect x="0" y="0" width="100%" height="100%" fill="url(#pattern_L1_5)"/></g></svg>