<svg width="1919" height="864" viewBox="0 0 1919 864" fill="none" xmlns="http://www.w3.org/2000/svg">
<mask id="mask0" mask-type="alpha" maskUnits="userSpaceOnUse" x="0" y="0" width="1919" height="864">
<rect width="1919" height="864" fill="#C4C4C4"/>
</mask>
<g mask="url(#mask0)">
<path d="M948.839 431.755L988.818 438.853L1020.8 229.475L948.839 431.755Z" fill="#009EE1" stroke="#009EE1" stroke-width="1.51"/>
<path d="M1020.8 229.475L770.265 327.658L948.839 431.755L1020.8 229.475Z" fill="#06A4E2" stroke="#06A4E2" stroke-width="1.51"/>
<path d="M988.818 438.853L1190.05 331.207L1020.8 229.475L988.818 438.853Z" fill="#039CDA" stroke="#039CDA" stroke-width="1.51"/>
<path d="M1020.8 229.475L1172.72 107.634L976.824 192.804L1020.8 229.475Z" fill="#0FA7DA" stroke="#0FA7DA" stroke-width="1.51"/>
<path d="M976.824 192.804L770.265 327.658L1020.8 229.475L976.824 192.804Z" fill="#0CA9E1" stroke="#0CA9E1" stroke-width="1.51"/>
<path d="M988.818 438.853L1287.33 405.731L1190.05 331.207L988.818 438.853Z" fill="#0293D1" stroke="#0293D1" stroke-width="1.51"/>
<path d="M948.839 431.756L1075.44 593.816L988.818 438.853L948.839 431.756Z" fill="#0292CF" stroke="#0292CF" stroke-width="1.51"/>
<path d="M786.257 667.158L1075.44 593.817L948.839 431.756L786.257 667.158Z" fill="#038FC9" stroke="#038FC9" stroke-width="1.51"/>
<path d="M1075.44 593.816L1287.33 405.731L988.818 438.853L1075.44 593.816Z" fill="#028EC8" stroke="#028EC8" stroke-width="1.51"/>
<path d="M1190.05 331.207L1172.72 107.634L1020.8 229.475L1190.05 331.207Z" fill="#0CA1D4" stroke="#0CA1D4" stroke-width="1.51"/>
<path d="M1475.23 233.024L1172.72 107.634L1190.05 331.207L1475.23 233.024Z" fill="#0C99C9" stroke="#0C99C9" stroke-width="1.51"/>
<path d="M976.824 192.804L779.594 130.109L770.265 327.658L976.824 192.804Z" fill="#10AEE0" stroke="#10AEE0" stroke-width="1.51"/>
<path d="M779.594 130.109L707.631 212.914L770.265 327.658L779.594 130.109Z" fill="#11B1E0" stroke="#11B1E0" stroke-width="1.51"/>
<path d="M707.631 212.914L411.785 324.109L770.265 327.658L707.631 212.914Z" fill="#11B1E0" stroke="#11B1E0" stroke-width="1.51"/>
<path d="M779.594 130.109L623.675 172.695L707.631 212.914L779.594 130.109Z" fill="#13B6DF" stroke="#13B6DF" stroke-width="1.51"/>
<path d="M1075.44 593.816L1255.35 630.487L1287.33 405.731L1075.44 593.816Z" fill="#0383BA" stroke="#0383BA" stroke-width="1.51"/>
<path d="M602.353 513.377L948.839 431.755L770.265 327.658L602.353 513.377Z" fill="#09A1DA" stroke="#09A1DA" stroke-width="1.51"/>
<path d="M602.353 513.378L786.257 667.158L948.839 431.756L602.353 513.378Z" fill="#0997CB" stroke="#0997CB" stroke-width="1.51"/>
<path d="M1075.44 593.816L1176.72 811.475L1255.35 630.487L1075.44 593.816Z" fill="#0782B6" stroke="#0782B6" stroke-width="1.51"/>
<path d="M411.785 324.109L602.353 513.378L770.265 327.658L411.785 324.109Z" fill="#0FABDE" stroke="#0FABDE" stroke-width="1.51"/>
<path d="M602.353 513.377L601.02 591.451L786.257 667.158L602.353 513.377Z" fill="#0D96C4" stroke="#0D96C4" stroke-width="1.51"/>
<path d="M1287.33 405.731L1475.23 233.024L1190.05 331.207L1287.33 405.731Z" fill="#0691C8" stroke="#0691C8" stroke-width="1.51"/>
<path d="M1255.35 630.487L1479.23 411.646L1287.33 405.731L1255.35 630.487Z" fill="#0382B8" stroke="#0382B8" stroke-width="1.51"/>
<path d="M1479.23 411.646L1475.23 233.024L1287.33 405.731L1479.23 411.646Z" fill="#048AC2" stroke="#048AC2" stroke-width="1.51"/>
<path d="M708.964 819.755L855.554 772.438L786.257 667.158L708.964 819.755Z" fill="#149BCE" stroke="#149BCE" stroke-width="1.51"/>
<path d="M786.257 667.158L855.554 772.438L1075.44 593.816L786.257 667.158Z" fill="#098FC5" stroke="#098FC5" stroke-width="1.51"/>
<path d="M1255.35 630.487L1352.63 683.719L1479.23 411.646L1255.35 630.487Z" fill="#0479AB" stroke="#0479AB" stroke-width="1.51"/>
<path d="M1176.72 811.475L1352.63 683.719L1255.35 630.487L1176.72 811.475Z" fill="#0A81B4" stroke="#0A81B4" stroke-width="1.51"/>
<path d="M601.02 591.451L708.964 819.755L786.257 667.158L601.02 591.451Z" fill="#1198C6" stroke="#1198C6" stroke-width="1.51"/>
<path d="M602.353 513.377L538.386 624.572L601.02 591.451L602.353 513.377Z" fill="#0E9BC5" stroke="#0E9BC5" stroke-width="1.51"/>
<path d="M394.461 372.609L538.386 624.573L602.353 513.378L394.461 372.609Z" fill="#10A4CE" stroke="#10A4CE" stroke-width="1.51"/>
<path d="M1000.81 863.524L1176.72 811.475L1075.44 593.816L1000.81 863.524Z" fill="#0F8EC7" stroke="#0F8EC7" stroke-width="1.51"/>
<path d="M1475.23 233.024L1513.88 120.646L1172.72 107.634L1475.23 233.024Z" fill="#0E98C1" stroke="#0E98C1" stroke-width="1.51"/>
<path d="M1587.17 159.682L1513.88 120.646L1475.23 233.024L1587.17 159.682Z" fill="#119AC4" stroke="#119AC4" stroke-width="1.51"/>
<path d="M623.675 172.695L411.785 324.109L707.631 212.914L623.675 172.695Z" fill="#13B6DF" stroke="#13B6DF" stroke-width="1.51"/>
<path d="M441.103 188.073L411.785 324.109L623.675 172.695L441.103 188.073Z" fill="#12BADE" stroke="#12BADE" stroke-width="1.51"/>
<path d="M855.554 772.438L1000.81 863.524L1075.44 593.816L855.554 772.438Z" fill="#0D92CD" stroke="#0D92CD" stroke-width="1.51"/>
<path d="M207.892 298.085L394.461 372.609L411.785 324.109L207.892 298.085Z" fill="#35B6E4" stroke="#35B6E4" stroke-width="1.51"/>
<path d="M411.785 324.109L394.461 372.609L602.353 513.378L411.785 324.109Z" fill="#15AEDB" stroke="#15AEDB" stroke-width="1.51"/>
<path d="M538.386 624.573L708.964 819.755L601.02 591.451L538.386 624.573Z" fill="#1199C3" stroke="#1199C3" stroke-width="1.51"/>
<path d="M1479.23 411.646L1615.16 386.804L1475.23 233.024L1479.23 411.646Z" fill="#098EC6" stroke="#098EC6" stroke-width="1.51"/>
<path d="M1587.17 584.353L1615.16 386.804L1479.23 411.646L1587.17 584.353Z" fill="#0987BC" stroke="#0987BC" stroke-width="1.51"/>
<path d="M1627.15 224.743L1587.17 159.682L1475.23 233.024L1627.15 224.743Z" fill="#129AC7" stroke="#129AC7" stroke-width="1.51"/>
<path d="M1615.16 386.804L1627.15 224.743L1475.23 233.024L1615.16 386.804Z" fill="#0F95C8" stroke="#0F95C8" stroke-width="1.51"/>
<path d="M1408.6 820.938L1587.17 584.353L1352.63 683.719L1408.6 820.938Z" fill="#0978A6" stroke="#0978A6" stroke-width="1.51"/>
<path d="M1352.63 683.719L1587.17 584.353L1479.23 411.646L1352.63 683.719Z" fill="#0579A9" stroke="#0579A9" stroke-width="1.51"/>
<path d="M1176.72 811.475L1408.6 820.938L1352.63 683.719L1176.72 811.475Z" fill="#0F85B8" stroke="#0F85B8" stroke-width="1.51"/>
<path d="M441.103 188.073L207.892 298.085L411.785 324.109L441.103 188.073Z" fill="#33BAE3" stroke="#33BAE3" stroke-width="1.51"/>
<path d="M538.386 624.573L406.455 713.292L708.964 819.755L538.386 624.573Z" fill="#14A0C8" stroke="#14A0C8" stroke-width="1.51"/>
<path d="M255.867 526.39L406.455 713.292L538.386 624.573L255.867 526.39Z" fill="#249BC1" stroke="#249BC1" stroke-width="1.51"/>
<path d="M394.461 372.609L255.867 526.39L538.386 624.573L394.461 372.609Z" fill="#27A6D0" stroke="#27A6D0" stroke-width="1.51"/>
<path d="M207.892 298.085L255.867 526.389L394.461 372.609L207.892 298.085Z" fill="#3CB2E2" stroke="#3CB2E2" stroke-width="1.51"/>
<path d="M1587.17 584.353L1760.42 468.426L1615.16 386.804L1587.17 584.353Z" fill="#0D8AC0" stroke="#0D8AC0" stroke-width="1.51"/>
<path d="M1615.16 386.804L1900.34 318.195L1627.15 224.743L1615.16 386.804Z" fill="#149BD3" stroke="#149BD3" stroke-width="1.51"/>
<path d="M1901.68 699.097L1760.42 468.426L1587.17 584.353L1901.68 699.097Z" fill="#1186BA" stroke="#1186BA" stroke-width="1.51"/>
<path d="M289.183 102.902L207.892 298.085L441.103 188.073L289.183 102.902Z" fill="#3ABFE4" stroke="#3ABFE4" stroke-width="1.51"/>
<path d="M255.867 526.39L211.89 579.621L406.455 713.292L255.867 526.39Z" fill="#369FC7" stroke="#369FC7" stroke-width="1.51"/>
<path d="M115.94 440.036L211.89 579.621L255.867 526.389L115.94 440.036Z" fill="#45A9D6" stroke="#45A9D6" stroke-width="1.51"/>
<path d="M1856.37 159.682H1587.17L1627.15 224.743L1856.37 159.682Z" fill="#17A2CF" stroke="#17A2CF" stroke-width="1.51"/>
<path d="M137.262 80.4265L110.609 348.951L207.892 298.085L137.262 80.4265Z" fill="#50BFEA" stroke="#50BFEA" stroke-width="1.51"/>
<path d="M1408.6 820.938L1705.78 841.048L1587.17 584.353L1408.6 820.938Z" fill="#1283B5" stroke="#1283B5" stroke-width="1.51"/>
<path d="M137.262 80.4265L207.892 298.085L289.183 102.902L137.262 80.4265Z" fill="#49C4E6" stroke="#49C4E6" stroke-width="1.51"/>
<path d="M207.892 298.085L115.94 440.036L255.867 526.389L207.892 298.085Z" fill="#47B2E3" stroke="#47B2E3" stroke-width="1.51"/>
<path d="M110.609 348.951L115.94 440.036L207.892 298.085L110.609 348.951Z" fill="#50B8EC" stroke="#50B8EC" stroke-width="1.51"/>
<path d="M1900.34 318.195L1856.37 159.682L1627.15 224.743L1900.34 318.195Z" fill="#1AA5D8" stroke="#1AA5D8" stroke-width="1.51"/>
<path d="M121.27 16.5485L137.262 80.4265L289.183 102.902L121.27 16.5485Z" fill="#55CAE9" stroke="#55CAE9" stroke-width="1.51"/>
<path d="M1997.63 328.841L1900.34 318.195L2024.28 366.695L1997.63 328.841Z" fill="#1BA6E2" stroke="#1BA6E2" stroke-width="1.51"/>
<path d="M1760.42 468.426L1900.34 318.195L1615.16 386.804L1760.42 468.426Z" fill="#1398D3" stroke="#1398D3" stroke-width="1.51"/>
<path d="M35 665.709L208.243 775.721L212.241 579.355L35 665.709Z" fill="#48A3CD" stroke="#48A3CD" stroke-width="1.51"/>
<path d="M211.89 579.621L207.892 775.987L406.455 713.292L211.89 579.621Z" fill="#3AA3CB" stroke="#3AA3CB" stroke-width="1.51"/>
<path d="M137.262 80.4265L-18.6569 318.195L110.609 348.951L137.262 80.4265Z" fill="#59C0EC" stroke="#59C0EC" stroke-width="1.51"/>
<path d="M1872.36 767.707L1587.17 584.353L1705.78 841.048L1872.36 767.707Z" fill="#178BBE" stroke="#178BBE" stroke-width="1.51"/>
<path d="M1872.36 767.707L1901.68 699.097L1587.17 584.353L1872.36 767.707Z" fill="#1689BD" stroke="#1689BD" stroke-width="1.51"/>
<path d="M1900.34 318.195L1976.3 141.939L1856.37 159.683L1900.34 318.195Z" fill="#1EAEE0" stroke="#1EAEE0" stroke-width="1.51"/>
<path d="M2024.28 366.695L1900.34 318.195L1760.42 468.426L2024.28 366.695Z" fill="#18A1DE" stroke="#18A1DE" stroke-width="1.51"/>
<path d="M1997.63 328.841L1976.3 141.939L1900.34 318.195L1997.63 328.841Z" fill="#1EABE1" stroke="#1EABE1" stroke-width="1.51"/>
<path d="M-139.927 40.207L-18.6569 318.195L137.262 80.4265L-139.927 40.207Z" fill="#62C9EE" stroke="#62C9EE" stroke-width="1.51"/>
<path d="M110.609 348.951L-18.6569 318.195L115.94 440.036L110.609 348.951Z" fill="#58B9EE" stroke="#58B9EE" stroke-width="1.51"/>
<path d="M115.94 440.036L34.6486 665.975L211.89 579.621L115.94 440.036Z" fill="#4CA6D3" stroke="#4CA6D3" stroke-width="1.51"/>
<path d="M-122.603 602.097L34.6486 665.975L115.94 440.036L-122.603 602.097Z" fill="#57A7D5" stroke="#57A7D5" stroke-width="1.51"/>
<path d="M2038.94 674.255L2024.28 366.695L1760.42 468.426L2038.94 674.255Z" fill="#1998D0" stroke="#1998D0" stroke-width="1.51"/>
<path d="M121.27 16.5485L-139.927 40.207L137.262 80.4265L121.27 16.5485Z" fill="#68CEEF" stroke="#68CEEF" stroke-width="1.51"/>
<path d="M1901.68 699.097L2038.94 674.255L1760.42 468.426L1901.68 699.097Z" fill="#178DC1" stroke="#178DC1" stroke-width="1.51"/>
<path d="M1872.36 767.707L2038.94 674.255L1901.68 699.097L1872.36 767.707Z" fill="#1C94CA" stroke="#1C94CA" stroke-width="1.51"/>
<path d="M2097.57 713.292L2038.94 674.255L1872.36 767.707L2097.57 713.292Z" fill="#1C95CA" stroke="#1C95CA" stroke-width="1.51"/>
<path d="M-18.6569 318.195L-143.925 430.573L115.94 440.036L-18.6569 318.195Z" fill="#5EB8ED" stroke="#5EB8ED" stroke-width="1.51"/>
<path d="M-143.925 430.573L-122.603 602.097L115.94 440.036L-143.925 430.573Z" fill="#5BAFE0" stroke="#5BAFE0" stroke-width="1.51"/>
<path d="M-106.611 -13.0247L-139.927 40.207L121.27 16.5485L-106.611 -13.0247Z" fill="#72CFF3" stroke="#72CFF3" stroke-width="1.51"/>
<path d="M-122.603 602.097L-142.592 796.097L34.6486 665.975L-122.603 602.097Z" fill="#59A7D5" stroke="#59A7D5" stroke-width="1.51"/>
</g>
</svg>
