<svg width="90" height="90" viewBox="0 0 90 90" fill="none" xmlns="http://www.w3.org/2000/svg">
<path d="M79.809 32.1926H77.6479V21.7652C77.6479 21.7002 77.6377 21.6347 77.63 21.5682C77.6265 21.1545 77.4939 20.7479 77.2104 20.4257L59.8572 0.603566C59.8518 0.598478 59.8467 0.596672 59.8433 0.591255C59.7398 0.475696 59.6194 0.379506 59.4915 0.296448C59.4539 0.27117 59.4158 0.249995 59.3763 0.227671C59.266 0.167758 59.1486 0.117365 59.0281 0.0810883C58.9953 0.0725527 58.9659 0.0590927 58.9334 0.0505571C58.8022 0.0193693 58.6662 0 58.5285 0H15.8824C13.9351 0 12.3531 1.58385 12.3531 3.52948V32.1916H10.1923C7.40652 32.1916 5.14771 34.4496 5.14771 37.2363V63.4688C5.14771 66.2529 7.40652 68.5132 10.1923 68.5132H12.3531V86.4707C12.3531 88.4165 13.9351 90 15.8824 90H74.1176C76.0632 90 77.6469 88.4165 77.6469 86.4707V68.5134H79.8081C82.593 68.5134 84.8521 66.2541 84.8521 63.469V37.2373C84.8523 34.4497 82.5946 32.1926 79.809 32.1926ZM15.8824 3.52948H56.7637V21.5866C56.7637 22.5616 57.5544 23.3513 58.5285 23.3513H74.1178V32.1924H15.8824V3.52948ZM51.6366 51.6505C48.1692 50.4425 45.9066 48.5243 45.9066 45.4878C45.9066 41.9261 48.8793 39.2014 53.8046 39.2014C56.157 39.2014 57.8924 39.6962 59.1299 40.2541L58.0775 44.0623C57.2419 43.6608 55.7555 43.0714 53.7116 43.0714C51.6676 43.0714 50.6768 44.0008 50.6768 45.0848C50.6768 46.4168 51.8539 47.0046 54.5474 48.0265C58.2318 49.3897 59.9664 51.3094 59.9664 54.251C59.9664 57.7511 57.2719 60.7242 51.5427 60.7242C49.1586 60.7242 46.8053 60.1055 45.6283 59.4542L46.5875 55.5524C47.8576 56.2021 49.8092 56.8536 51.8213 56.8536C53.9909 56.8536 55.135 55.9557 55.135 54.5926C55.1359 53.2929 54.1451 52.5482 51.6366 51.6505ZM43.6494 56.4499V60.4152H30.6098V39.5399H35.3498V56.4499H43.6494ZM15.4687 60.4152H10.0805L16.1191 49.8519L10.2963 39.5391H15.7166L17.5427 43.3489C18.1622 44.6188 18.6271 45.6394 19.1231 46.8182H19.1834C19.6802 45.4861 20.0824 44.5571 20.6073 43.3489L22.3729 39.5391H27.7613L21.877 49.727L28.0719 60.4134H22.6219L20.7318 56.6344C19.9588 55.1809 19.4629 54.0959 18.8743 52.888H18.8127C18.3786 54.0959 17.8533 55.1809 17.2023 56.6344L15.4687 60.4152ZM74.1178 85.515H15.8824V68.5134H74.1176V85.515H74.1178ZM74.1496 60.4152L72.2599 56.6363C71.486 55.1814 70.9906 54.0977 70.402 52.8896H70.3419C69.9076 54.0977 69.3803 55.1814 68.7288 56.6363L66.9969 60.4152H61.607L67.6456 49.8519L61.8232 39.5391H67.2433L69.0717 43.3489C69.6906 44.6188 70.154 45.6394 70.6505 46.8182H70.7124C71.2069 45.4861 71.6085 44.5571 72.1357 43.3489L73.9006 39.5391H79.2903L73.4059 49.727L79.5996 60.4134H74.1496V60.4152Z" fill="white"/>
</svg>
